<svg xmlns="http://www.w3.org/2000/svg" viewBox="0 -0.5 120 166" shape-rendering="crispEdges">
<path stroke="#000000" d="M58 1h10M56 2h2M68 2h1M55 3h1M69 3h2M53 4h2M71 4h1M52 5h1M72 5h2M51 6h1M74 6h1M50 7h1M75 7h1M50 8h1M76 8h1M49 9h1M77 9h2M49 10h1M79 10h1M48 11h1M80 11h1M48 12h1M81 12h1M47 13h1M82 13h1M47 14h1M83 14h1M46 15h1M84 15h1M45 16h1M84 16h1M45 17h1M85 17h1M44 18h1M86 18h1M43 19h1M56 19h1M87 19h1M42 20h1M55 20h2M88 20h1M41 21h1M55 21h1M89 21h1M40 22h1M54 22h2M90 22h1M38 23h2M53 23h2M91 23h1M36 24h2M52 24h3M92 24h1M35 25h1M50 25h2M53 25h1M93 25h1M36 26h1M48 26h2M53 26h1M94 26h1M37 27h2M46 27h2M53 27h1M95 27h1M39 28h7M53 28h1M81 28h7M96 28h1M53 29h1M77 29h4M88 29h7M97 29h1M53 30h1M74 30h3M95 30h2M98 30h1M53 31h1M70 31h4M97 31h2M53 32h1M68 32h2M99 32h1M53 33h1M66 33h2M82 33h12M100 33h1M53 34h1M63 34h3M77 34h5M94 34h12M53 35h1M61 35h2M73 35h4M106 35h4M53 36h1M59 36h2M72 36h1M110 36h4M53 37h1M57 37h2M69 37h3M114 37h2M53 38h1M56 38h1M66 38h3M100 38h12M116 38h1M53 39h1M55 39h1M63 39h3M95 39h5M112 39h3M116 39h1M53 40h2M61 40h2M91 40h4M99 40h1M115 40h1M53 41h1M59 41h2M88 41h3M100 41h1M115 41h1M52 42h1M57 42h2M84 42h4M101 42h1M114 42h1M52 43h1M55 43h2M79 43h5M102 43h1M114 43h1M52 44h1M54 44h1M75 44h4M103 44h1M113 44h1M52 45h2M73 45h2M104 45h1M112 45h1M51 46h2M70 46h3M75 46h1M104 46h1M111 46h1M50 47h2M68 47h2M76 47h1M105 47h1M109 47h2M49 48h1M66 48h2M77 48h2M105 48h1M107 48h2M48 49h1M64 49h2M67 49h2M79 49h1M106 49h1M46 50h2M62 50h2M67 50h1M69 50h1M80 50h2M83 50h1M107 50h1M45 51h1M60 51h3M66 51h1M70 51h2M82 51h1M84 51h3M107 51h1M44 52h1M57 52h3M66 52h1M72 52h3M83 52h1M87 52h3M108 52h1M10 53h12M43 53h1M55 53h2M75 53h3M84 53h1M90 53h5M108 53h1M9 54h1M22 54h2M42 54h1M53 54h3M65 54h1M78 54h3M85 54h2M95 54h3M109 54h1M7 55h2M24 55h1M41 55h1M52 55h1M55 55h1M65 55h1M81 55h3M87 55h1M98 55h4M109 55h1M6 56h1M25 56h1M41 56h1M50 56h2M55 56h1M64 56h1M84 56h5M102 56h4M109 56h1M5 57h1M26 57h1M40 57h1M48 57h2M51 57h1M55 57h1M64 57h1M75 57h5M94 57h5M105 57h2M110 57h1M4 58h1M11 58h11M27 58h1M39 58h1M47 58h1M51 58h1M55 58h1M64 58h1M74 58h1M80 58h1M93 58h1M99 58h1M105 58h1M107 58h2M110 58h1M4 59h1M10 59h1M21 59h2M27 59h1M39 59h1M45 59h2M51 59h1M55 59h1M64 59h1M73 59h1M81 59h1M92 59h1M100 59h1M105 59h1M107 59h1M109 59h2M3 60h1M9 60h1M23 60h1M28 60h1M38 60h1M44 60h1M51 60h1M53 60h3M63 60h1M72 60h1M78 60h3M82 60h1M91 60h1M97 60h3M101 60h1M105 60h1M107 60h1M110 60h1M3 61h1M8 61h1M14 61h6M23 61h3M28 61h1M38 61h1M42 61h2M52 61h1M55 61h1M63 61h1M72 61h1M77 61h6M91 61h1M96 61h6M105 61h1M107 61h1M2 62h1M8 62h1M13 62h1M20 62h1M25 62h1M29 62h1M37 62h1M40 62h2M51 62h1M55 62h1M63 62h1M72 62h1M76 62h1M79 62h4M91 62h1M95 62h1M98 62h4M105 62h1M107 62h1M2 63h1M7 63h1M12 63h1M21 63h1M26 63h1M29 63h1M36 63h1M39 63h1M50 63h1M55 63h1M63 63h1M72 63h1M76 63h1M79 63h4M91 63h1M95 63h1M98 63h4M105 63h1M107 63h1M2 64h1M7 64h1M11 64h1M22 64h1M26 64h1M29 64h1M36 64h8M50 64h1M53 64h1M55 64h1M63 64h1M72 64h1M76 64h7M91 64h1M95 64h7M105 64h1M107 64h1M2 65h1M6 65h1M10 65h1M23 65h1M26 65h1M29 65h1M44 65h7M53 65h1M55 65h1M63 65h1M72 65h1M76 65h7M91 65h1M95 65h7M105 65h1M107 65h1M1 66h1M6 66h1M10 66h1M23 66h1M26 66h1M29 66h1M50 66h1M53 66h1M56 66h1M63 66h1M72 66h1M76 66h7M91 66h1M95 66h7M105 66h1M107 66h1M1 67h1M6 67h1M10 67h1M23 67h1M26 67h1M29 67h1M51 67h1M54 67h1M56 67h1M63 67h1M72 67h1M76 67h7M91 67h1M95 67h7M105 67h1M107 67h1M1 68h1M6 68h1M10 68h1M23 68h1M26 68h1M29 68h1M52 68h1M56 68h1M62 68h1M72 68h1M76 68h7M91 68h1M95 68h7M105 68h1M107 68h1M1 69h1M5 69h1M10 69h1M23 69h1M26 69h1M29 69h1M52 69h5M62 69h1M72 69h1M76 69h7M91 69h1M95 69h7M105 69h1M107 69h1M1 70h1M5 70h1M10 70h1M23 70h1M25 70h1M28 70h1M52 70h1M57 70h1M62 70h1M72 70h1M76 70h7M91 70h1M95 70h7M105 70h1M107 70h1M1 71h1M5 71h1M11 71h1M22 71h1M25 71h1M28 71h1M52 71h1M57 71h1M61 71h1M72 71h1M77 71h6M91 71h1M96 71h6M105 71h1M107 71h1M1 72h1M5 72h1M12 72h1M21 72h1M24 72h1M27 72h1M51 72h1M61 72h1M73 72h1M78 72h2M81 72h1M92 72h1M97 72h2M100 72h1M105 72h1M107 72h1M1 73h1M6 73h1M13 73h1M20 73h1M24 73h1M26 73h1M51 73h1M58 73h1M61 73h1M74 73h1M80 73h1M93 73h1M99 73h1M104 73h1M107 73h1M1 74h1M6 74h1M14 74h6M23 74h3M51 74h1M58 74h1M61 74h2M75 74h5M94 74h5M104 74h1M107 74h1M1 75h1M7 75h1M22 75h2M51 75h1M59 75h1M61 75h1M63 75h1M103 75h1M107 75h1M2 76h1M8 76h1M51 76h1M59 76h1M61 76h1M64 76h1M102 76h1M107 76h1M2 77h1M9 77h1M51 77h1M60 77h1M63 77h1M65 77h1M101 77h1M106 77h1M113 77h1M3 78h1M10 78h1M50 78h1M60 78h1M63 78h1M66 78h2M86 78h2M99 78h2M106 78h1M112 78h1M114 78h1M4 79h1M11 79h2M50 79h1M62 79h1M68 79h1M85 79h1M97 79h3M106 79h1M111 79h2M114 79h1M5 80h1M13 80h2M49 80h1M61 80h1M69 80h1M96 80h1M98 80h1M100 80h1M106 80h1M110 80h1M112 80h1M114 80h1M6 81h1M15 81h2M49 81h1M53 81h1M60 81h1M70 81h3M94 81h2M98 81h1M100 81h1M106 81h1M110 81h1M112 81h1M114 81h1M7 82h1M17 82h2M48 82h1M53 82h1M59 82h2M73 82h2M92 82h2M98 82h1M101 82h1M105 82h1M110 82h1M112 82h1M114 82h4M8 83h2M19 83h3M48 83h1M52 83h1M58 83h1M61 83h1M75 83h2M91 83h1M98 83h1M101 83h1M105 83h1M110 83h1M112 83h1M114 83h1M116 83h1M118 83h1M10 84h2M22 84h2M47 84h1M51 84h1M57 84h2M62 84h1M77 84h14M97 84h2M102 84h1M104 84h1M110 84h1M114 84h1M116 84h1M118 84h1M12 85h3M24 85h3M46 85h1M50 85h1M55 85h2M58 85h1M63 85h2M96 85h1M99 85h1M102 85h2M109 85h4M114 85h1M116 85h1M118 85h1M15 86h3M27 86h2M46 86h1M49 86h1M53 86h2M57 86h1M65 86h2M94 86h2M100 86h1M103 86h1M108 86h1M112 86h1M114 86h1M116 86h1M118 86h1M18 87h3M29 87h1M45 87h1M48 87h1M52 87h1M56 87h1M67 87h1M92 87h2M100 87h1M108 87h1M110 87h2M115 87h4M21 88h2M30 88h1M45 88h1M47 88h1M50 88h2M56 88h1M68 88h5M90 88h2M99 88h1M101 88h1M108 88h3M118 88h1M23 89h2M31 89h1M44 89h1M46 89h1M48 89h2M56 89h1M73 89h2M88 89h2M98 89h1M102 89h1M109 89h1M118 89h1M25 90h2M32 90h1M44 90h1M46 90h2M55 90h2M75 90h13M97 90h1M102 90h1M110 90h1M118 90h1M27 91h1M32 91h1M44 91h2M54 91h1M56 91h1M96 91h1M103 91h1M110 91h1M117 91h1M28 92h1M33 92h1M53 92h1M57 92h3M94 92h2M103 92h1M110 92h2M117 92h1M29 93h1M33 93h1M52 93h1M60 93h2M92 93h2M104 93h1M109 93h1M113 93h1M116 93h1M29 94h1M34 94h1M53 94h1M62 94h7M89 94h3M104 94h1M109 94h1M115 94h1M30 95h1M34 95h1M54 95h1M69 95h6M84 95h5M105 95h1M108 95h1M115 95h1M30 96h1M35 96h1M55 96h1M75 96h9M104 96h1M108 96h1M114 96h1M31 97h1M36 97h1M54 97h1M56 97h1M94 97h1M103 97h1M105 97h1M107 97h1M114 97h1M31 98h1M36 98h1M54 98h1M57 98h2M95 98h1M102 98h1M105 98h2M114 98h1M32 99h1M37 99h1M54 99h1M59 99h1M65 99h1M96 99h1M101 99h1M106 99h1M113 99h1M33 100h1M37 100h1M53 100h1M60 100h2M64 100h1M96 100h1M100 100h1M105 100h1M113 100h1M33 101h1M38 101h1M53 101h1M62 101h1M64 101h1M96 101h1M98 101h2M112 101h1M34 102h1M39 102h1M53 102h1M63 102h1M96 102h2M112 102h1M35 103h1M39 103h1M52 103h1M63 103h1M96 103h2M111 103h1M35 104h1M40 104h1M52 104h1M62 104h2M96 104h1M98 104h1M111 104h1M36 105h1M41 105h1M52 105h1M61 105h1M63 105h1M96 105h1M98 105h1M110 105h1M36 106h1M41 106h1M51 106h1M61 106h1M63 106h1M96 106h1M99 106h1M110 106h1M37 107h1M42 107h1M51 107h1M55 107h2M61 107h1M63 107h1M96 107h1M99 107h1M109 107h1M38 108h1M42 108h1M50 108h1M56 108h1M60 108h1M63 108h1M96 108h1M100 108h1M109 108h1M38 109h1M43 109h1M50 109h1M59 109h1M63 109h1M96 109h1M101 109h1M108 109h1M39 110h1M44 110h1M50 110h1M59 110h1M63 110h1M96 110h1M102 110h1M107 110h1M39 111h1M44 111h1M49 111h1M58 111h1M63 111h1M96 111h1M101 111h1M103 111h4M40 112h1M45 112h1M49 112h1M57 112h1M63 112h2M79 112h8M96 112h1M101 112h1M41 113h1M46 113h1M48 113h1M57 113h1M64 113h1M78 113h1M87 113h1M96 113h1M102 113h1M41 114h1M44 114h4M56 114h1M64 114h2M78 114h1M81 114h4M87 114h1M95 114h1M102 114h1M42 115h2M56 115h1M65 115h14M80 115h1M85 115h1M87 115h9M102 115h1M43 116h1M55 116h1M64 116h1M78 116h1M80 116h1M85 116h1M87 116h1M96 116h1M103 116h1M43 117h5M54 117h1M64 117h1M78 117h1M80 117h1M85 117h1M87 117h1M96 117h1M103 117h1M42 118h4M49 118h1M53 118h1M64 118h15M80 118h1M85 118h1M87 118h10M103 118h1M41 119h1M45 119h2M49 119h1M52 119h2M62 119h2M78 119h1M81 119h4M87 119h1M97 119h1M104 119h1M41 120h1M44 120h1M46 120h2M50 120h1M52 120h1M62 120h1M78 120h1M87 120h1M97 120h1M104 120h1M40 121h1M43 121h1M46 121h3M50 121h1M52 121h1M61 121h1M79 121h8M98 121h1M104 121h1M40 122h1M45 122h1M48 122h2M51 122h1M61 122h1M98 122h1M105 122h1M40 123h1M47 123h1M49 123h1M51 123h1M61 123h1M98 123h1M105 123h1M41 124h1M46 124h1M48 124h2M52 124h1M60 124h1M99 124h1M105 124h1M42 125h2M47 125h2M52 125h1M60 125h1M99 125h1M106 125h1M44 126h3M49 126h1M53 126h1M60 126h1M99 126h1M106 126h1M45 127h1M49 127h1M54 127h1M59 127h1M100 127h1M106 127h1M44 128h1M50 128h1M55 128h1M59 128h1M100 128h1M106 128h1M44 129h1M51 129h1M55 129h1M59 129h1M100 129h1M106 129h1M44 130h1M51 130h1M56 130h1M59 130h1M100 130h1M106 130h1M43 131h1M52 131h1M56 131h1M58 131h1M101 131h1M107 131h1M43 132h1M52 132h1M57 132h1M101 132h1M107 132h1M42 133h1M53 133h1M57 133h1M102 133h1M107 133h1M42 134h1M54 134h1M57 134h1M102 134h1M107 134h1M41 135h1M54 135h1M57 135h1M102 135h1M107 135h1M41 136h1M55 136h1M57 136h1M102 136h1M107 136h1M40 137h1M56 137h1M102 137h1M107 137h1M40 138h1M56 138h1M102 138h1M107 138h1M40 139h1M56 139h1M102 139h1M107 139h1M39 140h1M56 140h1M102 140h1M107 140h1M39 141h1M56 141h1M102 141h1M107 141h1M38 142h1M55 142h1M102 142h1M107 142h1M38 143h1M55 143h1M102 143h1M107 143h1M38 144h1M55 144h1M102 144h1M107 144h1M37 145h1M54 145h1M101 145h1M108 145h1M37 146h1M54 146h1M72 146h6M83 146h4M90 146h4M97 146h4M108 146h1M37 147h1M53 147h1M69 147h4M78 147h5M86 147h4M94 147h3M108 147h1M37 148h1M52 148h1M56 148h4M63 148h1M71 148h1M86 148h1M94 148h1M108 148h1M36 149h1M53 149h3M63 149h1M71 149h1M86 149h1M94 149h1M108 149h1M36 150h1M63 150h1M71 150h1M86 150h1M94 150h1M108 150h1M36 151h1M63 151h1M71 151h1M86 151h1M94 151h1M108 151h1M36 152h1M62 152h1M70 152h1M86 152h1M94 152h1M109 152h1M35 153h1M61 153h2M70 153h8M82 153h5M94 153h5M109 153h1M35 154h1M53 154h10M70 154h1M78 154h4M86 154h1M94 154h1M99 154h4M110 154h1M35 155h1M48 155h5M62 155h9M86 155h9M103 155h7M35 156h1M37 156h11M61 156h1M71 156h1M85 156h1M95 156h1M35 157h2M61 157h1M71 157h1M85 157h1M95 157h1M62 158h9M86 158h9M61 159h1M69 159h1M87 159h1M95 159h1M60 160h1M62 160h1M70 160h1M86 160h1M94 160h1M96 160h1M59 161h1M61 161h1M70 161h1M86 161h1M95 161h1M97 161h1M58 162h1M70 162h1M86 162h1M98 162h1M58 163h1M68 163h2M87 163h2M98 163h1M59 164h9M89 164h9" />
<path stroke="#3d6dd2" d="M58 2h10M56 3h13M55 4h16M53 5h19M52 6h14M67 6h7M51 7h24M51 8h15M67 8h2M71 8h5M50 9h10M61 9h8M72 9h5M50 10h2M53 10h6M60 10h10M73 10h6M49 11h2M52 11h4M57 11h1M62 11h8M72 11h8M49 12h6M56 12h1M62 12h19M48 13h7M56 13h1M61 13h1M63 13h19M48 14h6M61 14h22M47 15h8M62 15h22M46 16h7M64 16h20M46 17h7M63 17h1M65 17h20M45 18h8M63 18h23M44 19h8M61 19h26M43 20h8M60 20h28M42 21h9M60 21h29M41 22h7M59 22h31M40 23h5M59 23h32M38 24h6M59 24h33M36 25h6M59 25h34M37 26h3M60 26h34M59 27h36M60 28h21M88 28h8M60 29h13M76 29h1M95 29h2M60 30h8M70 30h1M97 30h1M61 31h1M64 31h1M66 31h1M82 34h12M78 35h28M74 36h17M92 36h18M73 37h41M69 38h1M72 38h28M112 38h4M66 39h4M71 39h24M115 39h1M64 40h4M70 40h21M62 41h5M69 41h19M61 42h4M68 42h16M60 43h5M67 43h9M77 43h2M59 44h5M66 44h8M58 45h5M65 45h6M57 46h5M63 46h6M57 47h4M62 47h6M56 48h4M61 48h5M55 49h9M54 50h8M53 51h7M52 52h5M52 53h3M51 54h2M43 136h3M43 137h3M42 138h4M42 139h3M41 140h5M41 141h5M41 142h5M105 142h1M40 143h5M105 143h1M40 144h5M105 144h1M39 145h6M104 145h3M39 146h7M103 146h4M39 147h7M103 147h4M39 148h4M44 148h2M102 148h5M38 149h5M44 149h5M100 149h8M38 150h16M98 150h10M38 151h13M53 151h1M98 151h10M38 152h11M101 152h7M38 153h6M105 153h3M38 154h3M106 154h2" />
<path stroke="#9db8ef" d="M66 6h1M66 8h1M69 8h2M69 9h3M70 10h3M70 11h2M91 36h1" />
<path stroke="#1c54c7" d="M60 9h1M59 10h1M56 11h1M58 11h4M55 12h1M57 12h5M55 13h1M57 13h4M62 13h1M54 14h7M55 15h7M53 16h11M53 17h10M53 18h10M52 19h4M57 19h4M51 20h4M57 20h3M51 21h4M56 21h4M48 22h6M56 22h3M45 23h8M55 23h4M44 24h8M55 24h4M42 25h8M54 25h5M40 26h8M54 26h6M40 27h4M54 27h5M54 28h6M54 29h6M73 29h3M54 30h6M68 30h2M71 30h3M54 31h7M62 31h2M65 31h1M67 31h3M54 32h14M54 33h12M54 34h9M54 35h7M77 35h1M54 36h4M73 36h1M54 37h3M72 37h1M54 38h2M70 38h2M54 39h1M70 39h1M63 40h1M68 40h2M61 41h1M67 41h2M59 42h2M65 42h3M57 43h3M65 43h2M76 43h1M55 44h4M64 44h2M74 44h1M54 45h4M63 45h2M71 45h2M53 46h4M62 46h1M69 46h1M52 47h5M61 47h1M50 48h6M60 48h1M49 49h6M48 50h6M46 51h7M45 52h7M44 53h8M43 54h8M42 55h9M42 56h7M41 57h7M40 58h7M40 59h5M39 60h5M39 61h3M38 62h2M37 63h2M97 104h1M62 105h1M97 105h1M62 106h1M97 106h2M62 107h1M97 107h2M61 108h2M97 108h3M60 109h3M97 109h3M60 110h3M97 110h4M59 111h4M97 111h4M58 112h5M97 112h4M58 113h6M97 113h5M57 114h7M96 114h6M57 115h8M96 115h6M56 116h8M97 116h6M55 117h9M97 117h6M54 118h10M97 118h6M54 119h8M98 119h6M53 120h9M98 120h6M53 121h1M55 121h6M99 121h5M52 122h9M99 122h6M52 123h9M99 123h6M53 124h7M100 124h5M53 125h7M100 125h6M47 126h2M54 126h6M100 126h6M46 127h3M55 127h4M101 127h5M45 128h5M56 128h3M101 128h5M45 129h6M56 129h3M101 129h5M45 130h6M57 130h2M101 130h5M44 131h8M57 131h1M102 131h5M44 132h8M102 132h5M43 133h10M103 133h4M43 134h11M103 134h4M42 135h12M103 135h4M42 136h1M46 136h9M103 136h4M41 137h2M46 137h10M103 137h4M41 138h1M46 138h10M103 138h4M41 139h1M45 139h11M103 139h4M40 140h1M46 140h10M103 140h4M40 141h1M46 141h10M103 141h4M39 142h2M46 142h9M103 142h2M106 142h1M39 143h1M45 143h10M103 143h2M106 143h1M39 144h1M45 144h10M103 144h2M106 144h1M38 145h1M45 145h9M102 145h2M107 145h1M38 146h1M46 146h8M101 146h2M107 146h1M38 147h1M46 147h7M74 147h4M83 147h3M97 147h6M107 147h1M38 148h1M43 148h1M46 148h6M60 148h3M72 148h14M95 148h7M107 148h1M37 149h1M43 149h1M49 149h4M56 149h7M72 149h14M95 149h5M37 150h1M54 150h9M72 150h14M95 150h3M37 151h1M51 151h2M54 151h9M72 151h14M95 151h3M37 152h1M49 152h13M71 152h15M95 152h6M108 152h1M36 153h2M44 153h17M78 153h4M99 153h6M108 153h1M36 154h2M41 154h12M103 154h3M108 154h2M36 155h12M36 156h1" />
<path stroke="#7394d9" d="M52 10h1M51 11h1M64 17h1" />
<path stroke="#1663ab" d="M39 27h1M44 27h2" />
<path stroke="#844c4b" d="M81 29h7M77 30h18M74 31h23M70 32h29M68 33h14M94 33h6M66 34h11M63 35h10M61 36h11M59 37h10M57 38h9M56 39h7M55 40h6M54 41h5M53 42h4M53 43h2M53 44h1M10 54h6M19 54h3M9 55h8M20 55h1M7 56h1M17 56h2M6 57h2M10 57h10M22 57h2M25 57h1M5 58h6M22 58h2M26 58h1M5 59h5M23 59h1M26 59h1M4 60h5M24 60h1M26 60h2M4 61h1M7 61h1M26 61h1M3 62h2M7 62h1M26 62h1M28 62h1M3 63h2M6 63h1M3 64h1M6 64h1M3 65h1M5 65h1M27 65h1M2 66h2M5 66h1M27 66h1M2 67h2M5 67h1M27 67h1M2 68h2M5 68h1M2 69h1M28 69h1M2 70h1M27 70h1M2 71h3M27 71h1M2 72h3M26 72h1M2 73h1M4 73h2M25 73h1M2 74h1M4 74h2M2 75h1M5 75h2M5 76h3M3 77h1M7 77h2M4 78h1M8 78h2M5 79h6M6 80h7M7 81h2M14 81h1M14 82h3M10 83h6M18 83h1M12 84h4M15 85h5M22 85h2M18 86h6M25 86h2M21 87h3M27 87h2M23 88h2M29 88h1M25 89h2M30 89h1M27 90h1M30 90h2M28 91h4M29 92h4M30 93h3M30 94h1M33 94h1M33 95h1M31 96h1M33 96h2M34 97h2M34 98h2M35 99h2M35 100h2M35 101h2M35 102h2M36 103h2M36 104h2M37 105h2M37 106h3M38 107h4M39 108h3M39 109h4M41 110h1M43 113h1M45 113h1M43 114h1M65 116h13M88 116h8M65 117h13M88 117h8M46 118h3M47 119h2M48 120h1M50 123h1M50 124h2M49 125h3M50 126h1M52 126h1M53 127h1M53 128h2M54 129h1M52 130h1M53 132h1M55 135h2M56 136h1M62 156h9M86 156h9M62 157h9M86 157h9M62 159h7M88 159h7M61 160h1M63 160h7M87 160h7M95 160h1M60 161h1M62 161h8M87 161h8M96 161h1M59 162h11M87 162h11M59 163h9M89 163h9" />
<path stroke="#3a67e3" d="M58 36h1M15 65h4M14 66h5M14 67h6M15 68h4M15 69h4" />
<path stroke="#04294c" d="M100 39h1" />
<path stroke="#072544" d="M101 39h11M100 40h15M101 41h14M102 42h12M103 43h11M104 44h9M105 45h7M105 46h6M106 47h3M106 48h1M50 57h1M48 58h3M47 59h4M45 60h6M44 61h8M42 62h9M40 63h10M44 64h6M110 93h3M110 94h5M109 95h6M109 96h5M55 97h1M104 97h1M108 97h6M55 98h2M103 98h2M107 98h7M55 99h4M102 99h4M107 99h6M54 100h6M101 100h4M106 100h7M54 101h8M100 101h12M54 102h9M98 102h14M53 103h10M98 103h13M53 104h9M99 104h12M53 105h8M99 105h11M52 106h9M100 106h10M52 107h3M57 107h4M100 107h9M51 108h5M57 108h3M101 108h8M51 109h8M102 109h6M51 110h8M103 110h4M50 111h8M50 112h7M49 113h8M50 114h6M51 115h5M52 116h3M53 117h1" />
<path stroke="#d6802c" d="M95 40h4M91 41h9M88 42h6M100 42h1M84 43h6M101 43h1M79 44h6M102 44h1M75 45h6M73 46h1M76 46h4M70 47h3M77 47h2M68 48h3M66 49h1M69 49h2M80 49h3M64 50h3M70 50h1M82 50h1M84 50h4M63 51h3M72 51h3M87 51h3M60 52h5M75 52h2M91 52h4M57 53h4M62 53h1M78 53h2M95 53h3M56 54h4M81 54h2M98 54h4M53 55h2M56 55h3M102 55h4M52 56h3M56 56h3M106 56h2M52 57h3M56 57h3M107 57h2M52 58h3M56 58h2M109 58h1M52 59h3M56 59h2M52 60h1M56 60h2M56 61h1M56 62h1M56 63h1M56 64h1M56 65h2M57 66h1M57 67h1M57 68h1M57 69h1M53 70h4M58 70h1M53 71h4M58 71h1M106 71h1M52 72h7M106 72h1M52 73h6M59 73h1M105 73h2M52 74h6M59 74h1M105 74h1M52 75h7M62 75h1M104 75h3M52 76h7M62 76h2M103 76h4M52 77h8M61 77h2M102 77h4M51 78h9M61 78h2M101 78h5M51 79h11M100 79h6M50 80h11M101 80h5M50 81h3M54 81h6M101 81h5M49 82h4M54 82h5M102 82h3M49 83h3M53 83h5M102 83h3M48 84h3M52 84h5M103 84h1M47 85h3M51 85h4M47 86h2M50 86h3M46 87h2M49 87h3M46 88h1M48 88h2M45 89h1M47 89h1M45 90h1" />
<path stroke="#db934b" d="M94 42h6M90 43h7M98 43h3M85 44h7M100 44h2M81 45h4M101 45h3M74 46h1M80 46h2M102 46h2M73 47h3M79 47h4M103 47h2M71 48h6M79 48h6M104 48h1M71 49h2M83 49h2M104 49h2M71 50h2M105 50h2M106 51h1M65 52h1M106 52h2M64 53h2M107 53h1M64 54h1M107 54h2M63 55h2M108 55h1M63 56h1M108 56h1M63 57h1M109 57h1M63 58h1M62 59h2M62 60h1M62 61h1M62 62h1M62 63h1M62 64h1M62 65h1M62 66h1M61 67h2M61 68h1M60 69h2M60 70h2M60 71h1M60 72h1M60 73h1M60 74h1M60 75h1M60 76h1" />
<path stroke="#e0ad71" d="M97 43h1M92 44h8M85 45h16M82 46h20M83 47h20M85 48h19M73 49h6M85 49h19M73 50h7M88 50h17M75 51h7M90 51h16M77 52h6M95 52h11M61 53h1M63 53h1M80 53h4M98 53h9M60 54h4M83 54h2M102 54h5M59 55h4M84 55h3M106 55h2M59 56h4M59 57h4M58 58h5M106 58h1M58 59h4M106 59h1M58 60h4M106 60h1M57 61h5M106 61h1M57 62h5M106 62h1M57 63h5M106 63h1M57 64h5M106 64h1M58 65h4M106 65h1M58 66h4M106 66h1M58 67h3M106 67h1M58 68h3M106 68h1M58 69h2M106 69h1M59 70h1M106 70h1M59 71h1M59 72h1M106 74h1M81 115h4M81 116h4M81 117h4M81 118h4" />
<path stroke="#cd9581" d="M68 50h1M67 51h3M83 51h1M67 52h5M84 52h3M90 52h1M66 53h9M87 53h3M66 54h2M74 54h4M90 54h5M66 55h1M78 55h3M95 55h3M65 56h2M81 56h3M98 56h4M65 57h1M84 57h5M101 57h4M65 58h1M65 59h1M64 60h2M64 61h1M64 62h1M64 63h1M64 64h1M64 65h1M64 66h1M64 67h1M63 68h1M63 69h1M63 70h1M62 71h2M62 72h1M62 73h1" />
<path stroke="#fbd0c0" d="M85 53h2M68 54h6M87 54h3M67 55h11M88 55h7M67 56h14M89 56h9M66 57h9M80 57h4M89 57h5M99 57h2M66 58h8M81 58h12M100 58h5M66 59h7M82 59h10M101 59h4M66 60h6M83 60h8M102 60h3M53 61h2M65 61h7M83 61h8M102 61h3M52 62h3M65 62h7M83 62h8M102 62h3M51 63h4M65 63h7M83 63h8M102 63h3M51 64h2M54 64h1M65 64h7M83 64h8M102 64h3M51 65h2M54 65h1M65 65h7M83 65h8M102 65h3M51 66h2M54 66h2M65 66h7M83 66h8M102 66h3M52 67h2M55 67h1M65 67h7M83 67h8M102 67h3M53 68h3M64 68h8M83 68h8M102 68h3M64 69h8M83 69h8M102 69h3M64 70h8M83 70h8M102 70h3M64 71h8M83 71h8M102 71h3M63 72h10M82 72h10M101 72h4M63 73h11M81 73h12M100 73h4M63 74h12M80 74h14M99 74h5M64 75h39M65 76h37M66 77h35M68 78h18M88 78h11M113 78h1M69 79h16M86 79h11M113 79h1M70 80h26M111 80h1M113 80h1M73 81h21M111 81h1M113 81h1M75 82h17M111 82h1M113 82h1M77 83h14M111 83h1M113 83h1M115 83h1M117 83h1M111 84h3M115 84h1M117 84h1M113 85h1M115 85h1M117 85h1M109 86h3M113 86h1M115 86h1M117 86h1M109 87h1M112 87h3M111 88h7M110 89h8M111 90h7M111 91h6M112 92h5M114 93h2M48 114h2M44 115h7M44 116h8M48 117h5M50 118h3M42 119h3M50 119h2M42 120h2M45 120h1M51 120h1M41 121h2M44 121h2M51 121h1M41 122h4M46 122h2M41 123h6M48 123h1M42 124h4M47 124h1M44 125h3M90 147h4M64 148h7M87 148h7M64 149h7M87 149h7M64 150h7M87 150h7M64 151h7M87 151h7M63 152h7M87 152h7M63 153h7M87 153h7M63 154h7M87 154h7" />
<path stroke="#956548" d="M16 54h3M17 55h3M21 55h3M8 56h9M19 56h6M8 57h2M20 57h2M24 57h1M24 58h2M24 59h2M25 60h1M5 61h2M27 61h1M5 62h2M27 62h1M5 63h1M27 63h2M4 64h2M27 64h2M4 65h1M28 65h1M4 66h1M28 66h1M4 67h1M28 67h1M4 68h1M27 68h2M3 69h2M27 69h1M3 70h2M26 70h1M26 71h1M25 72h1M3 73h1M3 74h1M3 75h2M3 76h2M4 77h3M5 78h3M9 81h5M8 82h6M16 83h2M16 84h6M20 85h2M24 86h1M24 87h3M25 88h4M27 89h3M28 90h2M31 94h2M31 95h2M32 96h1M32 97h2M32 98h2M33 99h2M34 100h1M34 101h1M37 101h1M37 102h2M38 103h1M38 104h2M39 105h2M40 106h1M40 110h1M42 110h2M40 111h4M41 112h4M42 113h1M44 113h1M42 114h1M49 120h1M49 121h1M50 122h1M51 126h1M50 127h3M51 128h2M52 129h2M53 130h3M53 131h3M54 132h3M54 133h3M55 134h2" />
<path stroke="#1b4cd3" d="M51 55h1M15 63h4M15 64h5M19 65h2M12 66h2M19 66h3M12 67h2M20 67h2M12 68h3M19 68h3M12 69h3M19 69h3M12 70h9M13 71h7M15 72h4" />
<path stroke="#13599f" d="M49 56h1" />
<path stroke="#9deef7" d="M75 58h5M94 58h5M74 59h1M93 59h1M73 60h1M92 60h1M73 61h1M92 61h1M73 62h1M92 62h1M73 63h1M92 63h1M73 64h1M92 64h1M73 65h1M92 65h1M73 66h1M92 66h1M73 67h1M92 67h1M73 68h1M92 68h1M73 69h1M92 69h1M73 70h1M92 70h1M73 71h1M92 71h1M74 72h1M93 72h1M75 73h1M94 73h1" />
<path stroke="#dbeaf2" d="M75 59h6M94 59h6M74 60h4M81 60h1M93 60h4M100 60h1M74 61h3M93 61h3M74 62h2M77 62h2M93 62h2M96 62h2M74 63h2M77 63h2M93 63h2M96 63h2M74 64h2M93 64h2M74 65h2M93 65h2M74 66h2M93 66h2M74 67h2M93 67h2M74 68h2M93 68h2M74 69h2M93 69h2M74 70h2M93 70h2M74 71h3M93 71h3M75 72h3M80 72h1M94 72h3M99 72h1M76 73h4M95 73h4" />
<path stroke="#0230ae" d="M14 62h6M13 63h2M12 64h1M21 64h1M11 65h1M21 65h2M11 66h1M22 66h1M11 67h1M22 67h1M11 68h1M22 68h1M11 69h1M22 69h1M11 70h1M21 70h2M12 71h1M20 71h2M13 72h1M20 72h1M14 73h6" />
<path stroke="#2144ac" d="M19 63h2M20 64h1M12 65h1M14 72h1M19 72h1" />
<path stroke="#9dd1ef" d="M13 64h2M13 65h2M56 92h1M55 93h1M102 93h1M57 94h1M103 94h1M55 95h2M59 95h1M100 95h1M103 95h2M56 96h3M98 96h1M101 96h3M57 97h3M62 97h1M96 97h1M99 97h1M101 97h2M59 98h3M96 98h2M100 98h2M60 99h3M64 99h1M97 99h1M99 99h2M62 100h2M97 100h3M63 101h1M97 101h1M100 131h1M100 132h1M101 133h1M101 134h1M101 136h1M101 137h1M101 138h1M101 139h1M85 140h1M73 141h1M79 141h1M85 141h1M89 141h1M93 141h1M98 141h1M101 141h1M62 142h1M66 142h1M73 142h1M79 142h1M85 142h1M89 142h1M93 142h1M98 142h1M101 142h1M57 143h2M61 143h2M66 143h2M72 143h2M78 143h2M84 143h3M89 143h1M93 143h1M98 143h1M101 143h1M57 144h1M60 144h2M65 144h3M71 144h4M77 144h4M83 144h4M88 144h3M92 144h3M97 144h2M100 144h2M57 145h1M60 145h2M64 145h5M70 145h11M82 145h13M96 145h5M56 146h1M59 146h8M69 146h2M78 146h5M87 146h3M94 146h3M56 147h4M53 148h3" />
<path stroke="#2582b6" d="M64 77h1M64 78h2M63 79h5M62 80h5M68 80h1M97 80h1M61 81h5M69 81h1M96 81h2M61 82h4M94 82h2M97 82h1M59 83h2M62 83h4M74 83h1M92 83h2M97 83h1M59 84h3M63 84h4M74 84h3M91 84h1M95 84h2M59 85h4M65 85h3M76 85h15M94 85h2M97 85h2M58 86h3M63 86h2M67 86h4M93 86h1M96 86h1M57 87h4M65 87h2M68 87h5M91 87h1M94 87h2M57 88h2M60 88h1M67 88h1M73 88h3M92 88h2M100 88h1M57 89h3M68 89h5M75 89h4M90 89h1M99 89h2M57 90h2M73 90h2M88 90h2M98 90h1M55 91h1M57 91h3M75 91h14M97 91h1M60 92h2M96 92h2M58 93h2M62 93h2M94 93h2M60 94h2M92 94h3M62 95h7M89 95h3M69 96h6M84 96h5M75 97h9M66 99h1M65 100h2M65 101h1M64 102h1M64 103h1M64 104h1M64 105h1M64 106h1M64 107h1M64 108h1M64 109h2M64 110h3M64 111h3M95 111h1M65 112h2M95 112h1M65 113h3M94 113h2M66 114h4M92 114h3M64 119h5M93 119h4M63 120h4M95 120h2M62 121h4M96 121h2M62 122h3M96 122h2M62 123h2M61 124h2M61 125h1M61 126h1M60 127h2M60 128h1M60 129h1M60 130h1M59 131h1M58 132h2M58 133h2M58 134h1M58 135h1M58 136h1M57 137h1M57 138h1M57 139h1M57 140h1M56 142h1M56 143h1M56 144h1M55 145h1M55 146h1M54 147h2" />
<path stroke="#30a4d1" d="M67 80h1M66 81h3M65 82h8M96 82h1M66 83h8M94 83h3M67 84h7M92 84h3M68 85h8M91 85h3M61 86h2M71 86h22M97 86h3M61 87h4M73 87h18M96 87h4M59 88h1M61 88h6M76 88h14M94 88h5M60 89h8M79 89h9M91 89h7M101 89h1M59 90h14M90 90h7M99 90h3M60 91h15M89 91h7M98 91h5M54 92h2M62 92h32M98 92h5M56 93h2M64 93h28M96 93h6M103 93h1M56 94h1M58 94h2M69 94h20M95 94h8M57 95h2M60 95h2M75 95h9M92 95h8M101 95h2M59 96h10M89 96h9M99 96h2M60 97h2M63 97h12M84 97h10M95 97h1M97 97h2M100 97h1M62 98h33M98 98h2M63 99h1M67 99h29M98 99h1M67 100h29M66 101h30M65 102h31M65 103h31M65 104h31M65 105h31M65 106h31M65 107h31M65 108h31M66 109h30M67 110h29M67 111h28M67 112h12M87 112h8M68 113h10M88 113h6M70 114h8M88 114h4M69 119h9M88 119h5M67 120h11M88 120h7M66 121h13M87 121h9M65 122h31M64 123h29M94 123h4M63 124h36M62 125h37M62 126h18M81 126h18M62 127h38M61 128h39M61 129h39M61 130h39M60 131h40M60 132h5M66 132h34M60 133h41M59 134h42M59 135h43M59 136h42M58 137h43M58 138h43M58 139h43M58 140h27M86 140h16M57 141h16M74 141h5M80 141h5M86 141h3M90 141h3M94 141h4M99 141h2M57 142h5M63 142h3M67 142h6M74 142h5M80 142h5M86 142h3M90 142h3M94 142h4M99 142h2M59 143h2M63 143h3M68 143h4M74 143h4M80 143h4M87 143h2M90 143h3M94 143h4M99 143h2M58 144h2M62 144h3M68 144h3M75 144h2M81 144h2M87 144h1M91 144h1M95 144h2M99 144h1M56 145h1M58 145h2M62 145h2M69 145h1M81 145h1M95 145h1M57 146h2" />
<path stroke="#90cdf0" d="M53 93h2M54 94h2M67 146h1" />
<path stroke="#c68b3b" d="M79 113h8M79 114h2M85 114h2M79 115h1M86 115h1M79 116h1M86 116h1M79 117h1M86 117h1M79 118h1M86 118h1M79 119h2M85 119h2M79 120h8" />
<path stroke="#1b50be" d="M54 121h1" />
<path stroke="#30aed1" d="M93 123h1M80 126h1M65 132h1" />
<path stroke="#98cbe7" d="M68 146h1" />
<path stroke="#9ccfed" d="M71 146h1" />
<path stroke="#060708" d="M60 147h1M67 147h2" />
<path stroke="#101518" d="M61 147h1" />
<path stroke="#161d22" d="M62 147h1" />
<path stroke="#1a2328" d="M63 147h1" />
<path stroke="#12181b" d="M64 147h1" />
<path stroke="#020203" d="M65 147h1" />
<path stroke="#020304" d="M66 147h1" />
<path stroke="#1a4fbb" d="M73 147h1" />
</svg>