<svg xmlns="http://www.w3.org/2000/svg" viewBox="0 0 50 13" shape-rendering="crispEdges">
<path stroke="#412a0c" d="M3 0h44M2 1h1M47 1h1M1 2h1M48 2h1M0 3h1M49 3h1M0 4h1M49 4h1M0 5h1M49 5h1M0 6h1M49 6h1M0 7h1M49 7h1M0 8h1M49 8h1M0 9h1M49 9h1M1 10h1M48 10h1M2 11h1M47 11h1M3 12h44" />
<path stroke="#cb9f7d" d="M3 1h44M2 2h2M46 2h2M1 3h2M47 3h2M1 4h1M48 4h1M1 5h1M48 5h1M1 6h1M48 6h1M1 7h1M48 7h1M1 8h1M48 8h1M1 9h1M48 9h1" />
<path stroke="#ebd6b5" d="M4 2h42M3 3h44M2 4h46M2 5h46M2 6h46M2 7h46M2 8h46M2 9h46M3 10h44" />
<path stroke="#f2e4cf" d="M2 10h1M47 10h1M3 11h44" />
</svg>