<svg xmlns="http://www.w3.org/2000/svg" viewBox="0 0 50 13" shape-rendering="crispEdges">
<path stroke="#412a0c" d="M3 0h44M2 1h1M47 1h1M1 2h1M48 2h1M0 3h1M49 3h1M0 4h1M49 4h1M0 5h1M49 5h1M0 6h1M49 6h1M0 7h1M49 7h1M0 8h1M49 8h1M0 9h1M49 9h1M1 10h1M48 10h1M2 11h1M47 11h1M3 12h44" />
<path stroke="#ebd6b5" d="M3 1h1M46 1h1M2 2h1M4 2h42M47 2h1M1 3h1M3 3h44M48 3h1M1 4h48M1 5h48M1 6h48M1 7h48M1 8h48M1 9h1M3 9h44M48 9h1M2 10h1M4 10h42M47 10h1M3 11h1M46 11h1" />
<path stroke="#f2e4cf" d="M4 1h42M3 2h1M46 2h1M2 3h1M47 3h1" />
<path stroke="#cb9f7d" d="M2 9h1M47 9h1M3 10h1M46 10h1M4 11h42" />
</svg>