<svg xmlns="http://www.w3.org/2000/svg" viewBox="0 -0.5 170 50" shape-rendering="crispEdges">
<path stroke="#ff9f00" d="M85 3h6M13 4h7M86 4h1M91 4h4M13 5h1M86 5h1M95 5h1M137 5h1M12 6h1M76 6h1M86 6h1M95 6h2M105 6h2M115 6h1M128 6h1M137 6h1M11 7h1M77 7h1M87 7h1M95 7h2M105 7h1M107 7h1M116 7h1M128 7h1M137 7h1M11 8h1M77 8h1M87 8h1M89 8h6M104 8h2M108 8h1M116 8h1M128 8h1M137 8h1M10 9h4M19 9h12M34 9h4M41 9h3M68 9h1M77 9h1M88 9h6M104 9h1M109 9h1M116 9h1M128 9h1M138 9h1M146 9h3M10 10h5M26 10h1M32 10h2M41 10h1M44 10h2M54 10h1M67 10h2M77 10h1M88 10h1M94 10h3M104 10h1M110 10h1M116 10h1M128 10h1M138 10h1M146 10h1M148 10h1M11 11h1M26 11h1M32 11h2M41 11h1M45 11h1M54 11h2M61 11h1M67 11h1M69 11h1M77 11h1M88 11h1M97 11h1M103 11h1M111 11h1M114 11h19M138 11h1M144 11h2M147 11h2M11 12h1M26 12h1M32 12h5M41 12h1M45 12h1M54 12h2M61 12h1M67 12h1M69 12h1M77 12h1M89 12h1M97 12h1M102 12h10M116 12h1M128 12h1M138 12h1M143 12h1M147 12h1M10 13h1M26 13h1M32 13h1M41 13h1M43 13h3M54 13h1M56 13h1M61 13h1M66 13h1M70 13h2M77 13h1M89 13h1M97 13h1M102 13h1M111 13h1M116 13h1M128 13h1M138 13h1M143 13h1M145 13h2M10 14h1M26 14h1M31 14h1M41 14h1M43 14h1M54 14h1M56 14h1M61 14h1M66 14h1M70 14h2M77 14h1M89 14h3M96 14h1M101 14h2M106 14h1M111 14h1M116 14h1M121 14h2M128 14h1M139 14h1M142 14h3M9 15h2M18 15h1M26 15h1M31 15h1M36 15h2M41 15h1M44 15h1M54 15h1M57 15h2M60 15h1M66 15h4M71 15h2M77 15h1M89 15h2M92 15h5M101 15h2M107 15h1M110 15h2M116 15h1M120 15h3M128 15h1M133 15h2M139 15h1M142 15h10M9 16h1M18 16h1M26 16h1M32 16h1M35 16h2M41 16h1M45 16h1M54 16h1M58 16h1M60 16h1M66 16h1M73 16h1M77 16h1M101 16h1M108 16h1M110 16h1M116 16h1M119 16h1M128 16h2M132 16h2M139 16h1M152 16h9M10 17h8M26 17h1M32 17h3M41 17h1M46 17h3M54 17h1M59 17h1M66 17h1M73 17h1M77 17h1M101 17h1M109 17h2M116 17h3M129 17h3M32 18h2M41 18h1M49 18h2M54 18h1M59 18h1M66 18h1M77 18h1M110 18h1M129 18h1M78 19h1M42 23h1M68 23h1M136 23h1M21 24h3M42 24h1M68 24h7M136 24h1M19 25h2M24 25h1M34 25h1M42 25h1M68 25h4M79 25h1M136 25h1M18 26h1M24 26h1M34 26h1M42 26h1M68 26h2M79 26h1M136 26h1M12 27h3M18 27h1M23 27h2M34 27h1M42 27h1M52 27h3M68 27h2M79 27h1M136 27h1M147 27h6M12 28h1M14 28h1M18 28h1M34 28h1M37 28h2M42 28h1M52 28h3M68 28h2M79 28h1M85 28h3M94 28h1M112 28h3M123 28h1M136 28h1M146 28h1M11 29h3M15 29h1M18 29h1M32 29h6M42 29h1M45 29h2M50 29h2M53 29h1M68 29h5M79 29h1M84 29h2M88 29h2M94 29h1M99 29h3M104 29h4M110 29h2M115 29h2M123 29h1M136 29h6M145 29h1M9 30h2M15 30h1M17 30h2M21 30h2M34 30h1M42 30h3M46 30h1M50 30h4M68 30h2M79 30h1M84 30h1M88 30h2M94 30h1M98 30h2M102 30h1M104 30h1M107 30h1M109 30h2M115 30h1M123 30h1M125 30h5M132 30h5M145 30h1M9 31h1M15 31h1M18 31h3M34 31h1M42 31h1M46 31h1M49 31h2M68 31h2M79 31h1M84 31h1M86 31h2M95 31h1M97 31h2M102 31h2M107 31h1M109 31h1M112 31h3M123 31h1M125 31h1M129 31h1M136 31h1M146 31h3M9 32h1M14 32h1M18 32h1M34 32h5M42 32h1M46 32h1M50 32h1M68 32h2M79 32h1M84 32h3M96 32h2M102 32h2M107 32h2M110 32h1M123 32h2M129 32h1M136 32h1M142 32h1M149 32h3M9 33h1M14 33h1M18 33h1M46 33h1M50 33h1M68 33h2M79 33h1M84 33h1M96 33h2M102 33h1M108 33h1M111 33h1M123 33h1M129 33h1M136 33h1M141 33h2M152 33h2M9 34h5M18 34h1M46 34h1M50 34h6M68 34h2M79 34h1M83 34h2M90 34h1M97 34h1M111 34h4M117 34h1M123 34h1M129 34h1M136 34h5M153 34h4M69 35h1M74 35h2M80 35h1M85 35h5M115 35h3M153 35h1M69 36h5M152 36h1M151 37h1M150 38h1M148 39h2" />
</svg>