<svg xmlns="http://www.w3.org/2000/svg" viewBox="0 -0.5 192 108" shape-rendering="crispEdges">
<path stroke="#412a0c" d="M13 4h13M11 5h2M26 5h3M119 5h9M9 6h2M29 6h2M90 6h13M117 6h2M128 6h2M140 6h8M7 7h2M31 7h1M52 7h25M84 7h6M103 7h14M130 7h1M138 7h2M148 7h21M173 7h11M6 8h1M32 8h1M44 8h4M51 8h1M77 8h1M81 8h3M131 8h2M137 8h1M169 8h1M172 8h1M184 8h1M6 9h1M32 9h12M48 9h1M50 9h1M78 9h1M80 9h1M133 9h2M136 9h1M169 9h1M171 9h1M185 9h1M6 10h1M32 10h1M49 10h1M78 10h1M80 10h1M135 10h1M170 10h1M186 10h1M7 11h1M32 11h1M49 11h1M79 11h1M135 11h1M170 11h1M186 11h1M7 12h1M31 12h1M49 12h1M79 12h1M135 12h1M186 12h1M7 13h1M31 13h1M79 13h1M186 13h1M8 14h1M31 14h1M79 14h1M186 14h1M8 15h1M31 15h1M79 15h1M186 15h1M8 16h1M31 16h1M186 16h1M8 17h1M31 17h1M186 17h1M8 18h1M31 18h1M186 18h1M8 19h1M30 19h1M186 19h1M8 20h1M30 20h1M186 20h1M8 21h1M30 21h1M186 21h1M9 22h1M30 22h1M186 22h1M9 23h1M30 23h1M186 23h1M9 24h1M30 24h1M186 24h1M9 25h1M30 25h1M186 25h1M9 26h1M29 26h1M185 26h1M9 27h1M29 27h1M185 27h1M9 28h1M29 28h1M185 28h1M9 29h1M29 29h1M185 29h1M9 30h1M29 30h1M185 30h1M9 31h1M29 31h1M185 31h1M9 32h1M29 32h1M185 32h1M9 33h1M29 33h1M185 33h1M9 34h1M29 34h1M185 34h1M9 35h1M29 35h1M185 35h1M9 36h1M29 36h1M185 36h1M9 37h1M29 37h1M185 37h1M9 38h1M29 38h1M185 38h1M9 39h1M29 39h1M185 39h1M9 40h1M29 40h1M185 40h1M9 41h1M29 41h1M185 41h1M9 42h1M29 42h1M185 42h1M9 43h1M29 43h1M185 43h1M9 44h1M29 44h1M185 44h1M9 45h1M29 45h1M185 45h1M9 46h1M29 46h1M185 46h1M9 47h1M29 47h1M185 47h1M9 48h1M29 48h1M186 48h1M9 49h1M29 49h1M186 49h1M9 50h1M29 50h1M186 50h1M9 51h1M29 51h1M186 51h1M9 52h1M29 52h1M186 52h1M9 53h1M29 53h1M187 53h1M9 54h1M29 54h1M187 54h1M9 55h1M29 55h1M187 55h1M9 56h1M29 56h1M187 56h1M9 57h1M29 57h1M187 57h1M9 58h1M29 58h1M187 58h1M9 59h1M29 59h1M187 59h1M9 60h1M29 60h1M187 60h1M9 61h1M29 61h1M187 61h1M9 62h1M29 62h1M187 62h1M9 63h1M29 63h1M187 63h1M9 64h1M29 64h1M187 64h1M9 65h1M29 65h1M187 65h1M9 66h1M29 66h1M187 66h1M9 67h1M29 67h1M187 67h1M9 68h1M29 68h1M187 68h1M9 69h1M29 69h1M187 69h1M9 70h1M29 70h1M187 70h1M9 71h1M29 71h1M187 71h1M9 72h1M29 72h1M187 72h1M9 73h1M29 73h1M187 73h1M9 74h1M29 74h1M187 74h1M8 75h1M29 75h1M187 75h1M8 76h1M29 76h1M187 76h1M8 77h1M29 77h1M187 77h1M8 78h1M29 78h1M187 78h1M8 79h1M30 79h1M187 79h1M8 80h1M30 80h1M187 80h1M8 81h1M30 81h1M186 81h1M8 82h1M30 82h1M186 82h1M8 83h1M30 83h1M186 83h1M7 84h1M31 84h1M186 84h1M7 85h1M31 85h1M186 85h1M7 86h1M31 86h1M186 86h1M7 87h1M31 87h1M186 87h1M7 88h1M32 88h1M186 88h1M7 89h1M32 89h1M186 89h1M7 90h1M32 90h1M186 90h1M7 91h1M32 91h1M120 91h1M186 91h1M7 92h1M32 92h1M120 92h1M186 92h1M7 93h1M33 93h1M120 93h1M164 93h1M186 93h1M7 94h1M33 94h1M92 94h1M120 94h1M164 94h1M186 94h1M7 95h1M15 95h10M33 95h1M52 95h1M92 95h1M120 95h1M164 95h1M186 95h1M6 96h1M11 96h6M21 96h1M24 96h5M33 96h1M52 96h1M92 96h1M120 96h1M163 96h1M165 96h1M185 96h1M6 97h1M9 97h2M21 97h1M28 97h2M33 97h1M52 97h1M92 97h1M119 97h1M121 97h1M163 97h1M165 97h1M185 97h1M6 98h1M8 98h1M20 98h1M28 98h2M33 98h1M51 98h1M53 98h1M92 98h1M119 98h1M121 98h1M161 98h2M165 98h1M184 98h1M7 99h1M19 99h1M26 99h3M32 99h1M49 99h2M53 99h1M91 99h1M93 99h1M119 99h1M122 99h2M153 99h4M160 99h1M166 99h1M183 99h1M7 100h1M19 100h8M32 100h1M44 100h5M54 100h1M91 100h1M94 100h1M116 100h3M124 100h5M149 100h4M157 100h3M167 100h16M8 101h2M31 101h1M33 101h11M55 101h6M88 101h3M95 101h2M104 101h5M115 101h1M129 101h20M10 102h2M30 102h1M61 102h18M84 102h4M97 102h7M109 102h6M12 103h2M28 103h2M79 103h5M14 104h14" />
<path stroke="#ba8f62" d="M13 5h13M11 6h2M26 6h3M119 6h9M9 7h2M22 7h1M29 7h2M90 7h13M117 7h2M128 7h2M140 7h8M7 8h2M22 8h4M31 8h1M52 8h25M84 8h6M103 8h14M130 8h1M138 8h2M148 8h21M173 8h11M7 9h1M23 9h3M27 9h1M44 9h4M51 9h1M77 9h1M81 9h3M131 9h2M137 9h1M168 9h1M172 9h1M184 9h1M7 10h1M24 10h3M33 10h11M48 10h1M50 10h1M77 10h1M81 10h1M133 10h2M136 10h1M169 10h1M171 10h1M185 10h1M8 11h1M23 11h6M33 11h1M48 11h1M50 11h1M78 11h1M80 11h1M134 11h1M136 11h1M169 11h1M171 11h1M185 11h1M8 12h1M24 12h4M32 12h1M48 12h1M50 12h1M78 12h1M80 12h1M134 12h1M136 12h1M169 12h3M185 12h1M8 13h1M25 13h4M32 13h1M49 13h1M78 13h1M80 13h1M135 13h1M170 13h1M185 13h1M9 14h1M24 14h1M26 14h3M32 14h1M49 14h1M78 14h1M80 14h1M135 14h1M170 14h1M185 14h1M9 15h1M25 15h3M32 15h1M78 15h1M80 15h1M185 15h1M9 16h1M26 16h2M32 16h1M78 16h2M185 16h1M9 17h1M25 17h3M32 17h1M79 17h1M185 17h1M9 18h1M26 18h1M32 18h1M79 18h1M185 18h1M9 19h1M25 19h2M31 19h1M185 19h1M9 20h1M26 20h1M31 20h1M185 20h1M9 21h1M25 21h2M31 21h1M185 21h1M10 22h1M26 22h1M31 22h1M185 22h1M10 23h1M26 23h1M31 23h1M185 23h1M10 24h1M26 24h1M31 24h1M185 24h1M10 25h1M26 25h1M31 25h1M185 25h1M10 26h1M26 26h1M30 26h1M184 26h1M10 27h1M30 27h1M184 27h1M10 28h1M26 28h1M30 28h1M184 28h1M10 29h1M26 29h1M30 29h1M184 29h1M10 30h1M30 30h1M184 30h1M10 31h1M26 31h1M30 31h1M184 31h1M10 32h1M26 32h1M30 32h1M184 32h1M10 33h1M30 33h1M184 33h1M10 34h1M26 34h1M30 34h1M184 34h1M10 35h1M26 35h1M30 35h1M184 35h1M10 36h1M26 36h1M30 36h1M184 36h1M10 37h1M26 37h1M30 37h1M184 37h1M10 38h1M30 38h1M184 38h1M10 39h1M26 39h1M30 39h1M184 39h1M10 40h1M26 40h1M30 40h1M184 40h1M10 41h1M30 41h1M184 41h1M10 42h1M26 42h1M30 42h1M184 42h1M10 43h1M30 43h1M184 43h1M10 44h1M26 44h1M30 44h1M184 44h1M10 45h1M30 45h1M184 45h1M10 46h1M26 46h1M30 46h1M184 46h1M10 47h1M26 47h1M30 47h1M184 47h1M10 48h1M30 48h1M185 48h1M10 49h1M26 49h1M30 49h1M185 49h1M10 50h1M26 50h1M30 50h1M185 50h1M10 51h1M30 51h1M185 51h1M10 52h1M26 52h1M30 52h1M185 52h1M10 53h1M30 53h1M186 53h1M10 54h1M26 54h1M30 54h1M186 54h1M10 55h1M26 55h1M30 55h1M186 55h1M10 56h1M30 56h1M186 56h1M10 57h1M26 57h1M30 57h1M186 57h1M10 58h1M26 58h1M30 58h1M186 58h1M10 59h1M26 59h1M30 59h1M186 59h1M10 60h1M30 60h1M186 60h1M10 61h1M26 61h1M30 61h1M186 61h1M10 62h1M30 62h1M186 62h1M10 63h1M26 63h1M30 63h1M186 63h1M10 64h1M26 64h1M30 64h1M186 64h1M10 65h1M30 65h1M186 65h1M10 66h1M26 66h1M30 66h1M186 66h1M10 67h1M30 67h1M186 67h1M10 68h1M26 68h1M30 68h1M186 68h1M10 69h1M26 69h1M30 69h1M186 69h1M10 70h1M26 70h1M30 70h1M186 70h1M10 71h1M30 71h1M186 71h1M10 72h1M26 72h1M30 72h1M186 72h1M10 73h1M26 73h1M30 73h1M186 73h1M10 74h1M26 74h1M30 74h1M186 74h1M9 75h1M26 75h1M30 75h1M186 75h1M9 76h1M26 76h1M30 76h1M186 76h1M9 77h1M26 77h1M30 77h1M186 77h1M9 78h1M26 78h2M30 78h1M186 78h1M9 79h1M26 79h1M31 79h1M186 79h1M9 80h1M26 80h2M31 80h1M186 80h1M9 81h1M26 81h1M31 81h1M185 81h1M9 82h1M27 82h1M31 82h1M185 82h1M9 83h1M26 83h3M31 83h1M185 83h1M8 84h1M27 84h2M32 84h1M185 84h1M8 85h1M26 85h2M32 85h1M185 85h1M8 86h1M27 86h2M32 86h1M185 86h1M8 87h1M26 87h2M32 87h1M120 87h1M185 87h1M8 88h1M27 88h2M33 88h1M120 88h1M185 88h1M8 89h1M26 89h2M33 89h1M120 89h1M185 89h1M8 90h1M25 90h1M27 90h2M33 90h1M119 90h2M164 90h1M185 90h1M8 91h1M24 91h1M26 91h2M29 91h1M33 91h1M92 91h1M119 91h1M121 91h1M164 91h1M185 91h1M8 92h1M23 92h1M25 92h1M27 92h3M33 92h1M92 92h1M119 92h1M121 92h1M164 92h1M185 92h1M8 93h1M24 93h7M34 93h1M52 93h1M92 93h1M119 93h1M121 93h1M163 93h1M165 93h1M185 93h1M8 94h1M21 94h1M23 94h2M26 94h4M34 94h1M52 94h1M91 94h1M93 94h1M119 94h1M121 94h1M163 94h1M165 94h1M185 94h1M8 95h1M25 95h6M34 95h1M51 95h1M53 95h1M91 95h1M93 95h1M119 95h1M121 95h1M163 95h1M165 95h1M185 95h1M7 96h1M17 96h4M29 96h1M34 96h1M51 96h1M53 96h1M91 96h1M93 96h1M119 96h1M121 96h2M162 96h1M166 96h1M184 96h1M7 97h1M11 97h6M20 97h1M25 97h3M34 97h1M51 97h1M53 97h1M91 97h1M93 97h1M118 97h1M122 97h1M161 97h2M166 97h1M183 97h2M7 98h1M9 98h2M19 98h1M24 98h4M34 98h1M49 98h2M54 98h1M90 98h2M93 98h1M118 98h1M122 98h2M153 98h5M159 98h2M166 98h2M182 98h2M8 99h1M18 99h1M22 99h4M33 99h4M44 99h5M54 99h1M90 99h1M94 99h1M116 99h3M124 99h5M149 99h4M157 99h3M167 99h16M8 100h2M17 100h2M31 100h1M33 100h11M55 100h6M88 100h3M95 100h2M104 100h5M115 100h1M129 100h20M10 101h2M30 101h1M61 101h18M84 101h4M97 101h7M109 101h6M12 102h2M28 102h2M79 102h5M14 103h14" />
<path stroke="#ebd6b5" d="M13 6h2M11 7h3M10 8h4M8 9h6M9 10h4M9 11h4M10 12h3M10 13h3M11 14h2M11 15h2M11 16h2M11 17h2M11 18h2M11 19h2M11 20h2M11 21h2M12 22h1M12 23h1M12 24h1M12 25h1M12 26h1M12 27h1M12 28h1M12 30h1M12 32h1M12 34h1M10 80h1M10 82h1M10 83h1M10 84h1M9 85h2M9 86h2M9 87h2M9 88h2M9 89h2M9 90h2M9 91h2M9 92h2M9 93h1M9 94h1M9 95h1M22 97h1M22 98h1M21 99h1" />
<path stroke="#e0c18f" d="M15 6h11M14 7h8M23 7h6M119 7h9M9 8h1M14 8h8M26 8h5M117 8h3M121 8h3M140 8h8M14 9h9M26 9h1M28 9h4M52 9h25M84 9h1M105 9h2M147 9h21M173 9h11M8 10h1M13 10h11M27 10h5M44 10h4M51 10h26M82 10h3M132 10h1M147 10h22M172 10h13M13 11h10M29 11h3M34 11h14M51 11h27M81 11h4M133 11h1M147 11h22M172 11h13M9 12h1M13 12h11M28 12h3M33 12h15M51 12h27M81 12h4M133 12h1M147 12h22M172 12h13M9 13h1M13 13h12M29 13h2M33 13h16M50 13h28M81 13h4M133 13h2M136 13h1M147 13h23M171 13h14M10 14h1M13 14h11M25 14h1M29 14h2M33 14h16M50 14h28M81 14h4M134 14h1M136 14h1M147 14h23M171 14h14M10 15h1M13 15h12M28 15h3M33 15h45M81 15h4M134 15h1M136 15h1M147 15h38M10 16h1M13 16h13M28 16h3M33 16h45M80 16h5M136 16h1M146 16h39M10 17h1M13 17h12M28 17h3M33 17h46M80 17h5M146 17h39M10 18h1M13 18h13M27 18h4M33 18h46M80 18h6M146 18h39M10 19h1M13 19h12M27 19h3M32 19h54M146 19h39M10 20h1M13 20h13M27 20h3M32 20h55M145 20h40M10 21h1M13 21h12M27 21h3M32 21h55M145 21h40M11 22h1M13 22h13M27 22h3M32 22h56M144 22h41M11 23h1M13 23h13M27 23h3M32 23h57M144 23h41M11 24h1M13 24h13M27 24h3M32 24h58M143 24h42M11 25h1M13 25h13M27 25h3M32 25h59M143 25h42M11 26h1M13 26h13M27 26h2M31 26h61M141 26h43M11 27h1M13 27h16M31 27h63M141 27h43M11 28h1M13 28h13M27 28h2M31 28h66M139 28h45M11 29h15M27 29h2M31 29h77M109 29h1M138 29h46M11 30h1M13 30h16M31 30h81M136 30h48M11 31h15M27 31h2M31 31h88M133 31h51M11 32h1M13 32h13M27 32h2M31 32h94M127 32h57M11 33h18M31 33h153M11 34h1M13 34h13M27 34h2M31 34h153M11 35h15M27 35h2M31 35h153M11 36h15M27 36h2M31 36h153M11 37h15M27 37h2M31 37h153M11 38h18M31 38h153M11 39h15M27 39h2M31 39h153M11 40h15M27 40h2M31 40h153M11 41h18M31 41h153M11 42h15M27 42h2M31 42h153M11 43h18M31 43h153M11 44h15M27 44h2M31 44h153M11 45h18M31 45h153M11 46h15M27 46h2M31 46h153M11 47h15M27 47h2M31 47h153M11 48h18M31 48h154M11 49h15M27 49h2M31 49h154M11 50h15M27 50h2M31 50h154M11 51h18M31 51h154M11 52h15M27 52h2M31 52h154M11 53h18M31 53h155M11 54h15M27 54h2M31 54h155M11 55h15M27 55h2M31 55h155M11 56h18M31 56h155M11 57h15M27 57h2M31 57h155M11 58h15M27 58h2M31 58h155M11 59h15M27 59h2M31 59h155M11 60h18M31 60h155M11 61h15M27 61h2M31 61h155M11 62h18M31 62h155M11 63h15M27 63h2M31 63h155M11 64h15M27 64h2M31 64h155M11 65h18M31 65h155M11 66h15M27 66h2M31 66h155M11 67h18M31 67h155M11 68h15M27 68h2M31 68h155M11 69h15M27 69h2M31 69h155M11 70h15M27 70h2M31 70h155M11 71h18M31 71h155M11 72h15M27 72h2M31 72h155M11 73h15M27 73h2M31 73h155M11 74h15M27 74h2M31 74h155M10 75h16M27 75h2M31 75h155M10 76h16M27 76h2M31 76h155M10 77h16M27 77h2M31 77h155M10 78h16M28 78h1M31 78h155M10 79h16M27 79h3M32 79h154M11 80h15M28 80h2M32 80h154M10 81h16M27 81h3M32 81h153M11 82h16M28 82h2M32 82h153M11 83h15M29 83h1M32 83h153M9 84h1M11 84h16M29 84h2M33 84h152M11 85h15M28 85h3M33 85h152M11 86h16M29 86h2M33 86h152M11 87h15M28 87h3M33 87h87M121 87h64M11 88h16M29 88h3M34 88h86M121 88h64M11 89h15M28 89h4M34 89h86M121 89h64M11 90h14M26 90h1M29 90h3M34 90h85M121 90h43M165 90h20M11 91h13M25 91h1M28 91h1M30 91h2M34 91h58M93 91h26M122 91h42M165 91h20M11 92h12M24 92h1M26 92h1M30 92h2M34 92h58M93 92h26M122 92h42M165 92h20M10 93h14M31 93h2M35 93h17M53 93h39M93 93h26M122 93h41M166 93h19M10 94h11M22 94h1M25 94h1M30 94h3M35 94h17M53 94h38M94 94h25M122 94h41M166 94h19M10 95h5M31 95h2M35 95h16M54 95h37M94 95h25M122 95h41M166 95h19M8 96h3M22 96h2M30 96h3M35 96h16M54 96h37M94 96h25M123 96h39M167 96h17M8 97h1M17 97h3M23 97h2M30 97h3M35 97h16M54 97h37M94 97h24M123 97h38M167 97h16M11 98h8M21 98h1M23 98h1M30 98h3M35 98h14M55 98h35M94 98h24M124 98h29M158 98h1M168 98h14M9 99h9M20 99h1M29 99h3M37 99h7M55 99h35M95 99h21M129 99h20M10 100h7M27 100h4M61 100h27M97 100h7M109 100h6M12 101h18M79 101h5M14 102h14" />
<path stroke="#dfc08e" d="M90 8h3M85 9h7M142 9h5M85 10h7M142 10h5M85 11h8M142 11h5M85 12h9M142 12h5M85 13h11M142 13h5M85 14h14M142 14h5M85 15h16M142 15h5M85 16h19M142 16h4M85 17h20M142 17h4M86 18h22M141 18h5M86 19h23M141 19h5M87 20h25M140 20h5M87 21h28M140 21h5M88 22h29M139 22h5M89 23h30M138 23h6M90 24h32M137 24h6M91 25h35M135 25h8M92 26h49M94 27h47M97 28h42M108 29h1M110 29h28M112 30h24M119 31h14M125 32h2" />
<path stroke="#debf8e" d="M93 8h10M92 9h13M107 9h1M92 10h18M93 11h19M94 12h22M141 12h1M96 13h22M140 13h2M99 14h20M139 14h3M101 15h19M139 15h3M104 16h18M138 16h4M105 17h19M138 17h4M108 18h18M137 18h4M109 19h19M129 19h1M136 19h5M112 20h28M115 21h25M117 22h22M119 23h19M122 24h15M126 25h9" />
<path stroke="#ddbe8d" d="M120 8h1M124 8h6M116 9h15M138 9h1M117 10h15M137 10h2M118 11h15M137 11h2M131 12h2M137 12h2M137 13h2M137 14h1" />
<path stroke="#debf8d" d="M108 9h8M139 9h3M110 10h7M139 10h3M112 11h6M139 11h3M116 12h15M139 12h2M118 13h15M139 13h1M119 14h15M138 14h1M120 15h14M135 15h1M137 15h2M122 16h14M137 16h1M124 17h14M126 18h11M128 19h1M130 19h6" />
</svg>