<svg xmlns="http://www.w3.org/2000/svg" viewBox="0 -0.5 182 101" shape-rendering="crispEdges">
<path stroke="#412a0c" d="M7 0h13M5 1h2M20 1h3M113 1h9M3 2h2M23 2h2M84 2h13M111 2h2M122 2h2M134 2h8M1 3h2M25 3h1M46 3h25M78 3h6M97 3h14M124 3h1M132 3h2M142 3h21M167 3h11M0 4h1M26 4h1M38 4h4M45 4h1M71 4h1M75 4h3M125 4h2M131 4h1M163 4h1M166 4h1M178 4h1M0 5h1M26 5h12M42 5h1M44 5h1M72 5h1M74 5h1M127 5h2M130 5h1M163 5h1M165 5h1M179 5h1M0 6h1M26 6h1M43 6h1M72 6h1M74 6h1M129 6h1M164 6h1M180 6h1M1 7h1M26 7h1M43 7h1M73 7h1M129 7h1M164 7h1M180 7h1M1 8h1M25 8h1M43 8h1M73 8h1M129 8h1M180 8h1M1 9h1M25 9h1M73 9h1M180 9h1M2 10h1M25 10h1M73 10h1M180 10h1M2 11h1M25 11h1M73 11h1M180 11h1M2 12h1M25 12h1M180 12h1M2 13h1M25 13h1M180 13h1M2 14h1M25 14h1M180 14h1M2 15h1M24 15h1M180 15h1M2 16h1M24 16h1M180 16h1M2 17h1M24 17h1M180 17h1M3 18h1M24 18h1M180 18h1M3 19h1M24 19h1M180 19h1M3 20h1M24 20h1M180 20h1M3 21h1M24 21h1M180 21h1M3 22h1M23 22h1M179 22h1M3 23h1M23 23h1M179 23h1M3 24h1M23 24h1M179 24h1M3 25h1M23 25h1M179 25h1M3 26h1M23 26h1M179 26h1M3 27h1M23 27h1M179 27h1M3 28h1M23 28h1M179 28h1M3 29h1M23 29h1M179 29h1M3 30h1M23 30h1M179 30h1M3 31h1M23 31h1M179 31h1M3 32h1M23 32h1M179 32h1M3 33h1M23 33h1M179 33h1M3 34h1M23 34h1M179 34h1M3 35h1M23 35h1M179 35h1M3 36h1M23 36h1M179 36h1M3 37h1M23 37h1M179 37h1M3 38h1M23 38h1M179 38h1M3 39h1M23 39h1M179 39h1M3 40h1M23 40h1M179 40h1M3 41h1M23 41h1M179 41h1M3 42h1M23 42h1M179 42h1M3 43h1M23 43h1M179 43h1M3 44h1M23 44h1M180 44h1M3 45h1M23 45h1M180 45h1M3 46h1M23 46h1M180 46h1M3 47h1M23 47h1M180 47h1M3 48h1M23 48h1M180 48h1M3 49h1M23 49h1M181 49h1M3 50h1M23 50h1M181 50h1M3 51h1M23 51h1M181 51h1M3 52h1M23 52h1M181 52h1M3 53h1M23 53h1M181 53h1M3 54h1M23 54h1M181 54h1M3 55h1M23 55h1M181 55h1M3 56h1M23 56h1M181 56h1M3 57h1M23 57h1M181 57h1M3 58h1M23 58h1M181 58h1M3 59h1M23 59h1M181 59h1M3 60h1M23 60h1M181 60h1M3 61h1M23 61h1M181 61h1M3 62h1M23 62h1M181 62h1M3 63h1M23 63h1M181 63h1M3 64h1M23 64h1M181 64h1M3 65h1M23 65h1M181 65h1M3 66h1M23 66h1M181 66h1M3 67h1M23 67h1M181 67h1M3 68h1M23 68h1M181 68h1M3 69h1M23 69h1M181 69h1M3 70h1M23 70h1M181 70h1M2 71h1M23 71h1M181 71h1M2 72h1M23 72h1M181 72h1M2 73h1M23 73h1M181 73h1M2 74h1M23 74h1M181 74h1M2 75h1M24 75h1M181 75h1M2 76h1M24 76h1M181 76h1M2 77h1M24 77h1M180 77h1M2 78h1M24 78h1M180 78h1M2 79h1M24 79h1M180 79h1M1 80h1M25 80h1M180 80h1M1 81h1M25 81h1M180 81h1M1 82h1M25 82h1M180 82h1M1 83h1M25 83h1M180 83h1M1 84h1M26 84h1M180 84h1M1 85h1M26 85h1M180 85h1M1 86h1M26 86h1M180 86h1M1 87h1M26 87h1M114 87h1M180 87h1M1 88h1M26 88h1M114 88h1M180 88h1M1 89h1M27 89h1M114 89h1M158 89h1M180 89h1M1 90h1M27 90h1M86 90h1M114 90h1M158 90h1M180 90h1M1 91h1M9 91h10M27 91h1M46 91h1M86 91h1M114 91h1M158 91h1M180 91h1M0 92h1M5 92h6M15 92h1M18 92h5M27 92h1M46 92h1M86 92h1M114 92h1M157 92h1M159 92h1M179 92h1M0 93h1M3 93h2M15 93h1M22 93h2M27 93h1M46 93h1M86 93h1M113 93h1M115 93h1M157 93h1M159 93h1M179 93h1M0 94h1M2 94h1M14 94h1M22 94h2M27 94h1M45 94h1M47 94h1M86 94h1M113 94h1M115 94h1M155 94h2M159 94h1M178 94h1M1 95h1M13 95h1M20 95h3M26 95h1M43 95h2M47 95h1M85 95h1M87 95h1M113 95h1M116 95h2M147 95h4M154 95h1M160 95h1M177 95h1M1 96h1M13 96h8M26 96h1M38 96h5M48 96h1M85 96h1M88 96h1M110 96h3M118 96h5M143 96h4M151 96h3M161 96h16M2 97h2M25 97h1M27 97h11M49 97h6M82 97h3M89 97h2M98 97h5M109 97h1M123 97h20M4 98h2M24 98h1M55 98h18M78 98h4M91 98h7M103 98h6M6 99h2M22 99h2M73 99h5M8 100h14" />
<path stroke="#ba8f62" d="M7 1h13M5 2h2M20 2h3M113 2h9M3 3h2M16 3h1M23 3h2M84 3h13M111 3h2M122 3h2M134 3h8M1 4h2M16 4h4M25 4h1M46 4h25M78 4h6M97 4h14M124 4h1M132 4h2M142 4h21M167 4h11M1 5h1M17 5h3M21 5h1M38 5h4M45 5h1M71 5h1M75 5h3M125 5h2M131 5h1M162 5h1M166 5h1M178 5h1M1 6h1M18 6h3M27 6h11M42 6h1M44 6h1M71 6h1M75 6h1M127 6h2M130 6h1M163 6h1M165 6h1M179 6h1M2 7h1M17 7h6M27 7h1M42 7h1M44 7h1M72 7h1M74 7h1M128 7h1M130 7h1M163 7h1M165 7h1M179 7h1M2 8h1M18 8h4M26 8h1M42 8h1M44 8h1M72 8h1M74 8h1M128 8h1M130 8h1M163 8h3M179 8h1M2 9h1M19 9h4M26 9h1M43 9h1M72 9h1M74 9h1M129 9h1M164 9h1M179 9h1M3 10h1M18 10h1M20 10h3M26 10h1M43 10h1M72 10h1M74 10h1M129 10h1M164 10h1M179 10h1M3 11h1M19 11h3M26 11h1M72 11h1M74 11h1M179 11h1M3 12h1M20 12h2M26 12h1M72 12h2M179 12h1M3 13h1M19 13h3M26 13h1M73 13h1M179 13h1M3 14h1M20 14h1M26 14h1M73 14h1M179 14h1M3 15h1M19 15h2M25 15h1M179 15h1M3 16h1M20 16h1M25 16h1M179 16h1M3 17h1M19 17h2M25 17h1M179 17h1M4 18h1M20 18h1M25 18h1M179 18h1M4 19h1M20 19h1M25 19h1M179 19h1M4 20h1M20 20h1M25 20h1M179 20h1M4 21h1M20 21h1M25 21h1M179 21h1M4 22h1M20 22h1M24 22h1M178 22h1M4 23h1M24 23h1M178 23h1M4 24h1M20 24h1M24 24h1M178 24h1M4 25h1M20 25h1M24 25h1M178 25h1M4 26h1M24 26h1M178 26h1M4 27h1M20 27h1M24 27h1M178 27h1M4 28h1M20 28h1M24 28h1M178 28h1M4 29h1M24 29h1M178 29h1M4 30h1M20 30h1M24 30h1M178 30h1M4 31h1M20 31h1M24 31h1M178 31h1M4 32h1M20 32h1M24 32h1M178 32h1M4 33h1M20 33h1M24 33h1M178 33h1M4 34h1M24 34h1M178 34h1M4 35h1M20 35h1M24 35h1M178 35h1M4 36h1M20 36h1M24 36h1M178 36h1M4 37h1M24 37h1M178 37h1M4 38h1M20 38h1M24 38h1M178 38h1M4 39h1M24 39h1M178 39h1M4 40h1M20 40h1M24 40h1M178 40h1M4 41h1M24 41h1M178 41h1M4 42h1M20 42h1M24 42h1M178 42h1M4 43h1M20 43h1M24 43h1M178 43h1M4 44h1M24 44h1M179 44h1M4 45h1M20 45h1M24 45h1M179 45h1M4 46h1M20 46h1M24 46h1M179 46h1M4 47h1M24 47h1M179 47h1M4 48h1M20 48h1M24 48h1M179 48h1M4 49h1M24 49h1M180 49h1M4 50h1M20 50h1M24 50h1M180 50h1M4 51h1M20 51h1M24 51h1M180 51h1M4 52h1M24 52h1M180 52h1M4 53h1M20 53h1M24 53h1M180 53h1M4 54h1M20 54h1M24 54h1M180 54h1M4 55h1M20 55h1M24 55h1M180 55h1M4 56h1M24 56h1M180 56h1M4 57h1M20 57h1M24 57h1M180 57h1M4 58h1M24 58h1M180 58h1M4 59h1M20 59h1M24 59h1M180 59h1M4 60h1M20 60h1M24 60h1M180 60h1M4 61h1M24 61h1M180 61h1M4 62h1M20 62h1M24 62h1M180 62h1M4 63h1M24 63h1M180 63h1M4 64h1M20 64h1M24 64h1M180 64h1M4 65h1M20 65h1M24 65h1M180 65h1M4 66h1M20 66h1M24 66h1M180 66h1M4 67h1M24 67h1M180 67h1M4 68h1M20 68h1M24 68h1M180 68h1M4 69h1M20 69h1M24 69h1M180 69h1M4 70h1M20 70h1M24 70h1M180 70h1M3 71h1M20 71h1M24 71h1M180 71h1M3 72h1M20 72h1M24 72h1M180 72h1M3 73h1M20 73h1M24 73h1M180 73h1M3 74h1M20 74h2M24 74h1M180 74h1M3 75h1M20 75h1M25 75h1M180 75h1M3 76h1M20 76h2M25 76h1M180 76h1M3 77h1M20 77h1M25 77h1M179 77h1M3 78h1M21 78h1M25 78h1M179 78h1M3 79h1M20 79h3M25 79h1M179 79h1M2 80h1M21 80h2M26 80h1M179 80h1M2 81h1M20 81h2M26 81h1M179 81h1M2 82h1M21 82h2M26 82h1M179 82h1M2 83h1M20 83h2M26 83h1M114 83h1M179 83h1M2 84h1M21 84h2M27 84h1M114 84h1M179 84h1M2 85h1M20 85h2M27 85h1M114 85h1M179 85h1M2 86h1M19 86h1M21 86h2M27 86h1M113 86h2M158 86h1M179 86h1M2 87h1M18 87h1M20 87h2M23 87h1M27 87h1M86 87h1M113 87h1M115 87h1M158 87h1M179 87h1M2 88h1M17 88h1M19 88h1M21 88h3M27 88h1M86 88h1M113 88h1M115 88h1M158 88h1M179 88h1M2 89h1M18 89h7M28 89h1M46 89h1M86 89h1M113 89h1M115 89h1M157 89h1M159 89h1M179 89h1M2 90h1M15 90h1M17 90h2M20 90h4M28 90h1M46 90h1M85 90h1M87 90h1M113 90h1M115 90h1M157 90h1M159 90h1M179 90h1M2 91h1M19 91h6M28 91h1M45 91h1M47 91h1M85 91h1M87 91h1M113 91h1M115 91h1M157 91h1M159 91h1M179 91h1M1 92h1M11 92h4M23 92h1M28 92h1M45 92h1M47 92h1M85 92h1M87 92h1M113 92h1M115 92h2M156 92h1M160 92h1M178 92h1M1 93h1M5 93h6M14 93h1M19 93h3M28 93h1M45 93h1M47 93h1M85 93h1M87 93h1M112 93h1M116 93h1M155 93h2M160 93h1M177 93h2M1 94h1M3 94h2M13 94h1M18 94h4M28 94h1M43 94h2M48 94h1M84 94h2M87 94h1M112 94h1M116 94h2M147 94h5M153 94h2M160 94h2M176 94h2M2 95h1M12 95h1M16 95h4M27 95h4M38 95h5M48 95h1M84 95h1M88 95h1M110 95h3M118 95h5M143 95h4M151 95h3M161 95h16M2 96h2M11 96h2M25 96h1M27 96h11M49 96h6M82 96h3M89 96h2M98 96h5M109 96h1M123 96h20M4 97h2M24 97h1M55 97h18M78 97h4M91 97h7M103 97h6M6 98h2M22 98h2M73 98h5M8 99h14" />
<path stroke="#ebd6b5" d="M7 2h2M5 3h3M4 4h4M2 5h6M3 6h4M3 7h4M4 8h3M4 9h3M5 10h2M5 11h2M5 12h2M5 13h2M5 14h2M5 15h2M5 16h2M5 17h2M6 18h1M6 19h1M6 20h1M6 21h1M6 22h1M6 23h1M6 24h1M6 26h1M6 28h1M6 30h1M4 76h1M4 78h1M4 79h1M4 80h1M3 81h2M3 82h2M3 83h2M3 84h2M3 85h2M3 86h2M3 87h2M3 88h2M3 89h1M3 90h1M3 91h1M16 93h1M16 94h1M15 95h1" />
<path stroke="#e0c18f" d="M9 2h11M8 3h8M17 3h6M113 3h9M3 4h1M8 4h8M20 4h5M111 4h3M115 4h3M134 4h8M8 5h9M20 5h1M22 5h4M46 5h25M78 5h1M99 5h2M141 5h21M167 5h11M2 6h1M7 6h11M21 6h5M38 6h4M45 6h26M76 6h3M126 6h1M141 6h22M166 6h13M7 7h10M23 7h3M28 7h14M45 7h27M75 7h4M127 7h1M141 7h22M166 7h13M3 8h1M7 8h11M22 8h3M27 8h15M45 8h27M75 8h4M127 8h1M141 8h22M166 8h13M3 9h1M7 9h12M23 9h2M27 9h16M44 9h28M75 9h4M127 9h2M130 9h1M141 9h23M165 9h14M4 10h1M7 10h11M19 10h1M23 10h2M27 10h16M44 10h28M75 10h4M128 10h1M130 10h1M141 10h23M165 10h14M4 11h1M7 11h12M22 11h3M27 11h45M75 11h4M128 11h1M130 11h1M141 11h38M4 12h1M7 12h13M22 12h3M27 12h45M74 12h5M130 12h1M140 12h39M4 13h1M7 13h12M22 13h3M27 13h46M74 13h5M140 13h39M4 14h1M7 14h13M21 14h4M27 14h46M74 14h6M140 14h39M4 15h1M7 15h12M21 15h3M26 15h54M140 15h39M4 16h1M7 16h13M21 16h3M26 16h55M139 16h40M4 17h1M7 17h12M21 17h3M26 17h55M139 17h40M5 18h1M7 18h13M21 18h3M26 18h56M138 18h41M5 19h1M7 19h13M21 19h3M26 19h57M138 19h41M5 20h1M7 20h13M21 20h3M26 20h58M137 20h42M5 21h1M7 21h13M21 21h3M26 21h59M137 21h42M5 22h1M7 22h13M21 22h2M25 22h61M135 22h43M5 23h1M7 23h16M25 23h63M135 23h43M5 24h1M7 24h13M21 24h2M25 24h66M133 24h45M5 25h15M21 25h2M25 25h77M103 25h1M132 25h46M5 26h1M7 26h16M25 26h81M130 26h48M5 27h15M21 27h2M25 27h88M127 27h51M5 28h1M7 28h13M21 28h2M25 28h94M121 28h57M5 29h18M25 29h153M5 30h1M7 30h13M21 30h2M25 30h153M5 31h15M21 31h2M25 31h153M5 32h15M21 32h2M25 32h153M5 33h15M21 33h2M25 33h153M5 34h18M25 34h153M5 35h15M21 35h2M25 35h153M5 36h15M21 36h2M25 36h153M5 37h18M25 37h153M5 38h15M21 38h2M25 38h153M5 39h18M25 39h153M5 40h15M21 40h2M25 40h153M5 41h18M25 41h153M5 42h15M21 42h2M25 42h153M5 43h15M21 43h2M25 43h153M5 44h18M25 44h154M5 45h15M21 45h2M25 45h154M5 46h15M21 46h2M25 46h154M5 47h18M25 47h154M5 48h15M21 48h2M25 48h154M5 49h18M25 49h155M5 50h15M21 50h2M25 50h155M5 51h15M21 51h2M25 51h155M5 52h18M25 52h155M5 53h15M21 53h2M25 53h155M5 54h15M21 54h2M25 54h155M5 55h15M21 55h2M25 55h155M5 56h18M25 56h155M5 57h15M21 57h2M25 57h155M5 58h18M25 58h155M5 59h15M21 59h2M25 59h155M5 60h15M21 60h2M25 60h155M5 61h18M25 61h155M5 62h15M21 62h2M25 62h155M5 63h18M25 63h155M5 64h15M21 64h2M25 64h155M5 65h15M21 65h2M25 65h155M5 66h15M21 66h2M25 66h155M5 67h18M25 67h155M5 68h15M21 68h2M25 68h155M5 69h15M21 69h2M25 69h155M5 70h15M21 70h2M25 70h155M4 71h16M21 71h2M25 71h155M4 72h16M21 72h2M25 72h155M4 73h16M21 73h2M25 73h155M4 74h16M22 74h1M25 74h155M4 75h16M21 75h3M26 75h154M5 76h15M22 76h2M26 76h154M4 77h16M21 77h3M26 77h153M5 78h16M22 78h2M26 78h153M5 79h15M23 79h1M26 79h153M3 80h1M5 80h16M23 80h2M27 80h152M5 81h15M22 81h3M27 81h152M5 82h16M23 82h2M27 82h152M5 83h15M22 83h3M27 83h87M115 83h64M5 84h16M23 84h3M28 84h86M115 84h64M5 85h15M22 85h4M28 85h86M115 85h64M5 86h14M20 86h1M23 86h3M28 86h85M115 86h43M159 86h20M5 87h13M19 87h1M22 87h1M24 87h2M28 87h58M87 87h26M116 87h42M159 87h20M5 88h12M18 88h1M20 88h1M24 88h2M28 88h58M87 88h26M116 88h42M159 88h20M4 89h14M25 89h2M29 89h17M47 89h39M87 89h26M116 89h41M160 89h19M4 90h11M16 90h1M19 90h1M24 90h3M29 90h17M47 90h38M88 90h25M116 90h41M160 90h19M4 91h5M25 91h2M29 91h16M48 91h37M88 91h25M116 91h41M160 91h19M2 92h3M16 92h2M24 92h3M29 92h16M48 92h37M88 92h25M117 92h39M161 92h17M2 93h1M11 93h3M17 93h2M24 93h3M29 93h16M48 93h37M88 93h24M117 93h38M161 93h16M5 94h8M15 94h1M17 94h1M24 94h3M29 94h14M49 94h35M88 94h24M118 94h29M152 94h1M162 94h14M3 95h9M14 95h1M23 95h3M31 95h7M49 95h35M89 95h21M123 95h20M4 96h7M21 96h4M55 96h27M91 96h7M103 96h6M6 97h18M73 97h5M8 98h14" />
<path stroke="#dfc08e" d="M84 4h3M79 5h7M136 5h5M79 6h7M136 6h5M79 7h8M136 7h5M79 8h9M136 8h5M79 9h11M136 9h5M79 10h14M136 10h5M79 11h16M136 11h5M79 12h19M136 12h4M79 13h20M136 13h4M80 14h22M135 14h5M80 15h23M135 15h5M81 16h25M134 16h5M81 17h28M134 17h5M82 18h29M133 18h5M83 19h30M132 19h6M84 20h32M131 20h6M85 21h35M129 21h8M86 22h49M88 23h47M91 24h42M102 25h1M104 25h28M106 26h24M113 27h14M119 28h2" />
<path stroke="#debf8e" d="M87 4h10M86 5h13M101 5h1M86 6h18M87 7h19M88 8h22M135 8h1M90 9h22M134 9h2M93 10h20M133 10h3M95 11h19M133 11h3M98 12h18M132 12h4M99 13h19M132 13h4M102 14h18M131 14h4M103 15h19M123 15h1M130 15h5M106 16h28M109 17h25M111 18h22M113 19h19M116 20h15M120 21h9" />
<path stroke="#ddbe8d" d="M114 4h1M118 4h6M110 5h15M132 5h1M111 6h15M131 6h2M112 7h15M131 7h2M125 8h2M131 8h2M131 9h2M131 10h1" />
<path stroke="#debf8d" d="M102 5h8M133 5h3M104 6h7M133 6h3M106 7h6M133 7h3M110 8h15M133 8h2M112 9h15M133 9h1M113 10h15M132 10h1M114 11h14M129 11h1M131 11h2M116 12h14M131 12h1M118 13h14M120 14h11M122 15h1M124 15h6" />
</svg>