<svg xmlns="http://www.w3.org/2000/svg" viewBox="0 -0.5 50 50" shape-rendering="crispEdges">
<path stroke="#412a0c" d="M3 0h44M2 1h1M47 1h1M1 2h1M48 2h1M0 3h1M49 3h1M0 4h1M49 4h1M0 5h1M49 5h1M0 6h1M49 6h1M0 7h1M49 7h1M0 8h1M49 8h1M0 9h1M49 9h1M0 10h1M49 10h1M0 11h1M49 11h1M0 12h1M49 12h1M0 13h1M49 13h1M0 14h1M49 14h1M0 15h1M49 15h1M0 16h1M49 16h1M0 17h1M49 17h1M0 18h1M49 18h1M0 19h1M49 19h1M0 20h1M49 20h1M0 21h1M49 21h1M0 22h1M49 22h1M0 23h1M49 23h1M0 24h1M49 24h1M0 25h1M49 25h1M0 26h1M49 26h1M0 27h1M49 27h1M0 28h1M49 28h1M0 29h1M49 29h1M0 30h1M49 30h1M0 31h1M49 31h1M0 32h1M49 32h1M0 33h1M49 33h1M0 34h1M49 34h1M0 35h1M49 35h1M0 36h1M49 36h1M0 37h1M49 37h1M0 38h1M49 38h1M0 39h1M49 39h1M0 40h1M49 40h1M0 41h1M49 41h1M0 42h1M49 42h1M0 43h1M49 43h1M0 44h1M49 44h1M0 45h1M49 45h1M0 46h1M49 46h1M1 47h1M48 47h1M2 48h1M47 48h1M3 49h44" />
<path stroke="#ebd6b5" d="M3 1h1M46 1h1M2 2h1M4 2h42M47 2h1M1 3h1M3 3h44M48 3h1M1 4h48M1 5h48M1 6h48M1 7h48M1 8h48M1 9h48M1 10h48M1 11h48M1 12h48M1 13h48M1 14h48M1 15h48M1 16h48M1 17h48M1 18h48M1 19h48M1 20h48M1 21h48M1 22h48M1 23h48M1 24h48M1 25h48M1 26h48M1 27h48M1 28h48M1 29h48M1 30h48M1 31h48M1 32h48M1 33h48M1 34h48M1 35h48M1 36h48M1 37h48M1 38h48M1 39h48M1 40h48M1 41h48M1 42h48M1 43h48M1 44h48M1 45h48M1 46h1M3 46h44M48 46h1M2 47h1M4 47h42M47 47h1M3 48h1M46 48h1" />
<path stroke="#f2e4cf" d="M4 1h42M3 2h1M46 2h1M2 3h1M47 3h1" />
<path stroke="#cb9f7d" d="M2 46h1M47 46h1M3 47h1M46 47h1M4 48h42" />
</svg>