<svg xmlns="http://www.w3.org/2000/svg" viewBox="0 -0.5 50 50" shape-rendering="crispEdges">
<path stroke="#412a0c" d="M3 0h44M2 1h1M47 1h1M1 2h1M48 2h1M0 3h1M49 3h1M0 4h1M49 4h1M0 5h1M49 5h1M0 6h1M49 6h1M0 7h1M49 7h1M0 8h1M49 8h1M0 9h1M49 9h1M0 10h1M49 10h1M0 11h1M49 11h1M0 12h1M49 12h1M0 13h1M49 13h1M0 14h1M49 14h1M0 15h1M49 15h1M0 16h1M49 16h1M0 17h1M49 17h1M0 18h1M49 18h1M0 19h1M49 19h1M0 20h1M49 20h1M0 21h1M49 21h1M0 22h1M49 22h1M0 23h1M49 23h1M0 24h1M49 24h1M0 25h1M49 25h1M0 26h1M49 26h1M0 27h1M49 27h1M0 28h1M49 28h1M0 29h1M49 29h1M0 30h1M49 30h1M0 31h1M49 31h1M0 32h1M49 32h1M0 33h1M49 33h1M0 34h1M49 34h1M0 35h1M49 35h1M0 36h1M49 36h1M0 37h1M49 37h1M0 38h1M49 38h1M0 39h1M49 39h1M0 40h1M49 40h1M0 41h1M49 41h1M0 42h1M49 42h1M0 43h1M49 43h1M0 44h1M49 44h1M0 45h1M49 45h1M0 46h1M49 46h1M1 47h1M48 47h1M2 48h1M47 48h1M3 49h44" />
<path stroke="#cb9f7d" d="M3 1h44M2 2h2M46 2h2M1 3h2M47 3h2M1 4h1M48 4h1M1 5h1M48 5h1M1 6h1M48 6h1M1 7h1M48 7h1M1 8h1M48 8h1M1 9h1M48 9h1M1 10h1M48 10h1M1 11h1M48 11h1M1 12h1M48 12h1M1 13h1M48 13h1M1 14h1M48 14h1M1 15h1M48 15h1M1 16h1M48 16h1M1 17h1M48 17h1M1 18h1M48 18h1M1 19h1M48 19h1M1 20h1M48 20h1M1 21h1M48 21h1M1 22h1M48 22h1M1 23h1M48 23h1M1 24h1M48 24h1M1 25h1M48 25h1M1 26h1M48 26h1M1 27h1M48 27h1M1 28h1M48 28h1M1 29h1M48 29h1M1 30h1M48 30h1M1 31h1M48 31h1M1 32h1M48 32h1M1 33h1M48 33h1M1 34h1M48 34h1M1 35h1M48 35h1M1 36h1M48 36h1M1 37h1M48 37h1M1 38h1M48 38h1M1 39h1M48 39h1M1 40h1M48 40h1M1 41h1M48 41h1M1 42h1M48 42h1M1 43h1M48 43h1M1 44h1M48 44h1M1 45h1M48 45h1M1 46h1M48 46h1" />
<path stroke="#ebd6b5" d="M4 2h42M3 3h44M2 4h46M2 5h46M2 6h46M2 7h46M2 8h46M2 9h46M2 10h46M2 11h46M2 12h46M2 13h46M2 14h46M2 15h46M2 16h46M2 17h46M2 18h46M2 19h46M2 20h46M2 21h46M2 22h46M2 23h46M2 24h46M2 25h46M2 26h46M2 27h46M2 28h46M2 29h46M2 30h46M2 31h46M2 32h46M2 33h46M2 34h46M2 35h46M2 36h46M2 37h46M2 38h46M2 39h46M2 40h46M2 41h46M2 42h46M2 43h46M2 44h46M2 45h46M2 46h46M3 47h44" />
<path stroke="#f2e4cf" d="M2 47h1M47 47h1M3 48h44" />
</svg>