<svg xmlns="http://www.w3.org/2000/svg" viewBox="0 -0.5 200 200" shape-rendering="crispEdges">
<metadata>Made with Pixels to Svg https://codepen.io/shshaw/pen/XbxvNj</metadata>
<path stroke="#000000" d="M87 20h10M85 21h2M97 21h1M84 22h1M98 22h2M82 23h2M100 23h1M81 24h1M101 24h2M80 25h1M103 25h1M79 26h1M104 26h1M79 27h1M105 27h1M78 28h1M106 28h2M78 29h1M108 29h1M77 30h1M109 30h1M77 31h1M110 31h1M76 32h1M111 32h1M76 33h1M112 33h1M75 34h1M113 34h1M74 35h1M113 35h1M74 36h1M114 36h1M73 37h1M115 37h1M72 38h1M85 38h1M116 38h1M71 39h1M84 39h2M117 39h1M70 40h1M84 40h1M118 40h1M69 41h1M83 41h2M119 41h1M67 42h2M82 42h2M120 42h1M65 43h2M81 43h3M121 43h1M64 44h1M79 44h2M82 44h1M122 44h1M65 45h1M77 45h2M82 45h1M123 45h1M66 46h2M75 46h2M82 46h1M124 46h1M68 47h7M82 47h1M110 47h7M125 47h1M82 48h1M106 48h4M117 48h7M126 48h1M82 49h1M103 49h3M124 49h2M127 49h1M82 50h1M99 50h4M126 50h2M82 51h1M97 51h2M128 51h1M82 52h1M95 52h2M111 52h12M129 52h1M82 53h1M92 53h3M106 53h5M123 53h12M82 54h1M90 54h2M102 54h4M135 54h4M82 55h1M88 55h2M101 55h1M139 55h4M82 56h1M86 56h2M98 56h3M143 56h2M82 57h1M85 57h1M95 57h3M129 57h12M145 57h1M82 58h1M84 58h1M92 58h3M124 58h5M141 58h3M145 58h1M82 59h2M90 59h2M120 59h4M128 59h1M144 59h1M82 60h1M88 60h2M117 60h3M129 60h1M144 60h1M81 61h1M86 61h2M113 61h4M130 61h1M143 61h1M81 62h1M84 62h2M108 62h5M131 62h1M143 62h1M81 63h1M83 63h1M104 63h4M132 63h1M142 63h1M81 64h2M102 64h2M133 64h1M141 64h1M80 65h2M99 65h3M104 65h1M133 65h1M140 65h1M79 66h2M97 66h2M105 66h1M134 66h1M138 66h2M78 67h1M95 67h2M106 67h2M134 67h1M136 67h2M77 68h1M93 68h2M96 68h2M108 68h1M135 68h1M75 69h2M91 69h2M96 69h1M98 69h1M109 69h2M112 69h1M136 69h1M74 70h1M89 70h3M95 70h1M99 70h2M111 70h1M113 70h3M136 70h1M73 71h1M86 71h3M95 71h1M101 71h3M112 71h1M116 71h3M137 71h1M39 72h12M72 72h1M84 72h2M104 72h3M113 72h1M119 72h5M137 72h1M38 73h1M51 73h2M71 73h1M82 73h3M94 73h1M107 73h3M114 73h2M124 73h3M138 73h1M36 74h2M53 74h1M70 74h1M81 74h1M84 74h1M94 74h1M110 74h3M116 74h1M127 74h4M138 74h1M35 75h1M54 75h1M70 75h1M79 75h2M84 75h1M93 75h1M113 75h5M131 75h4M138 75h1M34 76h1M55 76h1M69 76h1M77 76h2M80 76h1M84 76h1M93 76h1M104 76h5M123 76h5M134 76h2M139 76h1M33 77h1M40 77h11M56 77h1M68 77h1M76 77h1M80 77h1M84 77h1M93 77h1M103 77h1M109 77h1M122 77h1M128 77h1M134 77h1M136 77h2M139 77h1M33 78h1M39 78h1M50 78h2M56 78h1M68 78h1M74 78h2M80 78h1M84 78h1M93 78h1M102 78h1M110 78h1M121 78h1M129 78h1M134 78h1M136 78h1M138 78h2M32 79h1M38 79h1M52 79h1M57 79h1M67 79h1M73 79h1M80 79h1M82 79h3M92 79h1M101 79h1M107 79h3M111 79h1M120 79h1M126 79h3M130 79h1M134 79h1M136 79h1M139 79h1M32 80h1M37 80h1M43 80h6M52 80h3M57 80h1M67 80h1M71 80h2M81 80h1M84 80h1M92 80h1M101 80h1M106 80h6M120 80h1M125 80h6M134 80h1M136 80h1M31 81h1M37 81h1M42 81h1M49 81h1M54 81h1M58 81h1M66 81h1M69 81h2M80 81h1M84 81h1M92 81h1M101 81h1M105 81h1M108 81h4M120 81h1M124 81h1M127 81h4M134 81h1M136 81h1M31 82h1M36 82h1M41 82h1M50 82h1M55 82h1M58 82h1M65 82h1M68 82h1M79 82h1M84 82h1M92 82h1M101 82h1M105 82h1M108 82h4M120 82h1M124 82h1M127 82h4M134 82h1M136 82h1M31 83h1M36 83h1M40 83h1M51 83h1M55 83h1M58 83h1M65 83h8M79 83h1M82 83h1M84 83h1M92 83h1M101 83h1M105 83h7M120 83h1M124 83h7M134 83h1M136 83h1M31 84h1M35 84h1M39 84h1M52 84h1M55 84h1M58 84h1M73 84h7M82 84h1M84 84h1M92 84h1M101 84h1M105 84h7M120 84h1M124 84h7M134 84h1M136 84h1M30 85h1M35 85h1M39 85h1M52 85h1M55 85h1M58 85h1M79 85h1M82 85h1M85 85h1M92 85h1M101 85h1M105 85h7M120 85h1M124 85h7M134 85h1M136 85h1M30 86h1M35 86h1M39 86h1M52 86h1M55 86h1M58 86h1M80 86h1M83 86h1M85 86h1M92 86h1M101 86h1M105 86h7M120 86h1M124 86h7M134 86h1M136 86h1M30 87h1M35 87h1M39 87h1M52 87h1M55 87h1M58 87h1M81 87h1M85 87h1M91 87h1M101 87h1M105 87h7M120 87h1M124 87h7M134 87h1M136 87h1M30 88h1M34 88h1M39 88h1M52 88h1M55 88h1M58 88h1M81 88h5M91 88h1M101 88h1M105 88h7M120 88h1M124 88h7M134 88h1M136 88h1M30 89h1M34 89h1M39 89h1M52 89h1M54 89h1M57 89h1M81 89h1M86 89h1M91 89h1M101 89h1M105 89h7M120 89h1M124 89h7M134 89h1M136 89h1M30 90h1M34 90h1M40 90h1M51 90h1M54 90h1M57 90h1M81 90h1M86 90h1M90 90h1M101 90h1M106 90h6M120 90h1M125 90h6M134 90h1M136 90h1M30 91h1M34 91h1M41 91h1M50 91h1M53 91h1M56 91h1M80 91h1M90 91h1M102 91h1M107 91h2M110 91h1M121 91h1M126 91h2M129 91h1M134 91h1M136 91h1M30 92h1M35 92h1M42 92h1M49 92h1M53 92h1M55 92h1M80 92h1M87 92h1M90 92h1M103 92h1M109 92h1M122 92h1M128 92h1M133 92h1M136 92h1M30 93h1M35 93h1M43 93h6M52 93h3M80 93h1M87 93h1M90 93h2M104 93h5M123 93h5M133 93h1M136 93h1M30 94h1M36 94h1M51 94h2M80 94h1M88 94h1M90 94h1M92 94h1M132 94h1M136 94h1M31 95h1M37 95h1M80 95h1M88 95h1M90 95h1M93 95h1M131 95h1M136 95h1M31 96h1M38 96h1M80 96h1M89 96h1M92 96h1M94 96h1M130 96h1M135 96h1M142 96h1M32 97h1M39 97h1M79 97h1M89 97h1M92 97h1M95 97h2M115 97h2M128 97h2M135 97h1M141 97h1M143 97h1M33 98h1M40 98h2M79 98h1M91 98h1M97 98h1M114 98h1M126 98h3M135 98h1M140 98h2M143 98h1M34 99h1M42 99h2M78 99h1M90 99h1M98 99h1M125 99h1M127 99h1M129 99h1M135 99h1M139 99h1M141 99h1M143 99h1M35 100h1M44 100h2M78 100h1M82 100h1M89 100h1M99 100h3M123 100h2M127 100h1M129 100h1M135 100h1M139 100h1M141 100h1M143 100h1M36 101h1M46 101h2M77 101h1M82 101h1M88 101h2M102 101h2M121 101h2M127 101h1M130 101h1M134 101h1M139 101h1M141 101h1M143 101h4M37 102h2M48 102h3M77 102h1M81 102h1M87 102h1M90 102h1M104 102h2M120 102h1M127 102h1M130 102h1M134 102h1M139 102h1M141 102h1M143 102h1M145 102h1M147 102h1M39 103h2M51 103h2M76 103h1M80 103h1M86 103h2M91 103h1M106 103h14M126 103h2M131 103h1M133 103h1M139 103h1M143 103h1M145 103h1M147 103h1M41 104h3M53 104h3M75 104h1M79 104h1M84 104h2M87 104h1M92 104h2M125 104h1M128 104h1M131 104h2M138 104h4M143 104h1M145 104h1M147 104h1M44 105h3M56 105h2M75 105h1M78 105h1M82 105h2M86 105h1M94 105h2M123 105h2M129 105h1M132 105h1M137 105h1M141 105h1M143 105h1M145 105h1M147 105h1M47 106h3M58 106h1M74 106h1M77 106h1M81 106h1M85 106h1M96 106h1M121 106h2M129 106h1M137 106h1M139 106h2M144 106h4M50 107h2M59 107h1M74 107h1M76 107h1M79 107h2M85 107h1M97 107h5M119 107h2M128 107h1M130 107h1M137 107h3M147 107h1M52 108h2M60 108h1M73 108h1M75 108h1M77 108h2M85 108h1M102 108h2M117 108h2M127 108h1M131 108h1M138 108h1M147 108h1M54 109h2M61 109h1M73 109h1M75 109h2M84 109h2M104 109h13M126 109h1M131 109h1M139 109h1M147 109h1M56 110h1M61 110h1M73 110h2M83 110h1M85 110h1M125 110h1M132 110h1M139 110h1M146 110h1M57 111h1M62 111h1M82 111h1M86 111h3M123 111h2M132 111h1M139 111h2M146 111h1M58 112h1M62 112h1M81 112h1M89 112h2M121 112h2M133 112h1M138 112h1M142 112h1M145 112h1M58 113h1M63 113h1M82 113h1M91 113h7M118 113h3M133 113h1M138 113h1M144 113h1M59 114h1M63 114h1M83 114h1M98 114h6M113 114h5M134 114h1M137 114h1M144 114h1M59 115h1M64 115h1M84 115h1M104 115h9M133 115h1M137 115h1M143 115h1M60 116h1M65 116h1M83 116h1M85 116h1M123 116h1M132 116h1M134 116h1M136 116h1M143 116h1M60 117h1M65 117h1M83 117h1M86 117h2M124 117h1M131 117h1M134 117h2M143 117h1M61 118h1M66 118h1M83 118h1M88 118h1M94 118h1M125 118h1M130 118h1M135 118h1M142 118h1M62 119h1M66 119h1M82 119h1M89 119h2M93 119h1M125 119h1M129 119h1M134 119h1M142 119h1M62 120h1M67 120h1M82 120h1M91 120h1M93 120h1M125 120h1M127 120h2M141 120h1M63 121h1M68 121h1M82 121h1M92 121h1M125 121h2M141 121h1M64 122h1M68 122h1M81 122h1M92 122h1M125 122h2M140 122h1M64 123h1M69 123h1M81 123h1M91 123h2M125 123h1M127 123h1M140 123h1M65 124h1M70 124h1M81 124h1M90 124h1M92 124h1M125 124h1M127 124h1M139 124h1M65 125h1M70 125h1M80 125h1M90 125h1M92 125h1M125 125h1M128 125h1M139 125h1M66 126h1M71 126h1M80 126h1M84 126h2M90 126h1M92 126h1M125 126h1M128 126h1M138 126h1M67 127h1M71 127h1M79 127h1M85 127h1M89 127h1M92 127h1M125 127h1M129 127h1M138 127h1M67 128h1M72 128h1M79 128h1M88 128h1M92 128h1M125 128h1M130 128h1M137 128h1M68 129h1M73 129h1M79 129h1M88 129h1M92 129h1M125 129h1M131 129h1M136 129h1M68 130h1M73 130h1M78 130h1M87 130h1M92 130h1M125 130h1M130 130h1M132 130h4M69 131h1M74 131h1M78 131h1M86 131h1M92 131h2M108 131h8M125 131h1M130 131h1M70 132h1M75 132h1M77 132h1M86 132h1M93 132h1M107 132h1M116 132h1M125 132h1M131 132h1M70 133h1M73 133h4M85 133h1M93 133h2M107 133h1M110 133h4M116 133h1M124 133h1M131 133h1M71 134h2M85 134h1M94 134h14M109 134h1M114 134h1M116 134h9M131 134h1M72 135h1M84 135h1M93 135h1M107 135h1M109 135h1M114 135h1M116 135h1M125 135h1M132 135h1M72 136h5M83 136h1M93 136h1M107 136h1M109 136h1M114 136h1M116 136h1M125 136h1M132 136h1M71 137h4M78 137h1M82 137h1M93 137h15M109 137h1M114 137h1M116 137h10M132 137h1M70 138h1M74 138h2M78 138h1M81 138h2M91 138h2M107 138h1M110 138h4M116 138h1M126 138h1M133 138h1M70 139h1M73 139h1M75 139h2M79 139h1M81 139h1M91 139h1M107 139h1M116 139h1M126 139h1M133 139h1M69 140h1M72 140h1M75 140h3M79 140h1M81 140h1M90 140h1M108 140h8M127 140h1M133 140h1M69 141h1M74 141h1M77 141h2M80 141h1M90 141h1M127 141h1M134 141h1M69 142h1M76 142h1M78 142h1M80 142h1M90 142h1M127 142h1M134 142h1M70 143h1M75 143h1M77 143h2M81 143h1M89 143h1M128 143h1M134 143h1M71 144h2M76 144h2M81 144h1M89 144h1M128 144h1M135 144h1M73 145h3M78 145h1M82 145h1M89 145h1M128 145h1M135 145h1M74 146h1M78 146h1M83 146h1M88 146h1M129 146h1M135 146h1M73 147h1M79 147h1M84 147h1M88 147h1M129 147h1M135 147h1M73 148h1M80 148h1M84 148h1M88 148h1M129 148h1M135 148h1M73 149h1M80 149h1M85 149h1M88 149h1M129 149h1M135 149h1M72 150h1M81 150h1M85 150h1M87 150h1M130 150h1M136 150h1M72 151h1M81 151h1M86 151h1M130 151h1M136 151h1M71 152h1M82 152h1M86 152h1M131 152h1M136 152h1M71 153h1M83 153h1M86 153h1M131 153h1M136 153h1M70 154h1M83 154h1M86 154h1M131 154h1M136 154h1M70 155h1M84 155h1M86 155h1M131 155h1M136 155h1M69 156h1M85 156h1M131 156h1M136 156h1M69 157h1M85 157h1M131 157h1M136 157h1M69 158h1M85 158h1M131 158h1M136 158h1M68 159h1M85 159h1M131 159h1M136 159h1M68 160h1M85 160h1M131 160h1M136 160h1M67 161h1M84 161h1M131 161h1M136 161h1M67 162h1M84 162h1M131 162h1M136 162h1M67 163h1M84 163h1M131 163h1M136 163h1M66 164h1M83 164h1M130 164h1M137 164h1M66 165h1M83 165h1M101 165h6M112 165h4M119 165h4M126 165h4M137 165h1M66 166h1M82 166h1M98 166h4M107 166h5M115 166h4M123 166h3M137 166h1M66 167h1M81 167h1M85 167h4M92 167h1M100 167h1M115 167h1M123 167h1M137 167h1M65 168h1M82 168h3M92 168h1M100 168h1M115 168h1M123 168h1M137 168h1M65 169h1M92 169h1M100 169h1M115 169h1M123 169h1M137 169h1M65 170h1M92 170h1M100 170h1M115 170h1M123 170h1M137 170h1M65 171h1M91 171h1M99 171h1M115 171h1M123 171h1M138 171h1M64 172h1M90 172h2M99 172h8M111 172h5M123 172h5M138 172h1M64 173h1M82 173h10M99 173h1M107 173h4M115 173h1M123 173h1M128 173h4M139 173h1M64 174h1M77 174h5M91 174h9M115 174h9M132 174h7M64 175h1M66 175h11M90 175h1M100 175h1M114 175h1M124 175h1M64 176h2M90 176h1M100 176h1M114 176h1M124 176h1M91 177h9M115 177h9M90 178h1M98 178h1M116 178h1M124 178h1M89 179h1M91 179h1M99 179h1M115 179h1M123 179h1M125 179h1M88 180h1M90 180h1M99 180h1M115 180h1M124 180h1M126 180h1M87 181h1M99 181h1M115 181h1M127 181h1M87 182h1M97 182h2M116 182h2M127 182h1M88 183h9M118 183h9" />
<path stroke="#f1f1f1" d="M87 22h9M85 23h13M85 24h16M84 25h17M82 26h21M81 27h23M81 28h24M80 29h27M79 30h29M78 31h32M77 32h33M77 33h34M76 34h36M75 35h38M75 36h39M74 37h41M73 38h12M86 38h30M72 39h12M86 39h31M71 40h13M85 40h33M70 41h13M85 41h34M66 42h1M69 42h13M85 42h35M67 43h14M84 43h37M65 44h14M84 44h37M64 45h1M66 45h11M84 45h39M64 46h2M68 46h7M77 46h1M84 46h40M66 47h2M84 47h26M117 47h8M83 48h23M110 48h7M124 48h2M83 49h20M106 49h18M126 49h1M83 50h16M103 50h23M128 50h1M83 51h14M99 51h29M129 51h1M83 52h12M97 52h14M123 52h6M83 53h9M95 53h11M111 53h12M83 54h7M92 54h10M106 54h28M83 55h5M90 55h11M102 55h36M83 56h3M88 56h10M101 56h42M83 57h2M86 57h9M98 57h31M141 57h3M83 58h1M85 58h7M95 58h29M129 58h12M84 59h6M92 59h28M124 59h4M129 59h15M83 60h5M90 60h27M120 60h9M130 60h14M83 61h3M88 61h25M117 61h13M131 61h12M83 62h1M86 62h22M113 62h18M132 62h11M84 63h20M108 63h24M133 63h9M83 64h19M104 64h29M134 64h7M82 65h17M102 65h2M105 65h28M134 65h6M81 66h16M99 66h6M106 66h28M135 66h3M79 67h16M97 67h9M108 67h26M135 67h1M78 68h15M95 68h1M98 68h10M109 68h26M77 69h14M93 69h3M97 69h1M99 69h10M111 69h1M113 69h23M76 70h13M92 70h3M96 70h3M101 70h10M112 70h1M116 70h20M75 71h11M89 71h6M96 71h5M104 71h8M113 71h3M119 71h18M73 72h11M86 72h18M107 72h6M114 72h5M124 72h13M37 73h1M39 73h12M72 73h10M85 73h9M95 73h12M110 73h4M116 73h8M127 73h11M38 74h15M71 74h10M82 74h2M85 74h9M95 74h15M113 74h3M117 74h10M131 74h7M34 75h1M36 75h18M71 75h8M81 75h3M85 75h8M94 75h19M118 75h13M135 75h3M33 76h1M35 76h7M49 76h6M70 76h7M79 76h1M81 76h3M85 76h8M94 76h10M109 76h14M128 76h6M136 76h2M32 77h1M34 77h5M51 77h5M69 77h7M77 77h3M81 77h3M85 77h8M94 77h9M104 77h5M110 77h12M123 77h5M129 77h5M135 77h1M31 78h2M34 78h3M52 78h4M57 78h1M69 78h5M76 78h4M81 78h3M85 78h8M94 78h8M103 78h7M111 78h10M122 78h7M130 78h4M135 78h1M30 79h2M33 79h4M53 79h4M58 79h1M68 79h5M74 79h6M81 79h1M85 79h7M93 79h8M102 79h5M110 79h1M112 79h8M121 79h5M129 79h1M131 79h3M135 79h1M30 80h2M33 80h3M41 80h2M55 80h2M58 80h1M68 80h3M73 80h8M82 80h2M85 80h7M93 80h8M102 80h4M112 80h8M121 80h4M131 80h3M135 80h1M29 81h2M32 81h4M41 81h1M43 81h6M55 81h3M67 81h2M71 81h9M81 81h3M85 81h7M93 81h8M102 81h3M106 81h2M112 81h8M121 81h3M125 81h2M131 81h3M135 81h1M29 82h2M32 82h3M40 82h1M42 82h8M56 82h2M59 82h1M67 82h1M69 82h2M72 82h7M80 82h4M85 82h7M93 82h8M102 82h3M106 82h2M112 82h8M121 82h3M125 82h2M131 82h3M135 82h1M29 83h2M32 83h3M41 83h10M56 83h2M59 83h1M78 83h1M80 83h2M83 83h1M85 83h7M93 83h8M102 83h3M112 83h8M121 83h3M131 83h3M135 83h1M29 84h2M32 84h3M40 84h12M56 84h2M59 84h1M80 84h2M83 84h1M85 84h7M93 84h8M102 84h3M112 84h8M121 84h3M131 84h3M135 84h1M29 85h1M31 85h4M40 85h12M56 85h2M59 85h1M81 85h1M83 85h2M86 85h6M93 85h8M102 85h3M112 85h8M121 85h3M131 85h3M135 85h1M31 86h4M40 86h12M57 86h1M59 86h1M81 86h2M84 86h1M86 86h6M93 86h8M102 86h3M112 86h8M121 86h3M131 86h3M135 86h1M31 87h4M40 87h12M57 87h1M59 87h1M82 87h3M86 87h5M92 87h9M102 87h3M112 87h8M121 87h3M131 87h3M135 87h1M31 88h3M40 88h12M57 88h1M59 88h1M86 88h5M92 88h9M102 88h3M112 88h8M121 88h3M131 88h3M135 88h1M31 89h3M40 89h12M58 89h2M82 89h4M87 89h4M92 89h9M102 89h3M112 89h8M121 89h3M131 89h3M135 89h1M31 90h3M41 90h10M56 90h1M58 90h2M82 90h4M87 90h3M91 90h10M102 90h4M112 90h8M121 90h4M131 90h3M135 90h1M31 91h3M42 91h8M55 91h1M57 91h3M82 91h8M91 91h11M103 91h4M109 91h1M111 91h10M122 91h4M128 91h1M130 91h4M135 91h1M31 92h4M43 92h6M56 92h3M82 92h5M88 92h2M91 92h12M104 92h5M110 92h12M123 92h5M129 92h4M134 92h2M31 93h4M55 93h4M82 93h5M88 93h2M92 93h12M109 93h14M128 93h5M134 93h2M31 94h5M82 94h6M89 94h1M91 94h1M93 94h39M133 94h3M32 95h5M81 95h7M89 95h1M91 95h2M94 95h37M132 95h4M32 96h6M39 96h1M81 96h8M90 96h2M93 96h1M95 96h35M131 96h4M139 96h3M31 97h1M33 97h6M40 97h2M80 97h9M90 97h2M93 97h2M97 97h18M117 97h11M130 97h5M139 97h2M142 97h1M32 98h1M34 98h6M42 98h1M80 98h11M92 98h5M98 98h16M115 98h11M129 98h6M139 98h1M142 98h1M33 99h1M35 99h7M44 99h1M79 99h11M91 99h7M99 99h26M126 99h1M128 99h1M130 99h5M140 99h1M142 99h1M34 100h1M36 100h8M79 100h3M83 100h6M90 100h9M102 100h21M125 100h2M128 100h1M130 100h5M140 100h1M142 100h1M37 101h8M78 101h4M83 101h5M90 101h12M104 101h17M123 101h4M128 101h2M131 101h3M140 101h1M142 101h1M147 101h1M39 102h9M78 102h3M82 102h4M88 102h2M91 102h13M106 102h14M121 102h6M128 102h2M131 102h3M140 102h1M142 102h1M144 102h1M146 102h1M41 103h9M77 103h3M81 103h4M88 103h3M92 103h14M120 103h6M128 103h3M132 103h1M134 103h1M138 103h1M140 103h3M144 103h1M146 103h1M44 104h9M77 104h2M80 104h3M88 104h4M94 104h31M126 104h2M129 104h1M137 104h1M142 104h1M144 104h1M146 104h1M47 105h8M77 105h1M79 105h3M87 105h7M96 105h27M125 105h4M138 105h3M142 105h1M144 105h1M146 105h1M50 106h7M87 106h9M97 106h24M123 106h6M138 106h1M141 106h3M52 107h7M86 107h11M102 107h17M121 107h7M129 107h1M140 107h7M54 108h6M86 108h16M104 108h13M119 108h8M128 108h3M137 108h1M139 108h8M53 109h1M56 109h5M86 109h18M117 109h9M127 109h4M138 109h1M140 109h7M57 110h4M62 110h1M84 110h1M86 110h39M126 110h6M138 110h1M140 110h6M58 111h4M63 111h1M83 111h3M89 111h34M125 111h7M141 111h5M59 112h3M63 112h2M83 112h6M91 112h30M123 112h10M134 112h1M139 112h3M143 112h2M146 112h1M59 113h4M64 113h2M83 113h8M98 113h20M121 113h12M134 113h1M139 113h5M145 113h1M60 114h3M64 114h2M84 114h14M104 114h9M118 114h16M138 114h6M60 115h4M65 115h1M85 115h19M113 115h20M134 115h1M138 115h5M144 115h1M61 116h4M86 116h37M124 116h8M133 116h1M137 116h6M61 117h4M66 117h1M84 117h2M88 117h36M125 117h6M132 117h2M136 117h7M62 118h4M67 118h1M84 118h4M89 118h5M95 118h30M126 118h4M131 118h4M136 118h6M63 119h3M67 119h1M83 119h6M91 119h2M94 119h31M126 119h3M130 119h4M135 119h7M63 120h4M68 120h1M83 120h8M92 120h1M94 120h31M126 120h1M129 120h12M64 121h4M69 121h1M83 121h9M93 121h32M127 121h14M65 122h3M69 122h1M82 122h10M93 122h32M127 122h13M65 123h4M70 123h1M82 123h9M93 123h32M126 123h1M128 123h12M66 124h4M71 124h1M82 124h8M91 124h1M93 124h32M126 124h1M128 124h11M66 125h4M71 125h1M81 125h9M91 125h1M93 125h32M126 125h1M129 125h10M67 126h4M72 126h1M81 126h3M86 126h4M91 126h1M93 126h32M126 126h2M130 126h8M68 127h3M72 127h1M80 127h5M86 127h3M90 127h2M93 127h32M126 127h3M131 127h7M69 128h3M73 128h1M80 128h8M89 128h3M93 128h32M126 128h4M132 128h5M69 129h4M80 129h8M89 129h3M93 129h32M126 129h4M132 129h4M69 130h4M74 130h1M79 130h8M88 130h4M93 130h32M126 130h4M70 131h4M79 131h7M87 131h5M94 131h14M116 131h9M126 131h4M71 132h4M78 132h8M87 132h6M94 132h12M108 132h8M117 132h8M126 132h5M71 133h2M77 133h8M86 133h7M95 133h11M108 133h2M114 133h2M117 133h7M125 133h6M73 134h12M86 134h8M108 134h1M110 134h4M115 134h1M125 134h6M73 135h11M85 135h8M94 135h12M108 135h1M110 135h4M115 135h1M117 135h8M126 135h6M77 136h6M84 136h9M94 136h12M108 136h1M110 136h4M115 136h1M117 136h8M126 136h6M75 137h3M79 137h3M83 137h10M108 137h1M110 137h4M115 137h1M126 137h6M71 138h3M76 138h2M79 138h2M83 138h8M93 138h13M108 138h2M114 138h2M117 138h9M127 138h6M71 139h2M74 139h1M77 139h2M80 139h1M82 139h9M92 139h14M108 139h8M117 139h9M127 139h6M70 140h2M73 140h2M78 140h1M80 140h1M82 140h1M84 140h6M91 140h15M107 140h1M116 140h11M128 140h5M70 141h4M75 141h2M79 141h1M81 141h9M91 141h36M128 141h6M70 142h6M77 142h1M79 142h1M81 142h9M91 142h36M128 142h6M71 143h4M76 143h1M79 143h2M82 143h7M90 143h38M129 143h5M73 144h3M78 144h3M82 144h7M90 144h38M129 144h6M76 145h2M79 145h3M83 145h6M90 145h38M129 145h6M75 146h3M79 146h4M84 146h4M89 146h40M130 146h5M75 147h4M80 147h4M85 147h3M89 147h40M130 147h5M74 148h6M81 148h3M85 148h3M89 148h40M130 148h5M74 149h6M81 149h4M86 149h2M89 149h40M130 149h5M74 150h7M82 150h3M86 150h1M88 150h42M131 150h5M73 151h8M82 151h4M87 151h43M131 151h5M73 152h9M83 152h3M87 152h44M132 152h4M72 153h11M84 153h2M87 153h44M132 153h4M71 154h12M84 154h2M87 154h44M132 154h4M71 155h13M85 155h1M87 155h44M132 155h4M70 156h15M86 156h45M132 156h4M70 157h15M86 157h45M132 157h4M70 158h15M86 158h45M132 158h4M69 159h16M86 159h45M132 159h4M69 160h16M86 160h45M132 160h4M69 161h15M85 161h46M132 161h4M68 162h16M85 162h42M128 162h3M132 162h4M68 163h16M85 163h46M132 163h4M67 164h16M84 164h44M129 164h1M131 164h6M67 165h16M84 165h13M98 165h2M107 165h5M116 165h3M123 165h3M130 165h7M67 166h15M83 166h6M103 166h4M112 166h3M119 166h4M126 166h11M67 167h14M82 167h3M89 167h3M93 167h7M101 167h14M116 167h7M124 167h13M66 168h16M85 168h7M93 168h7M101 168h14M116 168h7M124 168h13M66 169h26M93 169h7M101 169h14M116 169h7M124 169h13M66 170h26M93 170h7M101 170h14M116 170h7M124 170h13M66 171h25M92 171h7M100 171h1M106 171h9M116 171h7M124 171h14M65 172h25M92 172h7M116 172h7M128 172h10M65 173h17M92 173h7M100 173h1M116 173h7M133 173h5M65 174h12M90 174h1M100 174h1M91 175h9M115 175h9M91 176h9M115 176h9M89 177h2M100 177h1M114 177h1M124 177h2M89 178h1M91 178h7M99 178h2M114 178h2M117 178h7M125 178h1M88 179h1M90 179h1M92 179h7M100 179h1M114 179h1M116 179h7M124 179h1M126 179h1M87 180h1M89 180h1M91 180h8M100 180h1M116 180h8M125 180h1M88 181h11M116 181h11M88 182h9M99 182h1M118 182h9M87 183h1M117 183h1M87 184h5M118 184h4" />
<path stroke="rgba(0,0,0,0.08627450980392157)" d="M65 78h1" />
<path stroke="rgba(0,0,0,0.07058823529411765)" d="M62 82h1" />
<path stroke="rgba(0,0,0,0.023529411764705882)" d="M64 84h1" />
<path stroke="rgba(0,0,0,0.027450980392156862)" d="M61 87h1" />
<path stroke="rgba(0,0,0,0.011764705882352941)" d="M61 88h1" />
<path stroke="rgba(0,0,0,0.047058823529411764)" d="M134 109h1" />
<path stroke="#e6e6e6" d="M83 140h1" />
<path stroke="#eaeaea" d="M97 165h1" />
<path stroke="#efefef" d="M100 165h1" />
<path stroke="#080808" d="M89 166h1M96 166h2" />
<path stroke="#191919" d="M90 166h1" />
<path stroke="#222222" d="M91 166h1" />
<path stroke="#292929" d="M92 166h1" />
<path stroke="#1b1b1b" d="M93 166h1" />
<path stroke="#030303" d="M94 166h1" />
<path stroke="#040404" d="M95 166h1" />
<path stroke="#e2e2e2" d="M102 166h1" />
</svg>