<svg xmlns="http://www.w3.org/2000/svg" viewBox="0 -0.5 182 101" shape-rendering="crispEdges">
<path stroke="#000000" d="M7 0h13M5 1h18M113 1h9M3 2h22M84 2h13M111 2h13M134 2h8M1 3h25M46 3h25M78 3h47M132 3h31M167 3h11M0 4h27M38 4h4M45 4h27M75 4h52M131 4h33M166 4h13M0 5h43M44 5h29M74 5h55M130 5h34M165 5h15M0 6h73M74 6h107M1 7h180M1 8h180M1 9h180M2 10h179M2 11h179M2 12h179M2 13h179M2 14h179M2 15h179M2 16h179M2 17h179M3 18h178M3 19h178M3 20h178M3 21h178M3 22h177M3 23h177M3 24h177M3 25h177M3 26h177M3 27h177M3 28h177M3 29h177M3 30h177M3 31h177M3 32h177M3 33h177M3 34h177M3 35h177M3 36h177M3 37h177M3 38h177M3 39h177M3 40h177M3 41h177M3 42h177M3 43h177M3 44h178M3 45h178M3 46h178M3 47h178M3 48h178M3 49h179M3 50h179M3 51h179M3 52h179M3 53h179M3 54h179M3 55h179M3 56h179M3 57h179M3 58h179M3 59h179M3 60h179M3 61h179M3 62h179M3 63h179M3 64h179M3 65h179M3 66h179M3 67h179M3 68h179M3 69h179M3 70h179M2 71h180M2 72h180M2 73h180M2 74h180M2 75h180M2 76h180M2 77h179M2 78h179M2 79h179M1 80h180M1 81h180M1 82h180M1 83h180M1 84h180M1 85h180M1 86h180M1 87h180M1 88h180M1 89h180M1 90h180M1 91h180M0 92h158M159 92h21M0 93h114M115 93h43M159 93h21M0 94h46M47 94h67M115 94h42M159 94h20M1 95h44M47 95h39M87 95h27M116 95h39M160 95h18M1 96h42M48 96h38M88 96h25M118 96h29M151 96h3M161 96h16M2 97h24M27 97h11M49 97h36M89 97h21M123 97h20M4 98h21M55 98h27M91 98h7M103 98h6M6 99h18M73 99h5M8 100h14" />
</svg>