<svg xmlns="http://www.w3.org/2000/svg" viewBox="0 -0.5 23 23" shape-rendering="crispEdges">
<path stroke="#412a0c" d="M3 0h17M2 1h1M20 1h1M1 2h1M21 2h1M0 3h1M22 3h1M0 4h1M22 4h1M0 5h1M22 5h1M0 6h1M22 6h1M0 7h1M22 7h1M0 8h1M22 8h1M0 9h1M22 9h1M0 10h1M22 10h1M0 11h1M22 11h1M0 12h1M22 12h1M0 13h1M22 13h1M0 14h1M22 14h1M0 15h1M22 15h1M0 16h1M22 16h1M0 17h1M22 17h1M0 18h1M22 18h1M0 19h1M22 19h1M1 20h1M21 20h1M2 21h1M20 21h1M3 22h17" />
<path stroke="#ebd6b5" d="M3 1h1M19 1h1M2 2h1M4 2h15M20 2h1M1 3h1M3 3h17M21 3h1M1 4h21M1 5h21M1 6h21M1 7h21M1 8h21M1 9h21M1 10h21M1 11h21M1 12h21M1 13h21M1 14h21M1 15h21M1 16h21M1 17h21M1 18h21M1 19h1M3 19h17M21 19h1M2 20h1M4 20h15M20 20h1M3 21h1M19 21h1" />
<path stroke="#f2e4cf" d="M4 1h15M3 2h1M19 2h1M2 3h1M20 3h1" />
<path stroke="#cb9f7d" d="M2 19h1M20 19h1M3 20h1M19 20h1M4 21h15" />
</svg>