<svg xmlns="http://www.w3.org/2000/svg" viewBox="0 -0.5 23 23" shape-rendering="crispEdges">
<path stroke="#412a0c" d="M3 0h17M2 1h1M20 1h1M1 2h1M21 2h1M0 3h1M22 3h1M0 4h1M22 4h1M0 5h1M22 5h1M0 6h1M22 6h1M0 7h1M22 7h1M0 8h1M22 8h1M0 9h1M22 9h1M0 10h1M22 10h1M0 11h1M22 11h1M0 12h1M22 12h1M0 13h1M22 13h1M0 14h1M22 14h1M0 15h1M22 15h1M0 16h1M22 16h1M0 17h1M22 17h1M0 18h1M22 18h1M0 19h1M22 19h1M1 20h1M21 20h1M2 21h1M20 21h1M3 22h17" />
<path stroke="#cb9f7d" d="M3 1h17M2 2h1M20 2h1M1 3h1M21 3h1M1 4h1M21 4h1M1 5h1M21 5h1M1 6h1M21 6h1M1 7h1M21 7h1M1 8h1M21 8h1M1 9h1M21 9h1M1 10h1M21 10h1M1 11h1M21 11h1M1 12h1M21 12h1M1 13h1M21 13h1M1 14h1M21 14h1M1 15h1M21 15h1M1 16h1M21 16h1M1 17h1M21 17h1M1 18h1M21 18h1M1 19h1M21 19h1" />
<path stroke="#ebd6b5" d="M3 2h17M2 3h19M2 4h19M2 5h19M2 6h19M2 7h19M2 8h19M2 9h19M2 10h19M2 11h19M2 12h19M2 13h19M2 14h19M2 15h19M2 16h19M2 17h19M2 18h19M2 19h19M3 20h17" />
<path stroke="#f2e4cf" d="M2 20h1M20 20h1M3 21h17" />
</svg>