<svg xmlns="http://www.w3.org/2000/svg" viewBox="0 -0.5 21 13" shape-rendering="crispEdges">
<path stroke="#412a0c" d="M3 0h15M2 1h1M18 1h1M1 2h1M19 2h1M0 3h1M20 3h1M0 4h1M20 4h1M0 5h1M20 5h1M0 6h1M20 6h1M0 7h1M20 7h1M0 8h1M20 8h1M0 9h1M20 9h1M1 10h1M19 10h1M2 11h1M18 11h1M3 12h15" />
<path stroke="#ebd6b5" d="M3 1h1M17 1h1M2 2h1M4 2h13M18 2h1M1 3h1M3 3h15M19 3h1M1 4h19M1 5h19M1 6h19M1 7h19M1 8h19M1 9h1M3 9h15M19 9h1M2 10h1M4 10h13M18 10h1M3 11h1M17 11h1" />
<path stroke="#f2e4cf" d="M4 1h13M3 2h1M17 2h1M2 3h1M18 3h1" />
<path stroke="#cb9f7d" d="M2 9h1M18 9h1M3 10h1M17 10h1M4 11h13" />
</svg>