<svg xmlns="http://www.w3.org/2000/svg" viewBox="0 -0.5 338 165" shape-rendering="crispEdges">
<path stroke="#000000" d="M161 12h8M160 13h2M168 13h2M159 14h2M169 14h2M158 15h2M170 15h2M24 16h10M55 16h3M157 16h2M171 16h2M199 16h5M208 16h9M254 16h3M270 16h3M285 16h3M299 16h10M22 17h3M33 17h8M54 17h2M57 17h2M156 17h2M172 17h2M198 17h2M203 17h1M207 17h2M216 17h3M253 17h2M256 17h2M269 17h2M272 17h2M284 17h2M287 17h2M297 17h3M308 17h8M22 18h1M40 18h5M54 18h1M58 18h1M156 18h1M162 18h4M173 18h1M198 18h1M203 18h2M206 18h2M218 18h2M253 18h1M257 18h1M269 18h1M273 18h1M284 18h1M288 18h1M297 18h1M315 18h5M22 19h1M44 19h2M53 19h2M58 19h1M156 19h1M161 19h2M165 19h2M173 19h1M198 19h1M204 19h3M219 19h2M252 19h2M257 19h1M268 19h2M273 19h1M283 19h2M288 19h1M297 19h1M319 19h2M22 20h1M45 20h1M53 20h1M58 20h1M156 20h1M166 20h2M173 20h1M198 20h1M204 20h2M220 20h2M252 20h1M257 20h1M268 20h1M273 20h1M283 20h1M288 20h1M297 20h1M320 20h1M22 21h1M45 21h1M53 21h1M58 21h1M156 21h1M167 21h1M173 21h1M198 21h1M204 21h1M210 21h5M221 21h2M252 21h1M257 21h1M268 21h1M273 21h1M283 21h1M288 21h1M297 21h1M320 21h1M22 22h1M45 22h1M53 22h1M58 22h1M156 22h2M167 22h1M173 22h1M198 22h1M209 22h2M214 22h2M222 22h1M252 22h1M257 22h1M268 22h1M273 22h1M283 22h1M288 22h1M297 22h1M320 22h1M22 23h1M29 23h12M44 23h2M53 23h1M58 23h1M157 23h1M166 23h2M173 23h1M198 23h1M208 23h2M215 23h2M222 23h1M252 23h1M257 23h1M268 23h1M273 23h1M283 23h1M288 23h1M297 23h1M304 23h12M319 23h2M22 24h1M28 24h2M40 24h5M53 24h1M58 24h1M157 24h2M166 24h1M172 24h2M198 24h1M207 24h2M216 24h1M222 24h1M252 24h1M257 24h1M268 24h1M273 24h1M283 24h1M288 24h1M297 24h1M303 24h2M315 24h5M22 25h1M28 25h1M48 25h6M58 25h7M158 25h2M165 25h2M172 25h1M198 25h1M207 25h1M216 25h1M222 25h1M247 25h6M257 25h12M273 25h7M283 25h1M288 25h1M297 25h1M303 25h1M22 26h1M28 26h1M47 26h2M64 26h2M159 26h8M171 26h2M198 26h1M206 26h2M216 26h1M222 26h1M246 26h2M262 26h2M279 26h2M283 26h1M288 26h1M297 26h1M303 26h1M22 27h1M28 27h1M47 27h1M65 27h1M165 27h1M171 27h1M198 27h1M205 27h2M216 27h1M222 27h1M246 27h1M262 27h1M280 27h1M283 27h1M288 27h1M297 27h1M303 27h1M22 28h1M28 28h1M47 28h1M65 28h1M165 28h1M170 28h2M198 28h1M205 28h1M215 28h2M221 28h2M246 28h1M262 28h1M280 28h1M283 28h1M288 28h1M297 28h1M303 28h1M22 29h1M28 29h1M47 29h2M63 29h3M164 29h2M170 29h1M198 29h1M205 29h1M215 29h1M220 29h2M246 29h2M262 29h2M278 29h3M283 29h1M288 29h1M297 29h1M303 29h1M22 30h1M28 30h1M48 30h6M58 30h6M164 30h1M169 30h2M198 30h1M204 30h2M214 30h2M220 30h1M247 30h6M257 30h12M273 30h6M283 30h1M288 30h1M297 30h1M303 30h1M22 31h1M28 31h1M53 31h1M58 31h1M163 31h2M169 31h1M198 31h1M204 31h1M213 31h2M219 31h2M252 31h1M257 31h1M268 31h1M273 31h1M283 31h1M288 31h1M297 31h1M303 31h1M22 32h1M28 32h1M53 32h1M58 32h1M163 32h1M168 32h2M198 32h1M204 32h1M212 32h2M219 32h1M252 32h1M257 32h1M268 32h1M273 32h1M283 32h1M288 32h1M297 32h1M303 32h1M22 33h1M28 33h1M53 33h1M58 33h1M162 33h2M168 33h1M198 33h1M204 33h1M211 33h2M218 33h2M252 33h1M257 33h1M268 33h1M273 33h1M283 33h1M288 33h1M297 33h1M303 33h1M22 34h1M28 34h1M53 34h1M58 34h1M162 34h1M167 34h2M198 34h1M204 34h1M209 34h3M217 34h2M252 34h1M257 34h1M268 34h1M273 34h1M283 34h1M288 34h1M297 34h1M303 34h1M22 35h1M28 35h2M53 35h1M58 35h1M71 35h6M89 35h5M99 35h6M113 35h5M121 35h4M141 35h7M150 35h3M161 35h2M167 35h1M198 35h1M204 35h1M208 35h2M216 35h2M232 35h7M241 35h3M252 35h1M257 35h1M268 35h1M273 35h1M283 35h1M288 35h1M297 35h1M303 35h2M22 36h1M29 36h4M53 36h1M58 36h1M70 36h2M76 36h2M88 36h2M93 36h1M97 36h3M104 36h2M113 36h1M117 36h1M120 36h2M124 36h3M140 36h2M147 36h4M152 36h2M161 36h1M166 36h2M198 36h1M204 36h1M207 36h2M215 36h2M231 36h2M238 36h4M243 36h2M252 36h1M257 36h1M268 36h1M273 36h1M283 36h1M288 36h1M297 36h1M304 36h4M22 37h1M32 37h9M53 37h1M58 37h1M69 37h2M77 37h2M88 37h1M93 37h2M96 37h2M105 37h2M112 37h2M117 37h1M119 37h2M126 37h2M139 37h2M148 37h2M153 37h1M161 37h1M166 37h1M198 37h1M204 37h1M206 37h2M214 37h2M230 37h2M239 37h2M244 37h1M252 37h1M257 37h1M268 37h1M273 37h1M283 37h1M288 37h1M297 37h1M307 37h9M22 38h1M40 38h2M53 38h1M58 38h1M68 38h2M78 38h2M88 38h1M94 38h3M106 38h2M112 38h1M117 38h3M127 38h2M139 38h1M153 38h1M161 38h1M166 38h1M198 38h1M204 38h3M213 38h2M230 38h1M244 38h1M252 38h1M257 38h1M268 38h1M273 38h1M283 38h1M288 38h1M297 38h1M315 38h2M22 39h1M41 39h1M53 39h1M58 39h1M68 39h1M79 39h1M88 39h1M94 39h2M107 39h1M112 39h1M117 39h2M128 39h1M138 39h2M153 39h1M161 39h1M166 39h1M198 39h1M204 39h2M212 39h2M229 39h2M244 39h1M252 39h1M257 39h1M268 39h1M273 39h1M283 39h1M288 39h1M297 39h1M316 39h1M22 40h1M41 40h1M53 40h1M58 40h1M67 40h2M72 40h4M79 40h2M88 40h1M94 40h1M100 40h4M107 40h1M112 40h1M117 40h1M128 40h2M138 40h1M144 40h3M153 40h1M161 40h1M166 40h1M198 40h1M204 40h1M211 40h6M229 40h1M235 40h3M244 40h1M252 40h1M257 40h1M268 40h1M273 40h1M283 40h1M288 40h1M297 40h1M316 40h1M22 41h1M40 41h2M53 41h1M58 41h1M67 41h1M72 41h1M75 41h1M80 41h1M88 41h1M98 41h3M103 41h1M106 41h2M111 41h2M121 41h4M129 41h1M137 41h2M143 41h2M146 41h2M153 41h1M161 41h1M166 41h1M198 41h1M216 41h4M228 41h2M234 41h2M237 41h2M244 41h1M252 41h1M257 41h1M268 41h1M273 41h1M283 41h1M288 41h1M297 41h1M315 41h2M22 42h1M30 42h11M53 42h1M58 42h1M67 42h1M71 42h2M75 42h2M80 42h1M88 42h1M97 42h2M103 42h4M111 42h1M120 42h2M124 42h1M129 42h1M137 42h1M143 42h1M147 42h2M153 42h1M161 42h1M166 42h1M198 42h1M219 42h1M228 42h1M234 42h1M238 42h2M244 42h1M252 42h1M257 42h1M268 42h1M273 42h1M283 42h1M288 42h1M297 42h1M305 42h11M22 43h1M29 43h2M53 43h1M58 43h1M66 43h2M71 43h1M76 43h1M80 43h1M88 43h1M96 43h2M111 43h1M119 43h2M124 43h2M129 43h2M137 43h1M142 43h2M148 43h1M153 43h1M161 43h1M166 43h1M198 43h1M219 43h2M228 43h1M233 43h2M239 43h1M244 43h1M252 43h1M257 43h1M268 43h1M273 43h1M283 43h1M288 43h1M297 43h1M304 43h2M22 44h1M29 44h1M53 44h1M58 44h1M66 44h1M71 44h1M76 44h1M80 44h1M88 44h1M95 44h2M111 44h1M118 44h2M125 44h1M130 44h1M136 44h2M142 44h1M148 44h1M153 44h1M161 44h1M166 44h1M198 44h1M205 44h8M220 44h2M227 44h2M233 44h1M239 44h1M244 44h1M252 44h1M257 44h1M268 44h1M273 44h1M283 44h1M288 44h1M297 44h1M304 44h1M22 45h1M29 45h1M53 45h1M58 45h1M66 45h1M71 45h6M80 45h1M88 45h1M94 45h2M111 45h1M117 45h2M125 45h1M130 45h1M136 45h1M141 45h2M148 45h1M153 45h1M161 45h1M166 45h1M198 45h1M204 45h2M212 45h2M221 45h1M227 45h1M232 45h2M239 45h1M244 45h1M252 45h1M257 45h1M268 45h1M273 45h1M283 45h1M288 45h1M297 45h1M304 45h1M22 46h2M29 46h1M53 46h1M58 46h1M65 46h2M80 46h1M88 46h1M94 46h1M111 46h1M117 46h1M125 46h1M130 46h1M136 46h1M141 46h1M148 46h1M153 46h1M161 46h1M166 46h1M198 46h2M204 46h1M213 46h2M221 46h1M227 46h1M232 46h1M239 46h1M244 46h1M252 46h1M257 46h1M268 46h1M273 46h1M283 46h1M288 46h1M297 46h2M304 46h1M23 47h1M29 47h1M53 47h1M58 47h1M65 47h1M80 47h1M88 47h1M94 47h1M111 47h1M116 47h2M125 47h1M130 47h1M136 47h1M141 47h1M148 47h1M153 47h1M161 47h1M166 47h1M199 47h1M204 47h1M214 47h2M221 47h1M227 47h1M232 47h1M239 47h1M244 47h1M252 47h1M257 47h1M268 47h1M273 47h1M283 47h1M288 47h1M298 47h1M304 47h1M23 48h1M29 48h1M53 48h1M58 48h1M65 48h1M79 48h2M88 48h1M94 48h1M111 48h1M116 48h1M125 48h1M130 48h1M136 48h1M141 48h1M148 48h1M153 48h1M161 48h1M166 48h1M199 48h1M204 48h1M215 48h1M221 48h1M227 48h1M232 48h1M239 48h1M244 48h1M252 48h1M257 48h1M268 48h1M273 48h1M283 48h1M288 48h1M298 48h1M304 48h1M23 49h1M29 49h1M53 49h1M58 49h1M65 49h1M69 49h11M88 49h1M94 49h1M111 49h1M116 49h1M125 49h1M130 49h1M136 49h1M141 49h1M148 49h1M153 49h1M161 49h1M166 49h2M199 49h1M204 49h1M215 49h1M221 49h1M227 49h1M232 49h1M239 49h1M244 49h1M252 49h1M257 49h1M268 49h1M273 49h1M283 49h1M288 49h1M298 49h1M304 49h1M23 50h1M29 50h1M53 50h1M58 50h1M65 50h1M69 50h1M88 50h1M94 50h1M111 50h1M116 50h1M125 50h1M130 50h1M136 50h1M141 50h1M148 50h1M153 50h1M161 50h2M167 50h1M199 50h1M204 50h2M215 50h1M221 50h1M227 50h1M232 50h1M239 50h1M244 50h1M252 50h1M257 50h1M268 50h1M273 50h1M283 50h1M288 50h1M298 50h1M304 50h1M23 51h1M29 51h1M53 51h1M58 51h1M65 51h1M69 51h1M79 51h4M88 51h1M94 51h1M111 51h1M116 51h1M125 51h1M130 51h1M136 51h1M141 51h1M148 51h1M153 51h1M162 51h1M167 51h1M199 51h1M205 51h1M214 51h2M220 51h2M227 51h1M232 51h1M239 51h1M244 51h1M252 51h1M257 51h1M268 51h1M273 51h1M283 51h1M288 51h1M298 51h1M304 51h1M23 52h1M29 52h1M53 52h1M58 52h1M65 52h1M69 52h1M79 52h1M82 52h1M88 52h1M94 52h1M111 52h1M116 52h1M125 52h1M130 52h1M136 52h1M141 52h1M147 52h2M153 52h2M162 52h1M167 52h1M199 52h2M205 52h1M213 52h2M220 52h1M227 52h1M232 52h1M238 52h2M244 52h2M252 52h1M257 52h1M268 52h1M273 52h1M283 52h1M288 52h1M298 52h1M304 52h1M23 53h2M29 53h2M41 53h5M53 53h1M58 53h1M65 53h1M69 53h1M78 53h2M82 53h1M88 53h2M94 53h2M111 53h1M116 53h1M125 53h1M130 53h1M136 53h1M141 53h2M146 53h2M154 53h1M162 53h1M167 53h1M200 53h1M205 53h1M212 53h2M219 53h2M227 53h1M232 53h2M237 53h2M245 53h1M252 53h1M257 53h1M268 53h1M273 53h1M283 53h1M288 53h1M298 53h2M304 53h2M316 53h5M24 54h1M30 54h12M45 54h2M53 54h2M58 54h1M65 54h1M69 54h2M77 54h2M82 54h1M89 54h1M95 54h1M111 54h1M116 54h1M125 54h1M130 54h1M136 54h2M142 54h2M145 54h2M154 54h1M162 54h2M167 54h1M200 54h1M205 54h1M211 54h2M219 54h1M227 54h2M233 54h2M236 54h2M245 54h1M252 54h2M257 54h1M268 54h2M273 54h1M283 54h2M288 54h1M299 54h1M305 54h12M320 54h2M24 55h1M46 55h1M54 55h1M58 55h2M65 55h1M70 55h2M77 55h1M82 55h1M89 55h1M95 55h1M111 55h1M116 55h2M125 55h1M130 55h1M137 55h1M143 55h3M154 55h2M163 55h1M167 55h2M200 55h1M205 55h1M210 55h2M218 55h2M228 55h1M234 55h3M245 55h2M253 55h1M257 55h2M269 55h1M273 55h2M284 55h1M288 55h2M299 55h1M321 55h1M24 56h1M46 56h1M54 56h2M59 56h1M65 56h2M71 56h2M76 56h2M81 56h2M89 56h1M95 56h1M111 56h1M117 56h1M125 56h1M130 56h1M137 56h1M150 56h1M155 56h1M163 56h2M168 56h1M200 56h1M205 56h6M217 56h2M228 56h1M241 56h1M246 56h1M253 56h2M258 56h1M269 56h2M274 56h1M284 56h2M289 56h1M299 56h1M321 56h1M24 57h1M46 57h1M55 57h1M59 57h1M66 57h1M72 57h5M80 57h2M89 57h2M95 57h1M111 57h2M117 57h1M125 57h1M130 57h1M137 57h2M149 57h2M155 57h1M164 57h1M168 57h1M200 57h1M216 57h2M228 57h2M240 57h2M246 57h1M254 57h1M258 57h1M270 57h1M274 57h1M285 57h1M289 57h1M299 57h1M321 57h1M24 58h1M45 58h2M55 58h1M59 58h1M66 58h2M80 58h1M90 58h1M95 58h1M112 58h1M117 58h1M125 58h1M130 58h1M138 58h2M148 58h3M155 58h1M164 58h1M168 58h1M200 58h1M215 58h2M229 58h2M239 58h3M246 58h1M254 58h1M258 58h1M270 58h1M274 58h1M285 58h1M289 58h1M299 58h1M320 58h2M24 59h2M44 59h2M55 59h2M59 59h1M67 59h2M79 59h2M90 59h1M95 59h1M112 59h1M117 59h1M125 59h1M130 59h1M139 59h2M147 59h2M150 59h1M155 59h1M164 59h2M168 59h1M200 59h2M212 59h4M230 59h2M238 59h2M241 59h1M246 59h1M254 59h2M258 59h1M270 59h2M274 59h1M285 59h2M289 59h1M299 59h2M319 59h2M25 60h2M37 60h8M56 60h1M59 60h1M68 60h2M78 60h2M90 60h2M94 60h2M112 60h2M116 60h2M125 60h2M129 60h2M140 60h3M146 60h2M150 60h2M154 60h2M165 60h1M168 60h1M201 60h1M210 60h3M231 60h3M237 60h2M241 60h2M245 60h2M255 60h1M258 60h1M271 60h1M274 60h1M286 60h1M289 60h1M300 60h2M312 60h8M26 61h12M56 61h4M69 61h10M91 61h4M113 61h4M126 61h4M141 61h6M151 61h4M165 61h4M201 61h10M232 61h6M242 61h4M255 61h4M271 61h4M286 61h4M301 61h12M172 68h3M188 68h3M195 68h3M171 69h2M174 69h2M188 69h1M190 69h1M195 69h1M197 69h1M171 70h1M175 70h1M188 70h1M190 70h1M195 70h1M197 70h1M171 71h1M173 71h3M188 71h1M190 71h1M195 71h1M197 71h1M171 72h1M173 72h1M188 72h1M190 72h1M195 72h1M197 72h1M171 73h1M173 73h1M188 73h1M190 73h1M195 73h1M197 73h1M171 74h1M173 74h1M188 74h1M190 74h1M195 74h1M197 74h1M171 75h1M173 75h1M186 75h3M190 75h3M195 75h1M197 75h1M159 76h7M171 76h1M173 76h1M186 76h1M192 76h1M195 76h1M197 76h6M207 76h6M158 77h2M165 77h2M171 77h1M173 77h1M186 77h3M190 77h3M195 77h1M202 77h2M206 77h2M212 77h2M158 78h1M161 78h3M166 78h1M171 78h1M173 78h1M188 78h1M190 78h1M195 78h1M198 78h3M203 78h1M206 78h1M209 78h2M213 78h1M158 79h1M160 79h2M163 79h2M166 79h1M169 79h3M173 79h3M188 79h1M190 79h1M195 79h1M197 79h2M200 79h2M203 79h1M206 79h1M208 79h1M211 79h1M213 79h1M158 80h1M160 80h1M164 80h1M166 80h1M169 80h1M175 80h1M188 80h1M190 80h1M195 80h1M197 80h1M201 80h1M203 80h1M206 80h1M208 80h4M213 80h1M158 81h1M160 81h1M164 81h1M166 81h1M169 81h3M173 81h3M188 81h1M190 81h1M195 81h1M197 81h1M201 81h1M203 81h1M206 81h1M213 81h1M158 82h1M160 82h1M164 82h1M166 82h1M171 82h1M173 82h1M188 82h1M190 82h1M195 82h1M197 82h1M201 82h1M203 82h1M206 82h1M208 82h6M158 83h1M160 83h1M164 83h1M166 83h1M171 83h1M173 83h1M188 83h1M190 83h1M195 83h1M197 83h1M201 83h1M203 83h1M206 83h1M208 83h1M158 84h1M160 84h1M164 84h1M166 84h1M171 84h1M173 84h1M188 84h1M190 84h1M195 84h1M197 84h1M201 84h1M203 84h1M206 84h1M208 84h1M158 85h1M160 85h2M163 85h2M166 85h1M171 85h1M173 85h1M188 85h1M190 85h3M195 85h1M197 85h1M201 85h1M203 85h1M206 85h1M208 85h2M211 85h3M158 86h1M161 86h3M166 86h1M171 86h1M173 86h1M188 86h1M192 86h1M195 86h1M197 86h1M201 86h1M203 86h1M206 86h1M209 86h3M213 86h1M158 87h2M165 87h2M171 87h1M173 87h1M188 87h2M191 87h2M195 87h1M197 87h1M201 87h1M203 87h1M206 87h2M213 87h1M159 88h7M171 88h3M189 88h3M195 88h3M201 88h3M207 88h7M267 95h26M243 96h10M261 96h12M292 96h1M306 96h13M168 97h7M220 97h12M242 97h12M260 97h4M292 97h1M304 97h4M318 97h3M166 98h10M212 98h2M220 98h2M230 98h2M242 98h2M253 98h1M260 98h2M292 98h2M303 98h3M319 98h2M132 99h12M165 99h6M174 99h2M184 99h30M220 99h2M230 99h2M242 99h2M253 99h1M261 99h1M292 99h2M302 99h3M319 99h2M102 100h13M131 100h6M141 100h4M164 100h1M166 100h2M174 100h2M184 100h1M212 100h2M220 100h2M231 100h2M242 100h3M253 100h1M261 100h1M292 100h2M302 100h2M319 100h2M93 101h28M131 101h1M141 101h2M163 101h4M174 101h2M184 101h1M212 101h2M220 101h2M232 101h2M242 101h3M253 101h1M261 101h1M292 101h2M301 101h2M319 101h2M92 102h7M120 102h1M131 102h1M142 102h1M145 102h1M162 102h2M165 102h2M174 102h2M184 102h2M212 102h2M220 102h2M232 102h3M242 102h3M253 102h1M261 102h1M293 102h1M300 102h3M320 102h1M30 103h11M56 103h10M92 103h2M120 103h1M131 103h1M142 103h2M145 103h2M162 103h4M174 103h2M184 103h2M213 103h1M220 103h2M234 103h2M242 103h3M253 103h2M261 103h1M293 103h2M300 103h2M320 103h1M27 104h17M54 104h5M64 104h3M92 104h2M120 104h1M131 104h1M143 104h4M161 104h2M164 104h2M174 104h2M184 104h2M213 104h1M220 104h2M234 104h2M242 104h3M253 104h2M261 104h1M283 104h12M300 104h1M320 104h2M21 105h8M41 105h4M54 105h2M65 105h2M92 105h1M120 105h1M131 105h1M143 105h2M146 105h1M161 105h4M174 105h2M185 105h1M213 105h1M220 105h2M235 105h2M242 105h3M253 105h2M261 105h1M280 105h4M285 105h2M299 105h2M312 105h10M18 106h6M44 106h1M54 106h2M65 106h2M92 106h2M120 106h2M131 106h2M144 106h3M160 106h5M174 106h2M185 106h1M213 106h1M220 106h2M235 106h2M242 106h3M253 106h2M261 106h9M271 106h1M280 106h2M285 106h2M299 106h2M310 106h4M18 107h2M44 107h1M54 107h2M65 107h2M92 107h2M120 107h2M131 107h2M144 107h4M160 107h4M175 107h1M185 107h1M213 107h1M220 107h2M236 107h1M243 107h2M253 107h2M261 107h11M281 107h1M299 107h1M309 107h3M18 108h2M44 108h1M54 108h2M65 108h2M92 108h1M120 108h2M131 108h2M145 108h3M160 108h4M175 108h1M185 108h2M195 108h19M220 108h2M236 108h2M243 108h2M253 108h2M267 108h1M271 108h1M281 108h1M299 108h1M309 108h2M18 109h2M44 109h1M55 109h1M65 109h2M92 109h2M112 109h10M131 109h2M145 109h3M159 109h4M175 109h1M185 109h2M193 109h12M220 109h2M236 109h2M243 109h2M253 109h2M270 109h2M281 109h1M299 109h2M309 109h1M18 110h2M44 110h1M55 110h1M65 110h2M92 110h2M101 110h15M131 110h2M145 110h3M159 110h4M175 110h1M185 110h2M193 110h1M220 110h2M227 110h1M237 110h2M243 110h2M253 110h2M271 110h1M281 110h1M299 110h2M309 110h1M18 111h2M44 111h1M55 111h1M65 111h2M93 111h1M100 111h2M132 111h1M139 111h2M146 111h2M159 111h3M175 111h1M185 111h2M193 111h1M220 111h2M227 111h2M237 111h2M243 111h2M253 111h2M271 111h1M281 111h1M300 111h2M309 111h3M18 112h2M44 112h1M55 112h1M65 112h2M93 112h1M100 112h2M132 112h1M139 112h3M146 112h2M158 112h4M175 112h1M185 112h2M193 112h1M220 112h2M227 112h3M238 112h2M243 112h2M253 112h2M271 112h1M281 112h1M300 112h3M310 112h2M18 113h2M29 113h7M44 113h1M55 113h1M65 113h2M93 113h1M100 113h2M132 113h1M140 113h2M147 113h2M158 113h4M175 113h1M185 113h2M193 113h1M220 113h2M228 113h2M238 113h2M243 113h2M253 113h2M271 113h1M281 113h1M301 113h2M311 113h2M18 114h2M28 114h17M55 114h2M65 114h2M93 114h2M100 114h3M132 114h1M140 114h2M147 114h2M157 114h3M175 114h2M186 114h1M193 114h2M220 114h2M228 114h3M239 114h2M243 114h2M253 114h2M271 114h1M281 114h1M302 114h2M312 114h2M18 115h2M28 115h2M40 115h5M55 115h2M65 115h2M93 115h2M100 115h3M132 115h1M140 115h3M147 115h3M157 115h3M175 115h2M186 115h1M193 115h2M220 115h2M229 115h2M239 115h2M243 115h3M253 115h2M271 115h1M281 115h1M302 115h3M313 115h2M18 116h2M28 116h2M55 116h2M65 116h1M93 116h2M100 116h3M132 116h1M140 116h3M148 116h2M157 116h2M167 116h1M175 116h2M186 116h1M194 116h1M221 116h1M229 116h2M240 116h6M253 116h2M271 116h1M281 116h1M303 116h2M314 116h1M18 117h2M28 117h2M55 117h2M65 117h1M93 117h2M100 117h3M132 117h2M140 117h3M148 117h3M157 117h2M166 117h3M175 117h2M186 117h1M194 117h1M221 117h1M229 117h3M240 117h6M253 117h2M271 117h1M281 117h1M304 117h2M314 117h2M18 118h2M28 118h2M55 118h2M65 118h1M93 118h2M100 118h3M132 118h2M141 118h3M149 118h2M156 118h2M166 118h3M175 118h2M186 118h1M194 118h1M221 118h1M229 118h1M231 118h1M241 118h5M253 118h2M271 118h1M281 118h1M305 118h2M315 118h2M18 119h2M28 119h2M55 119h2M65 119h1M94 119h1M100 119h3M105 119h4M132 119h2M141 119h3M149 119h3M156 119h2M166 119h2M175 119h2M186 119h2M194 119h1M221 119h1M229 119h1M231 119h2M241 119h5M253 119h2M271 119h2M281 119h2M306 119h3M316 119h2M18 120h2M28 120h2M55 120h2M65 120h1M94 120h1M100 120h7M108 120h1M132 120h2M141 120h1M143 120h2M149 120h8M165 120h3M175 120h2M186 120h2M194 120h1M199 120h3M221 120h1M229 120h4M241 120h5M253 120h2M271 120h2M281 120h2M307 120h3M317 120h3M18 121h2M28 121h2M55 121h2M65 121h1M94 121h1M102 121h1M108 121h1M132 121h2M141 121h1M143 121h2M150 121h7M165 121h3M175 121h2M186 121h2M194 121h8M221 121h1M229 121h2M232 121h2M243 121h3M253 121h2M271 121h2M281 121h2M308 121h3M318 121h2M18 122h2M28 122h2M56 122h1M65 122h1M94 122h1M108 122h1M132 122h2M141 122h1M144 122h2M164 122h2M167 122h1M175 122h2M186 122h2M201 122h1M221 122h1M229 122h2M233 122h2M244 122h2M254 122h1M271 122h2M281 122h2M310 122h2M319 122h3M18 123h2M28 123h5M56 123h1M65 123h1M94 123h1M108 123h2M132 123h2M141 123h1M144 123h2M164 123h2M167 123h1M175 123h2M186 123h2M201 123h1M221 123h1M229 123h2M233 123h3M244 123h2M254 123h1M271 123h2M281 123h2M311 123h2M320 123h2M18 124h2M28 124h5M56 124h1M65 124h1M94 124h1M108 124h2M132 124h2M141 124h1M145 124h1M163 124h2M167 124h1M175 124h2M186 124h2M201 124h1M221 124h1M229 124h2M234 124h2M245 124h2M254 124h1M271 124h2M281 124h2M311 124h2M321 124h2M18 125h2M32 125h1M56 125h1M65 125h1M94 125h1M103 125h7M133 125h1M141 125h1M145 125h1M163 125h2M167 125h1M175 125h2M186 125h2M201 125h2M221 125h1M229 125h2M235 125h2M245 125h2M254 125h1M271 125h2M281 125h2M312 125h2M321 125h2M18 126h2M32 126h1M56 126h1M64 126h2M94 126h1M103 126h5M133 126h1M141 126h1M145 126h2M162 126h2M167 126h1M175 126h2M186 126h2M201 126h2M221 126h1M229 126h2M235 126h2M245 126h2M254 126h1M271 126h2M281 126h2M312 126h2M321 126h2M18 127h2M32 127h1M56 127h1M64 127h2M94 127h1M102 127h2M133 127h1M141 127h1M145 127h2M162 127h2M167 127h1M175 127h2M186 127h2M195 127h8M220 127h2M229 127h2M236 127h1M245 127h2M254 127h1M271 127h2M281 127h2M313 127h1M322 127h2M19 128h1M32 128h2M56 128h1M64 128h2M94 128h1M102 128h2M133 128h1M141 128h1M146 128h1M161 128h2M167 128h1M176 128h1M186 128h2M195 128h1M197 128h5M220 128h2M229 128h2M236 128h2M245 128h2M254 128h1M271 128h2M281 128h2M313 128h2M322 128h3M19 129h1M28 129h6M56 129h1M64 129h2M94 129h1M102 129h2M133 129h1M141 129h1M146 129h1M161 129h2M167 129h1M176 129h1M186 129h2M195 129h1M220 129h2M229 129h2M236 129h2M254 129h1M272 129h1M281 129h2M313 129h2M322 129h3M19 130h1M28 130h1M31 130h3M56 130h1M64 130h2M94 130h1M102 130h2M133 130h1M141 130h2M146 130h2M160 130h2M167 130h1M176 130h1M186 130h2M195 130h1M220 130h2M230 130h1M237 130h2M254 130h1M272 130h1M281 130h2M314 130h1M323 130h2M19 131h1M28 131h1M56 131h1M64 131h2M94 131h1M102 131h2M133 131h1M141 131h2M146 131h2M160 131h2M167 131h1M176 131h1M186 131h2M195 131h1M220 131h2M230 131h1M237 131h3M254 131h1M272 131h1M281 131h2M298 131h2M313 131h2M323 131h2M19 132h1M28 132h1M56 132h1M64 132h2M94 132h2M102 132h2M111 132h12M133 132h1M141 132h2M147 132h1M160 132h1M167 132h1M176 132h1M186 132h2M195 132h1M220 132h2M230 132h1M238 132h2M254 132h1M272 132h1M281 132h2M295 132h5M312 132h3M323 132h2M19 133h1M28 133h1M56 133h1M64 133h2M94 133h2M102 133h18M122 133h1M133 133h2M141 133h2M147 133h1M159 133h2M167 133h1M176 133h2M186 133h2M195 133h1M212 133h3M220 133h2M230 133h1M239 133h2M254 133h1M272 133h1M281 133h2M295 133h18M323 133h2M19 134h1M28 134h1M41 134h6M56 134h1M64 134h1M74 134h11M94 134h2M122 134h2M133 134h2M141 134h2M147 134h2M159 134h1M167 134h1M175 134h3M186 134h2M195 134h20M220 134h2M230 134h2M240 134h1M254 134h1M272 134h1M281 134h2M298 134h2M323 134h1M19 135h1M28 135h15M46 135h1M56 135h1M64 135h18M83 135h2M94 135h2M122 135h2M133 135h2M141 135h2M147 135h2M158 135h2M167 135h1M175 135h3M186 135h2M214 135h1M220 135h2M230 135h2M240 135h2M254 135h1M272 135h1M281 135h2M298 135h2M323 135h1M19 136h2M29 136h8M46 136h1M56 136h2M65 136h6M84 136h1M94 136h2M122 136h2M133 136h2M141 136h2M148 136h1M158 136h2M167 136h1M175 136h3M186 136h2M214 136h1M220 136h2M230 136h2M241 136h1M254 136h1M272 136h1M281 136h2M298 136h2M322 136h2M19 137h2M46 137h1M56 137h2M84 137h1M94 137h2M122 137h2M133 137h2M141 137h2M148 137h2M158 137h1M167 137h1M176 137h2M186 137h2M214 137h1M220 137h2M230 137h2M241 137h2M254 137h1M272 137h1M281 137h2M298 137h2M321 137h2M19 138h2M46 138h1M56 138h2M84 138h2M94 138h2M122 138h2M133 138h2M141 138h2M148 138h2M157 138h2M167 138h1M176 138h2M186 138h2M214 138h1M220 138h2M231 138h1M242 138h2M254 138h1M272 138h1M281 138h2M298 138h2M320 138h3M19 139h2M46 139h2M56 139h2M84 139h2M94 139h2M123 139h1M133 139h2M141 139h2M149 139h1M157 139h2M167 139h1M176 139h2M186 139h2M214 139h1M220 139h2M231 139h1M242 139h2M254 139h1M272 139h1M281 139h2M298 139h2M318 139h4M20 140h1M46 140h2M56 140h2M84 140h2M94 140h2M123 140h1M133 140h2M142 140h1M149 140h2M157 140h1M167 140h10M186 140h2M214 140h1M220 140h2M231 140h1M243 140h2M251 140h4M272 140h11M298 140h3M312 140h8M20 141h1M46 141h2M56 141h2M84 141h2M94 141h2M101 141h23M133 141h2M142 141h1M149 141h9M167 141h10M186 141h2M210 141h5M220 141h2M231 141h1M243 141h12M272 141h1M278 141h4M298 141h16M20 142h2M46 142h2M56 142h2M83 142h3M93 142h29M133 142h11M149 142h9M186 142h26M221 142h11M20 143h2M42 143h5M56 143h2M73 143h12M142 143h2M187 143h8M20 144h2M38 144h6M56 144h2M69 144h7M21 145h19M56 145h15M21 146h1" />
</svg>