<svg xmlns="http://www.w3.org/2000/svg" viewBox="0 -0.5 338 165" shape-rendering="crispEdges">
<path stroke="#7c1210" d="M161 12h8M160 13h2M168 13h2M159 14h2M169 14h2M158 15h2M170 15h2M55 16h3M157 16h2M171 16h2M199 16h5M208 16h9M254 16h3M270 16h3M285 16h3M299 16h10M54 17h2M57 17h2M156 17h2M172 17h2M198 17h2M203 17h1M207 17h2M216 17h3M253 17h2M256 17h2M269 17h2M272 17h2M284 17h2M287 17h2M297 17h3M308 17h8M54 18h1M58 18h1M156 18h1M162 18h4M173 18h1M198 18h1M203 18h2M206 18h2M218 18h2M253 18h1M257 18h1M269 18h1M273 18h1M284 18h1M288 18h1M297 18h1M315 18h5M53 19h2M58 19h1M156 19h1M161 19h2M165 19h2M173 19h1M198 19h1M204 19h3M219 19h2M252 19h2M257 19h1M268 19h2M273 19h1M283 19h2M288 19h1M297 19h1M319 19h2M53 20h1M58 20h1M156 20h1M166 20h2M173 20h1M198 20h1M204 20h2M220 20h2M252 20h1M257 20h1M268 20h1M273 20h1M283 20h1M288 20h1M297 20h1M320 20h1M53 21h1M58 21h1M156 21h1M167 21h1M173 21h1M198 21h1M204 21h1M210 21h5M221 21h2M252 21h1M257 21h1M268 21h1M273 21h1M283 21h1M288 21h1M297 21h1M320 21h1M53 22h1M58 22h1M156 22h2M167 22h1M173 22h1M198 22h1M209 22h2M214 22h2M222 22h1M252 22h1M257 22h1M268 22h1M273 22h1M283 22h1M288 22h1M297 22h1M320 22h1M53 23h1M58 23h1M157 23h1M166 23h2M173 23h1M198 23h1M208 23h2M215 23h2M222 23h1M252 23h1M257 23h1M268 23h1M273 23h1M283 23h1M288 23h1M297 23h1M304 23h12M319 23h2M53 24h1M58 24h1M157 24h2M166 24h1M172 24h2M198 24h1M207 24h2M216 24h1M222 24h1M252 24h1M257 24h1M268 24h1M273 24h1M283 24h1M288 24h1M297 24h1M303 24h2M315 24h5M48 25h6M58 25h7M158 25h2M165 25h2M172 25h1M198 25h1M207 25h1M216 25h1M222 25h1M247 25h6M257 25h12M273 25h7M283 25h1M288 25h1M297 25h1M303 25h1M47 26h2M64 26h2M159 26h8M171 26h2M198 26h1M206 26h2M216 26h1M222 26h1M246 26h2M262 26h2M279 26h2M283 26h1M288 26h1M297 26h1M303 26h1M47 27h1M65 27h1M165 27h1M171 27h1M198 27h1M205 27h2M216 27h1M222 27h1M246 27h1M262 27h1M280 27h1M283 27h1M288 27h1M297 27h1M303 27h1M47 28h1M65 28h1M165 28h1M170 28h2M198 28h1M205 28h1M215 28h2M221 28h2M246 28h1M262 28h1M280 28h1M283 28h1M288 28h1M297 28h1M303 28h1M47 29h2M63 29h3M164 29h2M170 29h1M198 29h1M205 29h1M215 29h1M220 29h2M246 29h2M262 29h2M278 29h3M283 29h1M288 29h1M297 29h1M303 29h1M48 30h6M58 30h6M164 30h1M169 30h2M198 30h1M204 30h2M214 30h2M220 30h1M247 30h6M257 30h12M273 30h6M283 30h1M288 30h1M297 30h1M303 30h1M53 31h1M58 31h1M163 31h2M169 31h1M198 31h1M204 31h1M213 31h2M219 31h2M252 31h1M257 31h1M268 31h1M273 31h1M283 31h1M288 31h1M297 31h1M303 31h1M53 32h1M58 32h1M163 32h1M168 32h2M198 32h1M204 32h1M212 32h2M219 32h1M252 32h1M257 32h1M268 32h1M273 32h1M283 32h1M288 32h1M297 32h1M303 32h1M53 33h1M58 33h1M162 33h2M168 33h1M198 33h1M204 33h1M211 33h2M218 33h2M252 33h1M257 33h1M268 33h1M273 33h1M283 33h1M288 33h1M297 33h1M303 33h1M53 34h1M58 34h1M162 34h1M167 34h2M198 34h1M204 34h1M209 34h3M217 34h2M252 34h1M257 34h1M268 34h1M273 34h1M283 34h1M288 34h1M297 34h1M303 34h1M53 35h1M58 35h1M71 35h6M89 35h5M99 35h6M113 35h5M121 35h4M141 35h7M150 35h3M161 35h2M167 35h1M198 35h1M204 35h1M208 35h2M216 35h2M232 35h7M241 35h3M252 35h1M257 35h1M268 35h1M273 35h1M283 35h1M288 35h1M297 35h1M303 35h2M53 36h1M58 36h1M70 36h2M76 36h2M88 36h2M93 36h1M97 36h3M104 36h2M113 36h1M117 36h1M120 36h1M124 36h3M140 36h2M147 36h4M152 36h2M161 36h1M166 36h2M198 36h1M204 36h1M207 36h2M215 36h2M231 36h2M238 36h4M243 36h2M252 36h1M257 36h1M268 36h1M273 36h1M283 36h1M288 36h1M297 36h1M304 36h4M53 37h1M58 37h1M69 37h2M77 37h2M88 37h1M93 37h2M96 37h2M105 37h2M112 37h2M117 37h1M119 37h2M126 37h2M139 37h2M148 37h2M153 37h1M161 37h1M166 37h1M198 37h1M204 37h1M206 37h2M214 37h2M230 37h2M239 37h2M244 37h1M252 37h1M257 37h1M268 37h1M273 37h1M283 37h1M288 37h1M297 37h1M307 37h9M53 38h1M58 38h1M68 38h2M78 38h2M88 38h1M94 38h3M106 38h2M112 38h1M117 38h3M127 38h2M139 38h1M153 38h1M161 38h1M166 38h1M198 38h1M204 38h3M213 38h2M230 38h1M244 38h1M252 38h1M257 38h1M268 38h1M273 38h1M283 38h1M288 38h1M297 38h1M315 38h2M53 39h1M58 39h1M68 39h1M79 39h1M88 39h1M94 39h2M107 39h1M112 39h1M117 39h2M128 39h1M138 39h2M153 39h1M161 39h1M166 39h1M198 39h1M204 39h2M212 39h2M229 39h2M244 39h1M252 39h1M257 39h1M268 39h1M273 39h1M283 39h1M288 39h1M297 39h1M316 39h1M53 40h1M58 40h1M67 40h2M72 40h4M79 40h2M88 40h1M94 40h1M100 40h4M107 40h1M112 40h1M117 40h1M128 40h2M138 40h1M144 40h3M153 40h1M161 40h1M166 40h1M198 40h1M204 40h1M211 40h6M229 40h1M235 40h3M244 40h1M252 40h1M257 40h1M268 40h1M273 40h1M283 40h1M288 40h1M297 40h1M316 40h1M53 41h1M58 41h1M67 41h1M72 41h1M75 41h1M80 41h1M88 41h1M98 41h3M103 41h1M106 41h2M111 41h2M121 41h4M129 41h1M137 41h2M143 41h2M146 41h2M153 41h1M161 41h1M166 41h1M198 41h1M216 41h4M228 41h2M234 41h2M237 41h2M244 41h1M252 41h1M257 41h1M268 41h1M273 41h1M283 41h1M288 41h1M297 41h1M315 41h2M53 42h1M58 42h1M67 42h1M71 42h2M75 42h2M80 42h1M88 42h1M97 42h2M103 42h4M111 42h1M120 42h1M124 42h1M129 42h1M137 42h1M143 42h1M147 42h2M153 42h1M161 42h1M166 42h1M198 42h1M219 42h1M228 42h1M234 42h1M238 42h2M244 42h1M252 42h1M257 42h1M268 42h1M273 42h1M283 42h1M288 42h1M297 42h1M305 42h11M53 43h1M58 43h1M66 43h2M71 43h1M76 43h1M80 43h1M88 43h1M96 43h2M111 43h1M119 43h2M124 43h2M129 43h2M137 43h1M142 43h2M148 43h1M153 43h1M161 43h1M166 43h1M198 43h1M219 43h2M228 43h1M233 43h2M239 43h1M244 43h1M252 43h1M257 43h1M268 43h1M273 43h1M283 43h1M288 43h1M297 43h1M304 43h2M53 44h1M58 44h1M66 44h1M71 44h1M76 44h1M80 44h1M88 44h1M95 44h2M111 44h1M118 44h2M125 44h1M130 44h1M136 44h2M142 44h1M148 44h1M153 44h1M161 44h1M166 44h1M198 44h1M205 44h8M220 44h2M227 44h2M233 44h1M239 44h1M244 44h1M252 44h1M257 44h1M268 44h1M273 44h1M283 44h1M288 44h1M297 44h1M304 44h1M53 45h1M58 45h1M66 45h1M71 45h6M80 45h1M88 45h1M94 45h2M111 45h1M117 45h2M125 45h1M130 45h1M136 45h1M141 45h2M148 45h1M153 45h1M161 45h1M166 45h1M198 45h1M204 45h2M212 45h2M221 45h1M227 45h1M232 45h2M239 45h1M244 45h1M252 45h1M257 45h1M268 45h1M273 45h1M283 45h1M288 45h1M297 45h1M304 45h1M53 46h1M58 46h1M65 46h2M80 46h1M88 46h1M94 46h1M111 46h1M117 46h1M125 46h1M130 46h1M136 46h1M141 46h1M148 46h1M153 46h1M161 46h1M166 46h1M198 46h2M204 46h1M213 46h2M221 46h1M227 46h1M232 46h1M239 46h1M244 46h1M252 46h1M257 46h1M268 46h1M273 46h1M283 46h1M288 46h1M297 46h2M304 46h1M53 47h1M58 47h1M65 47h1M80 47h1M88 47h1M94 47h1M111 47h1M116 47h2M125 47h1M130 47h1M136 47h1M141 47h1M148 47h1M153 47h1M161 47h1M166 47h1M199 47h1M204 47h1M214 47h2M221 47h1M227 47h1M232 47h1M239 47h1M244 47h1M252 47h1M257 47h1M268 47h1M273 47h1M283 47h1M288 47h1M298 47h1M304 47h1M53 48h1M58 48h1M65 48h1M79 48h2M88 48h1M94 48h1M111 48h1M116 48h1M125 48h1M130 48h1M136 48h1M141 48h1M148 48h1M153 48h1M161 48h1M166 48h1M199 48h1M204 48h1M215 48h1M221 48h1M227 48h1M232 48h1M239 48h1M244 48h1M252 48h1M257 48h1M268 48h1M273 48h1M283 48h1M288 48h1M298 48h1M304 48h1M53 49h1M58 49h1M65 49h1M69 49h11M88 49h1M94 49h1M111 49h1M116 49h1M125 49h1M130 49h1M136 49h1M141 49h1M148 49h1M153 49h1M161 49h1M166 49h2M199 49h1M204 49h1M215 49h1M221 49h1M227 49h1M232 49h1M239 49h1M244 49h1M252 49h1M257 49h1M268 49h1M273 49h1M283 49h1M288 49h1M298 49h1M304 49h1M53 50h1M58 50h1M65 50h1M69 50h1M88 50h1M94 50h1M111 50h1M116 50h1M125 50h1M130 50h1M136 50h1M141 50h1M148 50h1M153 50h1M161 50h2M167 50h1M199 50h1M204 50h2M215 50h1M221 50h1M227 50h1M232 50h1M239 50h1M244 50h1M252 50h1M257 50h1M268 50h1M273 50h1M283 50h1M288 50h1M298 50h1M304 50h1M53 51h1M58 51h1M65 51h1M69 51h1M79 51h4M88 51h1M94 51h1M111 51h1M116 51h1M125 51h1M130 51h1M136 51h1M141 51h1M148 51h1M153 51h1M162 51h1M167 51h1M199 51h1M205 51h1M214 51h2M220 51h2M227 51h1M232 51h1M239 51h1M244 51h1M252 51h1M257 51h1M268 51h1M273 51h1M283 51h1M288 51h1M298 51h1M304 51h1M53 52h1M58 52h1M65 52h1M69 52h1M79 52h1M82 52h1M88 52h1M94 52h1M111 52h1M116 52h1M125 52h1M130 52h1M136 52h1M141 52h1M147 52h2M153 52h2M162 52h1M167 52h1M199 52h2M205 52h1M213 52h2M220 52h1M227 52h1M232 52h1M238 52h2M244 52h2M252 52h1M257 52h1M268 52h1M273 52h1M283 52h1M288 52h1M298 52h1M304 52h1M53 53h1M58 53h1M65 53h1M69 53h1M78 53h2M82 53h1M88 53h2M94 53h2M111 53h1M116 53h1M125 53h1M130 53h1M136 53h1M141 53h2M146 53h2M154 53h1M162 53h1M167 53h1M200 53h1M205 53h1M212 53h2M219 53h2M227 53h1M232 53h2M237 53h2M245 53h1M252 53h1M257 53h1M268 53h1M273 53h1M283 53h1M288 53h1M298 53h2M304 53h2M316 53h5M53 54h2M58 54h1M65 54h1M69 54h2M77 54h2M82 54h1M89 54h1M95 54h1M111 54h1M116 54h1M125 54h1M130 54h1M136 54h2M142 54h2M145 54h2M154 54h1M162 54h2M167 54h1M200 54h1M205 54h1M211 54h2M219 54h1M227 54h2M233 54h2M236 54h2M245 54h1M252 54h2M257 54h1M268 54h2M273 54h1M283 54h2M288 54h1M299 54h1M305 54h12M320 54h2M54 55h1M58 55h2M65 55h1M70 55h2M77 55h1M82 55h1M89 55h1M95 55h1M111 55h1M116 55h2M125 55h1M130 55h1M137 55h1M143 55h3M154 55h2M163 55h1M167 55h2M200 55h1M205 55h1M210 55h2M218 55h2M228 55h1M234 55h3M245 55h2M253 55h1M257 55h2M269 55h1M273 55h2M284 55h1M288 55h2M299 55h1M321 55h1M54 56h2M59 56h1M65 56h2M71 56h2M76 56h2M81 56h2M89 56h1M95 56h1M111 56h1M117 56h1M125 56h1M130 56h1M137 56h1M150 56h1M155 56h1M163 56h2M168 56h1M200 56h1M205 56h6M217 56h2M228 56h1M241 56h1M246 56h1M253 56h2M258 56h1M269 56h2M274 56h1M284 56h2M289 56h1M299 56h1M321 56h1M55 57h1M59 57h1M66 57h1M72 57h5M80 57h2M89 57h2M95 57h1M111 57h2M117 57h1M125 57h1M130 57h1M137 57h2M149 57h2M155 57h1M164 57h1M168 57h1M200 57h1M216 57h2M228 57h2M240 57h2M246 57h1M254 57h1M258 57h1M270 57h1M274 57h1M285 57h1M289 57h1M299 57h1M321 57h1M55 58h1M59 58h1M66 58h2M80 58h1M90 58h1M95 58h1M112 58h1M117 58h1M125 58h1M130 58h1M138 58h2M148 58h3M155 58h1M164 58h1M168 58h1M200 58h1M215 58h2M229 58h2M239 58h3M246 58h1M254 58h1M258 58h1M270 58h1M274 58h1M285 58h1M289 58h1M299 58h1M320 58h2M55 59h2M59 59h1M67 59h2M79 59h2M90 59h1M95 59h1M112 59h1M117 59h1M125 59h1M130 59h1M139 59h2M147 59h2M150 59h1M155 59h1M164 59h2M168 59h1M200 59h2M212 59h4M230 59h2M238 59h2M241 59h1M246 59h1M254 59h2M258 59h1M270 59h2M274 59h1M285 59h2M289 59h1M299 59h2M319 59h2M56 60h1M59 60h1M68 60h2M78 60h2M90 60h2M94 60h2M112 60h2M116 60h2M125 60h2M129 60h2M140 60h3M146 60h2M150 60h2M154 60h2M165 60h1M168 60h1M201 60h1M210 60h3M231 60h3M237 60h2M241 60h2M245 60h2M255 60h1M258 60h1M271 60h1M274 60h1M286 60h1M289 60h1M300 60h2M312 60h8M56 61h4M69 61h10M91 61h4M113 61h4M126 61h4M141 61h6M151 61h4M165 61h4M201 61h10M232 61h6M242 61h4M255 61h4M271 61h4M286 61h4M301 61h12M172 68h3M188 68h3M195 68h3M171 69h2M174 69h2M188 69h1M190 69h1M195 69h1M197 69h1M171 70h1M175 70h1M188 70h1M190 70h1M195 70h1M197 70h1M171 71h1M173 71h3M188 71h1M190 71h1M195 71h1M197 71h1M171 72h1M173 72h1M188 72h1M190 72h1M195 72h1M197 72h1M171 73h1M173 73h1M188 73h1M190 73h1M195 73h1M197 73h1M171 74h1M173 74h1M188 74h1M190 74h1M195 74h1M197 74h1M171 75h1M173 75h1M186 75h3M190 75h3M195 75h1M197 75h1M159 76h7M171 76h1M173 76h1M186 76h1M192 76h1M195 76h1M197 76h6M158 77h2M165 77h2M171 77h1M173 77h1M186 77h3M190 77h3M195 77h1M202 77h2M158 78h1M161 78h3M166 78h1M171 78h1M173 78h1M188 78h1M190 78h1M195 78h1M198 78h2M203 78h1M158 79h1M160 79h2M163 79h2M166 79h1M169 79h3M173 79h3M188 79h1M190 79h1M195 79h1M197 79h2M200 79h1M203 79h1M158 80h1M160 80h1M164 80h1M166 80h1M169 80h1M175 80h1M188 80h1M190 80h1M195 80h1M197 80h1M203 80h1M158 81h1M160 81h1M164 81h1M166 81h1M169 81h3M173 81h3M188 81h1M190 81h1M195 81h1M197 81h1M201 81h1M203 81h1M158 82h1M160 82h1M164 82h1M166 82h1M171 82h1M173 82h1M188 82h1M190 82h1M195 82h1M197 82h1M201 82h1M203 82h1M158 83h1M160 83h1M164 83h1M166 83h1M171 83h1M173 83h1M201 83h1M203 83h1M158 84h1M160 84h1M164 84h1M166 84h1M171 84h1M173 84h1M190 84h1M158 85h1M160 85h2M163 85h2M166 85h1M171 85h1M173 85h1M188 85h1M190 85h3M195 85h1M197 85h1M201 85h1M203 85h1M158 86h1M161 86h3M166 86h1M171 86h1M188 86h1M192 86h1M195 86h1M197 86h1M201 86h1M203 86h1M158 87h2M165 87h2M188 87h2M191 87h2M195 87h1M197 87h1M201 87h1M203 87h1M159 88h7M172 88h2M189 88h3M195 88h3M201 88h3" />
<path stroke="#e2660e" d="M162 13h6M161 14h8M160 15h10M159 16h12M25 17h8M56 17h1M158 17h14M200 17h3M209 17h7M255 17h1M271 17h1M286 17h1M300 17h8M23 18h17M55 18h3M157 18h5M166 18h7M199 18h4M208 18h10M254 18h3M270 18h3M285 18h3M298 18h17M23 19h21M55 19h3M157 19h4M163 19h2M167 19h6M199 19h5M207 19h12M254 19h3M270 19h3M285 19h3M298 19h21M23 20h22M54 20h4M157 20h9M168 20h5M199 20h5M206 20h14M253 20h4M269 20h4M284 20h4M298 20h22M23 21h22M54 21h4M157 21h10M168 21h5M199 21h5M205 21h5M215 21h6M253 21h4M269 21h4M284 21h4M298 21h22M23 22h22M54 22h4M158 22h9M168 22h5M199 22h10M216 22h6M253 22h4M269 22h4M284 22h4M298 22h22M23 23h6M41 23h3M54 23h4M158 23h8M168 23h5M199 23h9M217 23h5M253 23h4M269 23h4M284 23h4M298 23h6M316 23h3M23 24h5M54 24h4M159 24h7M167 24h5M199 24h8M217 24h5M253 24h4M269 24h4M284 24h4M298 24h5M23 25h5M54 25h4M160 25h5M167 25h5M199 25h8M217 25h5M253 25h4M269 25h4M284 25h4M298 25h5M23 26h5M49 26h15M167 26h4M199 26h7M217 26h5M248 26h14M264 26h15M284 26h4M298 26h5M23 27h5M48 27h17M166 27h5M199 27h6M217 27h5M247 27h15M263 27h17M284 27h4M298 27h5M23 28h5M48 28h17M166 28h4M199 28h6M217 28h4M247 28h15M263 28h17M284 28h4M298 28h5M23 29h5M49 29h14M166 29h4M199 29h6M216 29h4M248 29h14M264 29h14M284 29h4M298 29h5M23 30h5M54 30h4M165 30h4M199 30h5M216 30h4M253 30h4M269 30h4M284 30h4M298 30h5M23 31h5M54 31h4M165 31h4M199 31h5M215 31h4M253 31h4M269 31h4M284 31h4M298 31h5M23 32h5M54 32h4M164 32h4M199 32h5M214 32h5M253 32h4M269 32h4M284 32h4M298 32h5M23 33h5M54 33h4M164 33h4M199 33h5M213 33h5M253 33h4M269 33h4M284 33h4M298 33h5M23 34h5M54 34h4M163 34h4M199 34h5M212 34h5M253 34h4M269 34h4M284 34h4M298 34h5M23 35h5M54 35h4M163 35h4M199 35h5M210 35h6M253 35h4M269 35h4M284 35h4M298 35h5M23 36h6M54 36h4M72 36h4M90 36h3M100 36h4M114 36h3M122 36h2M142 36h5M151 36h1M162 36h4M199 36h5M209 36h6M233 36h5M242 36h1M253 36h4M269 36h4M284 36h4M298 36h6M23 37h9M54 37h4M71 37h6M89 37h4M98 37h7M114 37h3M121 37h5M141 37h7M150 37h3M162 37h4M199 37h5M208 37h6M232 37h7M241 37h3M253 37h4M269 37h4M284 37h4M298 37h9M23 38h17M54 38h4M70 38h8M89 38h5M97 38h9M113 38h4M120 38h7M140 38h13M162 38h4M199 38h5M207 38h6M231 38h13M253 38h4M269 38h4M284 38h4M298 38h17M23 39h18M54 39h4M69 39h10M89 39h5M96 39h11M113 39h4M119 39h9M140 39h13M162 39h4M199 39h5M206 39h6M231 39h13M253 39h4M269 39h4M284 39h4M298 39h18M23 40h18M54 40h4M69 40h3M76 40h3M89 40h5M95 40h5M104 40h3M113 40h4M118 40h10M139 40h5M147 40h6M162 40h4M199 40h5M205 40h6M230 40h5M238 40h6M253 40h4M269 40h4M284 40h4M298 40h18M23 41h17M54 41h4M68 41h4M76 41h4M89 41h9M104 41h2M113 41h8M125 41h4M139 41h4M148 41h5M162 41h4M199 41h17M230 41h4M239 41h5M253 41h4M269 41h4M284 41h4M298 41h17M23 42h7M54 42h4M68 42h3M77 42h3M89 42h8M112 42h8M125 42h4M138 42h5M149 42h4M162 42h4M199 42h20M229 42h5M240 42h4M253 42h4M269 42h4M284 42h4M298 42h7M23 43h6M54 43h4M68 43h3M77 43h3M89 43h7M112 43h7M126 43h3M138 43h4M149 43h4M162 43h4M199 43h20M229 43h4M240 43h4M253 43h4M269 43h4M284 43h4M298 43h6M23 44h6M54 44h4M67 44h4M77 44h3M89 44h6M112 44h6M126 44h4M138 44h4M149 44h4M162 44h4M199 44h6M213 44h7M229 44h4M240 44h4M253 44h4M269 44h4M284 44h4M298 44h6M23 45h6M54 45h4M67 45h4M77 45h3M89 45h5M112 45h5M126 45h4M137 45h4M149 45h4M162 45h4M199 45h5M214 45h7M228 45h4M240 45h4M253 45h4M269 45h4M284 45h4M298 45h6M24 46h5M54 46h4M67 46h13M89 46h5M112 46h5M126 46h4M137 46h4M149 46h4M162 46h4M200 46h4M215 46h6M228 46h4M240 46h4M253 46h4M269 46h4M284 46h4M299 46h5M24 47h5M54 47h4M66 47h14M89 47h5M112 47h4M126 47h4M137 47h4M149 47h4M162 47h4M200 47h4M216 47h5M228 47h4M240 47h4M253 47h4M269 47h4M284 47h4M299 47h5M24 48h5M54 48h4M66 48h13M89 48h5M112 48h4M126 48h4M137 48h4M149 48h4M162 48h4M200 48h4M216 48h5M228 48h4M240 48h4M253 48h4M269 48h4M284 48h4M299 48h5M24 49h5M54 49h4M66 49h3M89 49h5M112 49h4M126 49h4M137 49h4M149 49h4M162 49h4M200 49h4M216 49h5M228 49h4M240 49h4M253 49h4M269 49h4M284 49h4M299 49h5M24 50h5M54 50h4M66 50h3M89 50h5M112 50h4M126 50h4M137 50h4M149 50h4M163 50h4M200 50h4M216 50h5M228 50h4M240 50h4M253 50h4M269 50h4M284 50h4M299 50h5M24 51h5M54 51h4M66 51h3M89 51h5M112 51h4M126 51h4M137 51h4M149 51h4M163 51h4M200 51h5M216 51h4M228 51h4M240 51h4M253 51h4M269 51h4M284 51h4M299 51h5M24 52h5M54 52h4M66 52h3M80 52h2M89 52h5M112 52h4M126 52h4M137 52h4M149 52h4M163 52h4M201 52h4M215 52h5M228 52h4M240 52h4M253 52h4M269 52h4M284 52h4M299 52h5M25 53h4M54 53h4M66 53h3M80 53h2M90 53h4M112 53h4M126 53h4M137 53h4M148 53h6M163 53h4M201 53h4M214 53h5M228 53h4M239 53h6M253 53h4M269 53h4M284 53h4M300 53h4M25 54h5M42 54h3M55 54h3M66 54h3M79 54h3M90 54h5M112 54h4M126 54h4M138 54h4M147 54h7M164 54h3M201 54h4M213 54h6M229 54h4M238 54h7M254 54h3M270 54h3M285 54h3M300 54h5M317 54h3M25 55h21M55 55h3M66 55h4M78 55h4M90 55h5M112 55h4M126 55h4M138 55h5M146 55h8M164 55h3M201 55h4M212 55h6M229 55h5M237 55h8M254 55h3M270 55h3M285 55h3M300 55h21M25 56h21M56 56h3M67 56h4M78 56h3M90 56h5M112 56h5M126 56h4M138 56h12M151 56h4M165 56h3M201 56h4M211 56h6M229 56h12M242 56h4M255 56h3M271 56h3M286 56h3M300 56h21M25 57h21M56 57h3M67 57h5M77 57h3M91 57h4M113 57h4M126 57h4M139 57h10M151 57h4M165 57h3M201 57h15M230 57h10M242 57h4M255 57h3M271 57h3M286 57h3M300 57h21M25 58h20M56 58h3M68 58h12M91 58h4M113 58h4M126 58h4M140 58h8M151 58h4M165 58h3M201 58h14M231 58h8M242 58h4M255 58h3M271 58h3M286 58h3M300 58h20M26 59h18M57 59h2M69 59h10M91 59h4M113 59h4M126 59h4M141 59h6M151 59h4M166 59h2M202 59h10M232 59h6M242 59h4M256 59h2M272 59h2M287 59h2M301 59h18M27 60h10M57 60h2M70 60h8M92 60h2M114 60h2M127 60h2M143 60h3M152 60h2M166 60h2M202 60h8M234 60h3M243 60h2M256 60h2M272 60h2M287 60h2M302 60h10M173 69h1M189 69h1M196 69h1M172 70h3M189 70h1M196 70h1M172 71h1M189 71h1M196 71h1M172 72h1M189 72h1M196 72h1M172 73h1M189 73h1M196 73h1M172 74h1M189 74h1M196 74h1M172 75h1M189 75h1M196 75h1M172 76h1M187 76h5M196 76h1M160 77h5M172 77h1M189 77h1M196 77h6M159 78h2M164 78h2M172 78h1M189 78h1M196 78h2M201 78h2M159 79h1M165 79h1M172 79h1M189 79h1M196 79h1M202 79h1M159 80h1M165 80h1M170 80h5M189 80h1M196 80h1M202 80h1M159 81h1M165 81h1M172 81h1M189 81h1M196 81h1M202 81h1M159 82h1M165 82h1M172 82h1M189 82h1M196 82h1M202 82h1M159 83h1M165 83h1M172 83h1M189 83h1M196 83h1M202 83h1M159 84h1M165 84h1M172 84h1M189 84h1M196 84h1M202 84h1M159 85h1M165 85h1M172 85h1M189 85h1M196 85h1M202 85h1M159 86h2M164 86h2M172 86h1M189 86h3M196 86h1M202 86h1M160 87h5M172 87h1M190 87h1M196 87h1M202 87h1M52 101h7M126 101h14M157 101h14M218 101h11M244 101h7M261 101h27M51 102h9M125 102h16M156 102h16M217 102h13M243 102h9M260 102h29M50 103h11M124 103h18M155 103h18M216 103h15M242 103h11M259 103h31M50 104h11M124 104h18M155 104h18M216 104h15M242 104h11M259 104h31M50 105h11M124 105h19M154 105h19M216 105h16M242 105h11M259 105h31M50 106h11M124 106h19M154 106h19M216 106h16M242 106h11M259 106h31M50 107h11M124 107h20M153 107h20M216 107h17M242 107h11M259 107h31M50 108h11M124 108h20M153 108h20M216 108h17M242 108h11M259 108h31M50 109h11M124 109h21M152 109h21M216 109h18M242 109h11M259 109h31M50 110h11M124 110h21M152 110h21M216 110h18M242 110h11M260 110h29M50 111h11M124 111h22M151 111h22M216 111h19M242 111h11M261 111h27M50 112h11M124 112h22M151 112h22M216 112h19M242 112h11M268 112h13M50 113h11M124 113h23M150 113h23M216 113h20M242 113h11M269 113h11M50 114h11M124 114h23M150 114h23M216 114h20M242 114h11M269 114h11M50 115h11M124 115h24M149 115h24M216 115h21M242 115h11M269 115h11M50 116h11M124 116h49M216 116h21M242 116h11M269 116h11M50 117h11M124 117h49M216 117h22M242 117h11M269 117h11M50 118h11M124 118h49M216 118h22M242 118h11M269 118h11M50 119h11M124 119h49M216 119h23M242 119h11M269 119h11M50 120h11M124 120h49M216 120h23M242 120h11M269 120h11M50 121h11M124 121h49M216 121h37M269 121h11M50 122h11M124 122h49M216 122h37M269 122h11M50 123h11M124 123h49M216 123h37M269 123h11M50 124h11M124 124h49M216 124h37M269 124h11M50 125h11M124 125h11M136 125h25M162 125h11M216 125h11M230 125h23M269 125h11M50 126h11M124 126h11M136 126h25M162 126h11M216 126h11M230 126h23M269 126h11M50 127h11M124 127h11M137 127h23M162 127h11M216 127h11M231 127h22M269 127h11M50 128h11M124 128h11M137 128h23M162 128h11M216 128h11M231 128h22M269 128h11M50 129h11M124 129h11M138 129h21M162 129h11M216 129h11M232 129h21M269 129h11M50 130h11M124 130h11M138 130h21M162 130h11M216 130h11M232 130h21M269 130h11M50 131h11M124 131h11M139 131h19M162 131h11M216 131h11M233 131h20M269 131h11M50 132h11M124 132h11M139 132h19M162 132h11M216 132h11M233 132h20M269 132h11M50 133h12M124 133h11M140 133h17M162 133h11M216 133h11M234 133h19M269 133h11M50 134h29M124 134h11M140 134h17M162 134h11M216 134h11M234 134h19M269 134h11M50 135h30M124 135h11M141 135h15M162 135h11M216 135h11M235 135h18M269 135h11M50 136h31M124 136h11M141 136h15M162 136h11M216 136h11M235 136h18M269 136h11M50 137h31M124 137h11M142 137h13M162 137h11M216 137h11M236 137h17M269 137h11M50 138h31M124 138h11M142 138h13M162 138h11M216 138h11M236 138h17M269 138h11M50 139h31M124 139h11M143 139h11M162 139h11M216 139h11M237 139h16M269 139h11M50 140h31M124 140h11M143 140h11M162 140h11M216 140h11M237 140h16M269 140h11M50 141h31M124 141h11M144 141h9M162 141h11M216 141h11M238 141h15M269 141h11M50 142h31M124 142h11M144 142h9M162 142h11M216 142h11M238 142h15M269 142h11M51 143h29M125 143h9M145 143h7M163 143h9M217 143h9M239 143h13M270 143h9M52 144h27M126 144h7M146 144h5M164 144h7M218 144h7M240 144h11M271 144h7" />
<path stroke="#821d1a" d="M24 16h10M22 17h3M33 17h8M22 18h1M40 18h5M22 19h1M44 19h2M22 20h1M45 20h1M22 21h1M45 21h1M22 22h1M45 22h1M22 23h1M29 23h12M44 23h2M22 24h1M28 24h2M40 24h5M22 25h1M28 25h1M22 26h1M28 26h1M22 27h1M28 27h1M22 28h1M28 28h1M22 29h1M28 29h1M22 30h1M28 30h1M22 31h1M28 31h1M22 32h1M28 32h1M22 33h1M28 33h1M22 34h1M28 34h1M22 35h1M28 35h2M22 36h1M29 36h4M22 37h1M32 37h9M22 38h1M40 38h2M22 39h1M41 39h1M22 40h1M41 40h1M22 41h1M40 41h2M22 42h1M30 42h11M22 43h1M29 43h2M22 44h1M29 44h1M22 45h1M29 45h1M22 46h2M29 46h1M23 47h1M29 47h1M23 48h1M29 48h1M23 49h1M29 49h1M23 50h1M29 50h1M23 51h1M29 51h1M23 52h1M29 52h1M23 53h2M29 53h2M41 53h5M24 54h1M30 54h12M45 54h2M24 55h1M46 55h1M24 56h1M46 56h1M24 57h1M46 57h1M24 58h1M45 58h2M24 59h2M44 59h2M25 60h2M37 60h8M26 61h12M51 100h9M125 100h16M156 100h16M50 101h2M59 101h2M124 101h2M140 101h2M155 101h2M171 101h2M49 102h2M60 102h2M123 102h2M141 102h2M154 102h2M172 102h2M49 103h1M61 103h1M123 103h1M142 103h1M154 103h1M173 103h1M49 104h1M61 104h1M123 104h1M142 104h2M153 104h2M173 104h1M49 105h1M61 105h1M123 105h1M143 105h1M153 105h1M173 105h1M49 106h1M61 106h1M123 106h1M143 106h2M152 106h2M173 106h1M49 107h1M61 107h1M123 107h1M144 107h1M152 107h1M173 107h1M49 108h1M61 108h1M123 108h1M144 108h2M151 108h2M173 108h1M49 109h1M61 109h1M123 109h1M145 109h1M151 109h1M173 109h1M49 110h1M61 110h1M123 110h1M145 110h2M150 110h2M173 110h1M49 111h1M61 111h1M123 111h1M146 111h1M150 111h1M173 111h1M49 112h1M61 112h1M123 112h1M146 112h2M149 112h2M173 112h1M49 113h1M61 113h1M123 113h1M147 113h1M149 113h1M173 113h1M49 114h1M61 114h1M123 114h1M147 114h3M173 114h1M49 115h1M61 115h1M123 115h1M148 115h1M173 115h1M49 116h1M61 116h1M123 116h1M173 116h1M49 117h1M61 117h1M123 117h1M173 117h1M49 118h1M61 118h1M123 118h1M173 118h1M49 119h1M61 119h1M123 119h1M173 119h1M49 120h1M61 120h1M123 120h1M173 120h1M49 121h1M61 121h1M123 121h1M173 121h1M49 122h1M61 122h1M123 122h1M173 122h1M49 123h1M61 123h1M123 123h1M173 123h1M49 124h1M61 124h1M123 124h1M173 124h1M49 125h1M61 125h1M123 125h1M135 125h1M161 125h1M173 125h1M49 126h1M61 126h1M123 126h1M135 126h1M161 126h1M173 126h1M49 127h1M61 127h1M123 127h1M135 127h2M160 127h2M173 127h1M49 128h1M61 128h1M123 128h1M135 128h2M160 128h2M173 128h1M49 129h1M61 129h1M123 129h1M135 129h3M159 129h3M173 129h1M49 130h1M61 130h1M123 130h1M135 130h1M137 130h1M159 130h1M161 130h1M173 130h1M49 131h1M61 131h1M123 131h1M135 131h1M137 131h2M158 131h2M161 131h1M173 131h1M49 132h1M61 132h2M123 132h1M135 132h1M138 132h1M158 132h1M161 132h1M173 132h1M49 133h1M62 133h18M123 133h1M135 133h1M138 133h2M157 133h2M161 133h1M173 133h1M49 134h1M79 134h2M123 134h1M135 134h1M139 134h1M157 134h1M161 134h1M173 134h1M49 135h1M80 135h2M123 135h1M135 135h1M139 135h2M156 135h2M161 135h1M173 135h1M49 136h1M81 136h1M123 136h1M135 136h1M140 136h1M156 136h1M161 136h1M173 136h1M49 137h1M81 137h1M123 137h1M135 137h1M140 137h2M155 137h2M161 137h1M173 137h1M49 138h1M81 138h1M123 138h1M135 138h1M141 138h1M155 138h1M161 138h1M173 138h1M49 139h1M81 139h1M123 139h1M135 139h1M141 139h2M154 139h2M161 139h1M173 139h1M49 140h1M81 140h1M123 140h1M135 140h1M142 140h1M154 140h1M161 140h1M173 140h1M49 141h1M81 141h1M123 141h1M135 141h1M142 141h2M153 141h2M161 141h1M173 141h1M49 142h1M81 142h1M123 142h1M135 142h1M143 142h1M153 142h1M161 142h1M173 142h1M49 143h2M80 143h2M123 143h2M134 143h2M143 143h2M152 143h2M161 143h2M172 143h2M50 144h2M79 144h2M124 144h2M133 144h2M144 144h2M151 144h2M162 144h2M171 144h2M51 145h29M125 145h9M145 145h7M163 145h9" />
<path stroke="#851a10" d="M121 36h1M121 42h1" />
<path stroke="#7c1516" d="M207 76h4M206 77h2M213 77h1M206 78h1M209 78h2M213 78h1M206 79h1M208 79h1M213 79h1M206 80h1M208 80h2M213 80h1M206 81h1M213 81h1M206 82h1M208 82h6M206 83h1M208 83h1M206 85h1M208 85h2M211 85h3M206 86h1M209 86h3M213 86h1M206 87h2M213 87h1M207 88h7" />
<path stroke="#7f1817" d="M211 76h2M212 77h1M211 79h1M210 80h2M206 84h1M208 84h1" />
<path stroke="#e48848" d="M208 77h4M207 78h2M211 78h2M207 79h1M212 79h1M207 80h1M212 80h1M207 81h6M207 82h1M207 83h1M207 84h1M207 85h1M207 86h2M212 86h1M208 87h5" />
<path stroke="#a20000" d="M32 78h1M32 79h1M30 81h1M29 82h1M28 83h1M24 84h1M27 84h1M24 85h1M27 85h1M30 85h1M27 86h2M31 86h1M21 87h1M28 87h1M32 87h2M21 88h1M23 88h1M29 88h1M34 88h1M22 89h1M24 89h1M29 89h2M34 89h1M41 89h2M24 90h1M28 90h1M34 90h1M40 90h2M21 91h1M24 91h1M27 91h1M35 91h1M39 91h1M17 92h1M20 92h1M25 92h1M27 92h1M35 92h1M38 92h1M41 92h1M47 92h1M15 93h2M20 93h1M25 93h1M27 93h1M35 93h1M37 93h1M40 93h1M46 93h1M14 94h1M20 94h1M25 94h1M28 94h1M35 94h1M37 94h1M40 94h1M45 94h2M13 95h1M16 95h1M20 95h1M25 95h1M28 95h1M35 95h3M40 95h1M44 95h1M46 95h1M12 96h1M19 96h1M26 96h1M29 96h1M35 96h1M41 96h1M43 96h1M46 96h1M11 97h1M17 97h3M26 97h3M42 97h1M45 97h1M10 98h1M42 98h1M45 98h1M10 99h1M45 99h1M10 100h1M46 100h1M10 101h1M47 101h1M11 102h1M33 102h1M47 102h1M25 103h1M47 103h1M45 104h2M45 105h1M42 106h1M16 109h1M33 109h1M20 117h1M28 122h1M35 122h1M17 123h1M14 125h1M45 126h1M42 127h1M46 127h1M33 128h1M42 128h1M47 128h1M28 129h1M31 129h1M34 129h1M41 129h1M43 129h1M45 129h1M47 129h1M28 130h1M30 130h1M34 130h1M39 130h2M43 130h2M47 130h1M27 131h1M29 131h2M35 131h1M38 131h1M47 131h1M27 132h1M36 132h2M47 132h1M14 133h1M47 133h1M46 134h1M23 135h1M46 135h1M7 136h1M46 136h1M7 137h2M46 137h1M7 138h1M9 138h1M22 138h1M32 138h1M40 138h1M45 138h1M7 139h1M10 139h1M8 140h1M11 140h1M7 141h1M7 142h1M8 143h1M16 143h1M9 144h3M41 144h1" />
<path stroke="#6e0f0e" d="M200 78h1" />
<path stroke="#75120e" d="M201 79h1" />
<path stroke="#7f1410" d="M201 80h1M188 83h1M190 83h1M195 83h1M197 83h1M188 84h1M195 84h1M197 84h1M201 84h1M203 84h1M173 86h1M171 87h1M173 87h1M171 88h1" />
<path stroke="#ff0000" d="M23 82h1M23 83h1M29 83h1M28 84h2M28 85h2M39 85h1M20 86h1M30 86h1M29 87h1M31 87h1M22 88h1M32 88h2M43 88h1M23 89h1M33 89h1M47 89h1M15 90h1M29 90h2M33 90h1M28 91h2M34 91h1M40 91h2M21 92h1M24 92h1M28 92h1M34 92h1M39 92h2M24 93h1M28 93h1M34 93h1M39 93h1M15 94h1M24 94h1M34 94h1M39 94h1M14 95h2M29 95h1M34 95h1M39 95h1M45 95h1M13 96h1M15 96h2M24 96h2M34 96h1M36 96h2M39 96h2M45 96h1M12 97h1M16 97h1M24 97h2M29 97h1M34 97h3M40 97h2M43 97h1M11 98h2M27 98h2M41 98h1M11 99h1M41 99h2M11 100h1M45 100h1M11 101h1M46 101h1M46 102h1M46 103h1M44 125h1M45 127h1M32 128h1M46 128h1M32 129h2M42 129h1M46 129h1M31 130h1M28 131h1M31 131h1M39 131h1M43 131h2M38 132h1M43 132h1M45 137h1M8 138h1M8 139h2M10 140h1M8 141h1M11 141h1M8 142h1M11 142h1M9 143h3" />
<path stroke="#ff5900" d="M29 86h1M30 87h1M30 88h2M31 89h2M22 90h2M31 90h2M22 91h2M30 91h4M22 92h2M29 92h2M32 92h2M21 93h3M29 93h1M33 93h1M38 93h1M21 94h1M23 94h1M29 94h2M33 94h1M38 94h1M21 95h1M23 95h2M30 95h1M33 95h1M38 95h1M14 96h1M20 96h1M23 96h1M30 96h1M33 96h1M38 96h1M44 96h1M13 97h3M30 97h1M33 97h1M37 97h1M39 97h1M44 97h1M13 98h1M15 98h4M25 98h2M29 98h1M34 98h3M40 98h1M43 98h1M12 99h1M26 99h3M35 99h1M12 100h1M12 101h1M45 101h1M45 103h1M32 130h2M41 130h2M45 130h2M33 131h2M40 131h1M42 131h1M28 132h2M34 132h2M39 132h1M44 132h1M46 133h1M45 136h1M9 140h1M9 141h1" />
<path stroke="#e9ba5f" d="M31 92h1M30 93h3M22 94h1M31 94h2M22 95h1M31 95h2M21 96h2M31 96h2M20 97h4M31 97h2M38 97h1M14 98h1M19 98h6M30 98h4M37 98h3M44 98h1M13 99h13M29 99h6M36 99h5M43 99h2M13 100h1M43 100h2M44 101h1M45 102h1M32 131h1M41 131h1M45 131h2M30 132h4M40 132h3M45 132h2M43 133h3M44 134h2M45 135h1M10 141h1M9 142h2" />
<path stroke="#7a0000" d="M14 100h29M13 101h2M42 101h2M12 102h2M43 102h2M12 103h1M44 103h1M12 104h1M44 104h1M12 105h1M44 105h1M12 106h1M44 106h1M12 107h1M44 107h1M12 108h1M44 108h1M12 109h1M44 109h1M12 110h1M43 110h2M12 111h1M42 111h2M12 112h1M25 112h18M12 113h1M24 113h2M12 114h1M24 114h1M12 115h1M24 115h1M12 116h1M24 116h2M12 117h1M25 117h11M12 118h1M35 118h2M12 119h1M36 119h1M12 120h1M36 120h1M12 121h1M36 121h1M12 122h1M36 122h1M12 123h1M36 123h1M12 124h1M36 124h1M12 125h1M36 125h1M12 126h1M35 126h2M12 127h1M25 127h11M12 128h1M24 128h2M12 129h1M24 129h1M12 130h1M24 130h1M12 131h1M24 131h1M12 132h1M24 132h2M12 133h1M25 133h18M12 134h1M42 134h2M12 135h1M43 135h2M12 136h1M44 136h1M12 137h1M44 137h1M12 138h1M44 138h1M12 139h1M44 139h1M12 140h1M44 140h1M12 141h1M44 141h1M12 142h1M44 142h1M12 143h2M43 143h2M13 144h2M42 144h2M14 145h29" />
<path stroke="#010100" d="M88 100h5M87 101h2M116 101h2M86 102h2M117 102h2M86 103h1M118 103h1M86 104h1M118 104h1M86 105h1M118 105h1M86 106h1M118 106h1M86 107h1M118 107h1M86 108h1M118 108h1M86 109h1M118 109h1M86 110h1M117 110h2M86 111h1M116 111h2M86 112h1M99 112h18M86 113h1M98 113h2M86 114h1M98 114h1M86 115h1M98 115h1M86 116h1M98 116h2M86 117h1M99 117h11M86 118h1M109 118h2M86 119h1M110 119h1M86 120h1M110 120h1M86 121h1M110 121h1M86 122h1M110 122h1M86 123h1M110 123h1M86 124h1M110 124h1M86 125h1M110 125h1M86 126h1M109 126h2M86 127h1M99 127h11M86 128h1M98 128h2M86 129h1M98 129h1M86 130h1M98 130h1M86 131h1M98 131h1M86 132h1M98 132h2M86 133h1M99 133h18M86 134h1M116 134h2M86 135h1M117 135h2M86 136h1M118 136h1M86 137h1M118 137h1M86 138h1M118 138h1M86 139h1M118 139h1M86 140h1M118 140h1M86 141h1M118 141h1M86 142h1M118 142h1M86 143h2M117 143h2M87 144h2M116 144h2M88 145h29" />
<path stroke="#000000" d="M93 100h24M180 100h29M217 100h13M243 100h9M260 100h29M300 100h25M179 101h2M208 101h2M216 101h2M229 101h2M242 101h2M251 101h2M259 101h2M288 101h2M298 101h3M324 101h2M178 102h2M209 102h2M215 102h2M241 102h2M252 102h2M258 102h2M289 102h2M297 102h2M325 102h2M178 103h1M210 103h1M215 103h1M241 103h1M253 103h1M258 103h1M290 103h1M296 103h2M326 103h1M178 104h1M210 104h1M215 104h1M232 104h1M241 104h1M253 104h1M258 104h1M290 104h1M296 104h1M326 104h1M178 105h1M210 105h1M215 105h1M232 105h1M241 105h1M253 105h1M258 105h1M290 105h1M295 105h2M326 105h1M178 106h1M210 106h1M215 106h1M232 106h2M241 106h1M253 106h1M258 106h1M290 106h1M295 106h1M326 106h1M178 107h1M210 107h1M215 107h1M233 107h1M241 107h1M253 107h1M258 107h1M290 107h1M295 107h1M326 107h1M178 108h1M210 108h1M215 108h1M233 108h2M241 108h1M253 108h1M258 108h1M290 108h1M295 108h1M326 108h1M178 109h1M210 109h1M215 109h1M234 109h1M241 109h1M253 109h1M258 109h1M290 109h1M295 109h1M326 109h1M178 110h1M209 110h2M215 110h1M234 110h2M241 110h1M253 110h1M258 110h2M289 110h2M295 110h1M325 110h2M178 111h1M208 111h2M215 111h1M235 111h1M241 111h1M253 111h1M259 111h2M288 111h2M295 111h1M324 111h2M178 112h1M191 112h18M215 112h1M235 112h2M241 112h1M253 112h1M260 112h8M281 112h8M295 112h1M311 112h14M178 113h1M190 113h2M215 113h1M236 113h1M241 113h1M253 113h1M267 113h2M280 113h2M295 113h1M310 113h2M178 114h1M190 114h1M215 114h1M236 114h2M241 114h1M253 114h1M268 114h1M280 114h1M295 114h1M310 114h1M178 115h1M190 115h1M215 115h1M237 115h1M241 115h1M253 115h1M268 115h1M280 115h1M295 115h2M310 115h1M178 116h1M190 116h2M215 116h1M237 116h2M241 116h1M253 116h1M268 116h1M280 116h1M296 116h1M310 116h2M178 117h1M191 117h11M215 117h1M238 117h1M241 117h1M253 117h1M268 117h1M280 117h1M296 117h2M311 117h3M178 118h1M201 118h2M215 118h1M238 118h2M241 118h1M253 118h1M268 118h1M280 118h1M297 118h1M313 118h2M178 119h1M202 119h1M215 119h1M239 119h1M241 119h1M253 119h1M268 119h1M280 119h1M297 119h2M314 119h3M178 120h1M202 120h1M215 120h1M239 120h3M253 120h1M268 120h1M280 120h1M298 120h2M316 120h3M178 121h1M202 121h1M215 121h1M253 121h1M268 121h1M280 121h1M299 121h2M318 121h2M178 122h1M202 122h1M215 122h1M253 122h1M268 122h1M280 122h1M300 122h2M319 122h2M178 123h1M202 123h1M215 123h1M253 123h1M268 123h1M280 123h1M301 123h2M320 123h2M178 124h1M202 124h1M215 124h1M253 124h1M268 124h1M280 124h1M302 124h2M321 124h2M178 125h1M202 125h1M215 125h1M227 125h3M253 125h1M268 125h1M280 125h1M303 125h3M322 125h2M178 126h1M201 126h2M215 126h1M227 126h1M229 126h1M253 126h1M268 126h1M280 126h1M305 126h3M323 126h2M178 127h1M191 127h11M215 127h1M227 127h1M229 127h2M253 127h1M268 127h1M280 127h1M307 127h2M324 127h1M178 128h1M190 128h2M215 128h1M227 128h1M230 128h1M253 128h1M268 128h1M280 128h1M308 128h3M324 128h2M178 129h1M190 129h1M215 129h1M227 129h1M230 129h2M253 129h1M268 129h1M280 129h1M310 129h2M325 129h1M178 130h1M190 130h1M215 130h1M227 130h1M231 130h1M253 130h1M268 130h1M280 130h1M311 130h1M325 130h2M178 131h1M190 131h1M215 131h1M227 131h1M231 131h2M253 131h1M268 131h1M280 131h1M311 131h1M326 131h1M178 132h1M190 132h2M215 132h1M227 132h1M232 132h1M253 132h1M268 132h1M280 132h1M310 132h2M326 132h1M178 133h1M191 133h18M215 133h1M227 133h1M232 133h2M253 133h1M268 133h1M280 133h1M298 133h13M326 133h1M178 134h1M208 134h2M215 134h1M227 134h1M233 134h1M253 134h1M268 134h1M280 134h1M297 134h1M326 134h1M178 135h1M209 135h2M215 135h1M227 135h1M233 135h2M253 135h1M268 135h1M280 135h1M296 135h1M326 135h1M178 136h1M210 136h1M215 136h1M227 136h1M234 136h1M253 136h1M268 136h1M280 136h1M326 136h1M178 137h1M210 137h1M215 137h1M227 137h1M234 137h2M253 137h1M268 137h1M280 137h1M326 137h1M178 138h1M210 138h1M215 138h1M227 138h1M235 138h1M253 138h1M268 138h1M280 138h1M326 138h1M178 139h1M210 139h1M215 139h1M227 139h1M235 139h2M253 139h1M268 139h1M280 139h1M325 139h2M178 140h1M210 140h1M215 140h1M227 140h1M236 140h1M253 140h1M268 140h1M280 140h1M325 140h1M178 141h1M210 141h1M215 141h1M227 141h1M236 141h2M253 141h1M268 141h1M280 141h1M324 141h2M178 142h1M210 142h1M215 142h1M227 142h1M237 142h1M253 142h1M268 142h1M280 142h1M323 142h2M178 143h2M209 143h2M215 143h2M226 143h2M237 143h2M252 143h2M268 143h2M279 143h2M295 143h2M322 143h2M179 144h2M208 144h2M216 144h2M225 144h2M238 144h2M251 144h2M269 144h2M278 144h2M296 144h2M320 144h3M180 145h29M217 145h9M239 145h13M270 145h9M297 145h24" />
<path stroke="#e55e20" d="M15 101h2M18 101h1M23 101h3M30 101h5M41 101h1M14 102h2M17 102h1M23 102h3M30 102h3M35 102h2M40 102h1M42 102h1M13 103h2M16 103h1M24 103h1M30 103h2M34 103h3M23 104h1M30 104h1M32 104h4M13 105h1M20 105h2M31 105h4M19 106h1M21 106h1M27 106h2M30 106h1M32 106h2M35 106h1M38 106h1M40 106h2M18 107h3M27 107h2M31 107h1M34 107h1M39 107h3M17 108h4M26 108h1M28 108h1M40 108h2M17 109h3M21 109h1M26 109h2M37 109h3M16 110h3M20 110h1M25 110h5M35 110h1M37 110h4M19 111h1M24 111h7M37 111h3M41 111h1M24 112h1M21 114h2M18 115h1M20 115h1M22 115h1M17 116h2M20 116h2M17 117h1M19 117h1M21 117h1M17 118h1M19 118h3M17 119h1M19 119h2M22 119h1M25 119h1M32 119h1M18 120h2M24 120h1M28 120h3M32 120h1M13 121h1M17 121h1M24 121h1M26 121h4M13 122h1M24 122h1M26 122h2M13 123h1M26 123h1M29 123h1M35 123h1M13 124h1M15 124h1M24 124h1M35 124h1M13 125h1M19 125h4M32 125h4M13 126h2M19 126h2M32 126h3M13 127h2M23 127h1M19 128h4M20 129h2M14 131h1M13 132h1M17 132h2M13 133h1M17 133h1M19 133h1M13 134h2M20 134h3M36 134h4M13 135h2M21 135h2M28 135h1M40 135h1M15 136h1M21 136h4M28 136h1M30 136h2M36 136h2M13 137h4M22 137h4M27 137h1M29 137h4M13 138h4M18 138h1M23 138h3M27 138h1M31 138h1M39 138h1M14 139h3M18 139h1M22 139h4M27 139h1M31 139h1M38 139h3M17 140h1M29 140h3M37 140h4M28 141h2M35 141h1M39 141h1M27 142h2M34 142h4M43 142h1M17 143h5M34 143h3M41 143h2M17 144h6M36 144h1" />
<path stroke="#ff970b" d="M17 101h1M22 101h1M26 101h1M35 101h2M40 101h1M16 102h1M22 102h1M26 102h1M29 102h1M34 102h1M37 102h1M41 102h1M15 103h1M23 103h1M26 103h1M29 103h1M32 103h2M37 103h1M42 103h1M13 104h3M24 104h3M29 104h1M31 104h1M36 104h2M19 105h1M30 105h1M35 105h1M39 105h4M17 106h2M20 106h1M31 106h1M34 106h1M39 106h1M17 107h1M21 107h1M26 107h1M32 107h2M38 107h1M42 107h1M16 108h1M21 108h1M25 108h1M27 108h1M29 108h1M37 108h3M42 108h1M15 109h1M20 109h1M25 109h1M28 109h3M36 109h1M40 109h2M15 110h1M19 110h1M24 110h1M30 110h2M36 110h1M41 110h1M15 111h4M23 111h1M31 111h1M36 111h1M40 111h1M23 112h1M18 114h3M16 115h2M19 115h1M21 115h1M16 116h1M19 116h1M22 116h1M16 117h1M18 117h1M22 117h1M16 118h1M18 118h1M22 118h1M16 119h1M18 119h1M21 119h1M26 119h6M13 120h2M16 120h2M20 120h2M25 120h3M31 120h1M14 121h1M18 121h3M25 121h1M30 121h1M14 122h1M25 122h1M29 122h2M34 122h1M14 123h1M24 123h2M27 123h2M34 123h1M14 124h1M19 124h3M25 124h4M32 124h3M15 125h1M18 125h1M23 125h1M31 125h1M15 126h1M18 126h1M21 126h3M31 126h1M15 127h1M18 127h5M13 128h3M18 128h1M23 128h1M18 129h2M22 129h2M19 130h3M13 131h1M14 132h1M15 133h1M18 133h1M20 133h3M15 134h1M18 134h2M23 134h1M35 134h1M40 134h1M15 135h1M19 135h2M24 135h1M29 135h4M35 135h5M13 136h2M16 136h1M20 136h1M25 136h1M29 136h1M32 136h1M17 137h1M21 137h1M26 137h1M33 137h1M39 137h3M17 138h1M21 138h1M26 138h1M30 138h1M38 138h1M41 138h1M13 139h1M17 139h1M26 139h1M30 139h1M32 139h1M37 139h1M41 139h1M14 140h3M21 140h5M35 140h2M41 140h1M22 141h1M30 141h1M34 141h1M36 141h3M40 141h1M43 141h1M15 142h7M29 142h2M33 142h1M38 142h2M42 142h1M15 143h1M22 143h1M26 143h4M33 143h1M37 143h2M16 144h1M23 144h1M33 144h3M40 144h1" />
<path stroke="#ffc900" d="M19 101h3M27 101h1M29 101h1M37 101h3M18 102h1M21 102h1M27 102h2M38 102h2M17 103h2M20 103h3M27 103h2M38 103h4M43 103h1M16 104h2M19 104h4M27 104h2M38 104h1M41 104h3M14 105h5M22 105h8M36 105h3M43 105h1M13 106h2M16 106h1M22 106h1M25 106h2M29 106h1M36 106h2M43 106h1M13 107h1M15 107h2M22 107h1M25 107h1M29 107h2M35 107h3M43 107h1M14 108h2M22 108h3M30 108h5M36 108h1M43 108h1M14 109h1M22 109h3M31 109h1M34 109h2M42 109h1M14 110h1M21 110h3M32 110h1M34 110h1M42 110h1M14 111h1M20 111h1M22 111h1M32 111h1M35 111h1M15 112h5M22 112h1M16 113h1M18 113h6M14 114h4M23 114h1M14 115h2M23 115h1M15 116h1M23 116h1M15 117h1M23 117h2M15 118h1M23 118h11M13 119h3M23 119h2M33 119h1M35 119h1M15 120h1M22 120h2M33 120h1M35 120h1M15 121h2M21 121h3M31 121h2M34 121h2M15 122h1M17 122h4M23 122h1M31 122h1M33 122h1M15 123h2M18 123h3M22 123h2M30 123h1M32 123h2M16 124h3M22 124h2M29 124h3M16 125h2M24 125h4M30 125h1M16 126h2M24 126h1M26 126h1M30 126h1M16 127h2M24 127h1M16 128h2M13 129h3M17 129h1M13 130h2M18 130h1M22 130h2M15 131h9M15 132h2M19 132h5M16 133h1M23 133h2M16 134h2M24 134h11M41 134h1M16 135h1M18 135h1M25 135h3M33 135h2M41 135h2M17 136h1M19 136h1M26 136h2M33 136h3M38 136h6M18 137h1M20 137h1M28 137h1M34 137h5M42 137h1M19 138h2M28 138h2M33 138h1M36 138h2M42 138h1M19 139h1M21 139h1M29 139h1M33 139h4M42 139h1M13 140h1M18 140h2M26 140h1M28 140h1M32 140h1M34 140h1M42 140h2M13 141h9M23 141h3M27 141h1M31 141h3M41 141h2M13 142h2M22 142h1M26 142h1M32 142h1M40 142h2M14 143h1M23 143h2M32 143h1M39 143h2M15 144h1M24 144h1M26 144h4M32 144h1M37 144h3" />
<path stroke="#ffdf5b" d="M28 101h1M19 102h2M19 103h1M18 104h1M39 104h2M23 106h2M23 107h2M35 108h1M32 109h1M43 109h1M33 110h1M33 111h2" />
<path stroke="#894b06" d="M89 101h27M88 102h29M87 103h31M87 104h31M87 105h31M87 106h31M87 107h31M87 108h31M87 109h31M87 110h30M87 111h29M87 112h12M87 113h11M87 114h11M87 115h11M87 116h11M87 117h12M87 118h22M87 119h23M87 120h23M87 121h23M87 122h23M87 123h23M87 124h23M87 125h23M87 126h22M87 127h12M87 128h11M87 129h11M87 130h11M87 131h11M87 132h11M87 133h12M87 134h29M87 135h30M87 136h31M87 137h31M87 138h31M87 139h31M87 140h31M87 141h31M87 142h31M88 143h29M89 144h27" />
<path stroke="#3e81d4" d="M181 101h27M180 102h29M179 103h31M179 104h31M179 105h31M179 106h31M179 107h31M179 108h31M179 109h31M179 110h30M179 111h29M179 112h12M179 113h11M179 114h11M179 115h11M179 116h11M179 117h12M179 118h22M179 119h23M179 120h23M179 121h23M179 122h23M179 123h23M179 124h23M179 125h23M179 126h22M179 127h12M179 128h11M179 129h11M179 130h11M179 131h11M179 132h11M179 133h12M179 134h29M179 135h30M179 136h31M179 137h31M179 138h31M179 139h31M179 140h31M179 141h31M179 142h31M180 143h29M181 144h27" />
<path stroke="#b5c8e0" d="M301 101h23M299 102h26M298 103h28M297 104h29M297 105h29M296 106h30M296 107h30M296 108h30M296 109h30M296 110h29M296 111h28M296 112h15M296 113h14M296 114h14M297 115h13M297 116h13M298 117h13M298 118h15M299 119h15M300 120h16M301 121h17M302 122h17M303 123h17M304 124h17M306 125h16M308 126h15M309 127h15M311 128h13M312 129h13M312 130h13M312 131h14M312 132h14M311 133h15M299 134h27M298 135h28M297 136h29M297 137h29M296 138h30M296 139h29M296 140h29M296 141h28M296 142h27M297 143h25M298 144h22" />
<path stroke="#060402" d="M230 102h2M231 103h1M231 104h1" />
<path stroke="#ffe893" d="M15 106h1M14 107h1M13 108h1M13 109h1M13 110h1M13 111h1M21 111h1M13 112h2M20 112h2M13 113h3M17 113h1M13 114h1M13 115h1M13 116h2M13 117h2M13 118h2M34 118h1M34 119h1M34 120h1M33 121h1M16 122h1M21 122h2M32 122h1M21 123h1M31 123h1M28 125h2M25 126h1M27 126h3M16 129h1M15 130h3M17 135h1M18 136h1M19 137h1M43 137h1M34 138h2M43 138h1M20 139h1M28 139h1M43 139h1M20 140h1M27 140h1M33 140h1M26 141h1M23 142h3M31 142h1M25 143h1M30 143h2M25 144h1M30 144h2" />
<path stroke="#08090a" d="M297 133h1M295 135h1M295 140h1" />
<path stroke="#060607" d="M296 134h1" />
<path stroke="#afc2d9" d="M298 134h1" />
<path stroke="#b1c3db" d="M297 135h1" />
<path stroke="#050506" d="M295 136h1M295 139h1" />
<path stroke="#b0c3da" d="M296 136h1" />
<path stroke="#010202" d="M295 137h1M295 138h1" />
<path stroke="#b4c7de" d="M296 137h1" />
<path stroke="#0b0d0e" d="M295 141h1" />
<path stroke="#070809" d="M295 142h1" />
</svg>