<svg xmlns="http://www.w3.org/2000/svg" viewBox="0 -0.5 50 13" shape-rendering="crispEdges">
<path stroke="#412a0c" d="M2 0h46M1 1h1M48 1h1M0 2h1M3 2h44M49 2h1M0 3h1M2 3h1M47 3h1M49 3h1M0 4h1M2 4h1M47 4h1M49 4h1M0 5h1M2 5h1M47 5h1M49 5h1M0 6h1M2 6h1M47 6h1M49 6h1M0 7h1M2 7h1M47 7h1M49 7h1M0 8h1M2 8h1M47 8h1M49 8h1M0 9h1M2 9h1M47 9h1M49 9h1M0 10h1M3 10h44M49 10h1M1 11h1M48 11h1M2 12h46" />
<path stroke="#e5c4aa" d="M2 1h1M47 1h1M1 2h1M48 2h1M1 10h1M48 10h1M2 11h1M47 11h1" />
<path stroke="#cb9f7d" d="M3 1h44M2 2h1M47 2h1M1 3h1M48 3h1M1 4h1M48 4h1M1 5h1M48 5h1M1 6h1M48 6h1M1 7h1M48 7h1M1 8h1M48 8h1M1 9h1M48 9h1M2 10h1M47 10h1M3 11h44" />
<path stroke="#f2e4cf" d="M3 3h44M3 4h44M3 5h44M3 6h44M3 7h44M3 8h44M3 9h44" />
</svg>