<svg xmlns="http://www.w3.org/2000/svg" viewBox="0 -0.5 80 56" shape-rendering="crispEdges">
<path stroke="#412a0c" d="M2 0h76M1 1h1M78 1h1M0 2h1M3 2h74M79 2h1M0 3h1M2 3h1M77 3h1M79 3h1M0 4h1M2 4h1M77 4h1M79 4h1M0 5h1M2 5h1M77 5h1M79 5h1M0 6h1M2 6h1M77 6h1M79 6h1M0 7h1M2 7h1M77 7h1M79 7h1M0 8h1M2 8h1M77 8h1M79 8h1M0 9h1M2 9h1M77 9h1M79 9h1M0 10h1M2 10h1M77 10h1M79 10h1M0 11h1M2 11h1M77 11h1M79 11h1M0 12h1M2 12h1M77 12h1M79 12h1M0 13h1M2 13h1M77 13h1M79 13h1M0 14h1M2 14h1M77 14h1M79 14h1M0 15h1M2 15h1M77 15h1M79 15h1M0 16h1M2 16h1M77 16h1M79 16h1M0 17h1M2 17h1M77 17h1M79 17h1M0 18h1M2 18h1M77 18h1M79 18h1M0 19h1M2 19h1M77 19h1M79 19h1M0 20h1M2 20h1M77 20h1M79 20h1M0 21h1M2 21h1M77 21h1M79 21h1M0 22h1M2 22h1M77 22h1M79 22h1M0 23h1M2 23h1M77 23h1M79 23h1M0 24h1M2 24h1M77 24h1M79 24h1M0 25h1M2 25h1M77 25h1M79 25h1M0 26h1M2 26h1M77 26h1M79 26h1M0 27h1M2 27h1M77 27h1M79 27h1M0 28h1M2 28h1M77 28h1M79 28h1M0 29h1M2 29h1M77 29h1M79 29h1M0 30h1M2 30h1M77 30h1M79 30h1M0 31h1M2 31h1M77 31h1M79 31h1M0 32h1M2 32h1M77 32h1M79 32h1M0 33h1M2 33h1M77 33h1M79 33h1M0 34h1M2 34h1M77 34h1M79 34h1M0 35h1M2 35h1M77 35h1M79 35h1M0 36h1M2 36h1M77 36h1M79 36h1M0 37h1M2 37h1M77 37h1M79 37h1M0 38h1M2 38h1M77 38h1M79 38h1M0 39h1M2 39h1M77 39h1M79 39h1M0 40h1M2 40h1M77 40h1M79 40h1M0 41h1M2 41h1M77 41h1M79 41h1M0 42h1M2 42h1M77 42h1M79 42h1M0 43h1M2 43h1M77 43h1M79 43h1M0 44h1M2 44h1M77 44h1M79 44h1M0 45h1M2 45h1M77 45h1M79 45h1M0 46h1M2 46h1M77 46h1M79 46h1M0 47h1M2 47h1M77 47h1M79 47h1M0 48h1M2 48h1M77 48h1M79 48h1M0 49h1M2 49h1M77 49h1M79 49h1M0 50h1M2 50h1M77 50h1M79 50h1M0 51h1M2 51h1M77 51h1M79 51h1M0 52h1M2 52h1M77 52h1M79 52h1M0 53h1M3 53h74M79 53h1M1 54h1M78 54h1M2 55h76" />
<path stroke="#e5c4aa" d="M2 1h1M77 1h1M1 2h1M78 2h1M1 53h1M78 53h1M2 54h1M77 54h1" />
<path stroke="#cb9f7d" d="M3 1h74M2 2h1M77 2h1M1 3h1M78 3h1M1 4h1M78 4h1M1 5h1M78 5h1M1 6h1M78 6h1M1 7h1M78 7h1M1 8h1M78 8h1M1 9h1M78 9h1M1 10h1M78 10h1M1 11h1M78 11h1M1 12h1M78 12h1M1 13h1M78 13h1M1 14h1M78 14h1M1 15h1M78 15h1M1 16h1M78 16h1M1 17h1M78 17h1M1 18h1M78 18h1M1 19h1M78 19h1M1 20h1M78 20h1M1 21h1M78 21h1M1 22h1M78 22h1M1 23h1M78 23h1M1 24h1M78 24h1M1 25h1M78 25h1M1 26h1M78 26h1M1 27h1M78 27h1M1 28h1M78 28h1M1 29h1M78 29h1M1 30h1M78 30h1M1 31h1M78 31h1M1 32h1M78 32h1M1 33h1M78 33h1M1 34h1M78 34h1M1 35h1M78 35h1M1 36h1M78 36h1M1 37h1M78 37h1M1 38h1M78 38h1M1 39h1M78 39h1M1 40h1M78 40h1M1 41h1M78 41h1M1 42h1M78 42h1M1 43h1M78 43h1M1 44h1M78 44h1M1 45h1M78 45h1M1 46h1M78 46h1M1 47h1M78 47h1M1 48h1M78 48h1M1 49h1M78 49h1M1 50h1M78 50h1M1 51h1M78 51h1M1 52h1M78 52h1M2 53h1M77 53h1M3 54h74" />
<path stroke="#f2e4cf" d="M3 3h74M3 4h74M3 5h74M3 6h74M3 7h74M3 8h74M3 9h74M3 10h74M3 11h74M3 12h74M3 13h74M3 14h74M3 15h74M3 16h74M3 17h74M3 18h74M3 19h74M3 20h74M3 21h74M3 22h74M3 23h74M3 24h74M3 25h74M3 26h74M3 27h74M3 28h74M3 29h74M3 30h74M3 31h74M3 32h74M3 33h74M3 34h74M3 35h74M3 36h74M3 37h74M3 38h74M3 39h74M3 40h74M3 41h74M3 42h74M3 43h74M3 44h74M3 45h74M3 46h74M3 47h74M3 48h74M3 49h74M3 50h74M3 51h74M3 52h74" />
</svg>