<svg xmlns="http://www.w3.org/2000/svg" viewBox="0 -0.5 120 166" shape-rendering="crispEdges">
<path stroke="#000000" d="M58 3h10M56 4h2M68 4h1M55 5h1M69 5h2M53 6h2M71 6h1M52 7h1M72 7h2M51 8h1M74 8h1M50 9h1M75 9h1M50 10h1M76 10h1M49 11h1M77 11h2M49 12h1M79 12h1M48 13h1M80 13h1M48 14h1M81 14h1M47 15h1M82 15h1M47 16h1M83 16h1M46 17h1M84 17h1M45 18h1M84 18h1M45 19h1M85 19h1M44 20h1M86 20h1M43 21h1M56 21h1M87 21h1M42 22h1M55 22h2M88 22h1M41 23h1M55 23h1M89 23h1M40 24h1M54 24h2M90 24h1M38 25h2M53 25h2M91 25h1M36 26h2M52 26h3M92 26h1M35 27h1M50 27h2M53 27h1M93 27h1M36 28h1M48 28h2M53 28h1M94 28h1M37 29h2M46 29h2M53 29h1M95 29h1M39 30h7M53 30h1M81 30h7M96 30h1M53 31h1M77 31h4M88 31h7M97 31h1M53 32h1M74 32h3M95 32h2M98 32h1M53 33h1M70 33h4M97 33h2M53 34h1M68 34h2M99 34h1M53 35h1M66 35h2M82 35h12M100 35h1M53 36h1M63 36h3M77 36h5M94 36h12M53 37h1M61 37h2M73 37h4M106 37h4M53 38h1M59 38h2M72 38h1M110 38h4M53 39h1M57 39h2M69 39h3M114 39h2M53 40h1M56 40h1M66 40h3M100 40h12M116 40h1M53 41h1M55 41h1M63 41h3M95 41h5M112 41h3M116 41h1M53 42h2M61 42h2M91 42h4M99 42h1M115 42h1M53 43h1M59 43h2M88 43h3M100 43h1M115 43h1M52 44h1M57 44h2M84 44h4M101 44h1M114 44h1M52 45h1M55 45h2M79 45h5M102 45h1M114 45h1M52 46h1M54 46h1M75 46h4M103 46h1M113 46h1M52 47h2M73 47h2M104 47h1M112 47h1M51 48h2M70 48h3M75 48h1M104 48h1M111 48h1M50 49h2M68 49h2M76 49h1M105 49h1M109 49h2M49 50h1M66 50h2M77 50h2M105 50h1M107 50h2M48 51h1M64 51h2M67 51h2M79 51h1M106 51h1M46 52h2M62 52h2M67 52h1M69 52h1M80 52h2M83 52h1M107 52h1M45 53h1M60 53h3M66 53h1M70 53h2M82 53h1M84 53h3M107 53h1M44 54h1M57 54h3M66 54h1M72 54h3M83 54h1M87 54h3M108 54h1M10 55h12M43 55h1M55 55h2M75 55h3M84 55h1M90 55h5M108 55h1M9 56h1M22 56h2M42 56h1M53 56h3M65 56h1M78 56h3M85 56h2M95 56h3M109 56h1M7 57h2M24 57h1M41 57h1M52 57h1M55 57h1M65 57h1M81 57h3M87 57h1M98 57h4M109 57h1M6 58h1M25 58h1M41 58h1M50 58h2M55 58h1M64 58h1M84 58h5M102 58h4M109 58h1M5 59h1M26 59h1M40 59h1M48 59h2M55 59h1M64 59h1M75 59h5M94 59h5M105 59h2M110 59h1M4 60h1M11 60h11M27 60h1M39 60h1M47 60h1M55 60h1M64 60h1M74 60h1M80 60h1M93 60h1M99 60h1M105 60h1M107 60h2M110 60h1M4 61h1M10 61h1M21 61h2M27 61h1M39 61h1M45 61h2M55 61h1M64 61h1M73 61h1M81 61h1M92 61h1M100 61h1M105 61h1M109 61h2M3 62h1M9 62h1M23 62h1M28 62h1M38 62h1M44 62h1M53 62h3M63 62h1M72 62h1M78 62h3M82 62h1M91 62h1M97 62h3M101 62h1M105 62h1M110 62h1M3 63h1M8 63h1M14 63h6M23 63h3M28 63h1M38 63h1M42 63h2M52 63h1M55 63h1M63 63h1M72 63h1M77 63h6M91 63h1M96 63h6M105 63h1M2 64h1M8 64h1M13 64h1M20 64h1M25 64h1M29 64h1M37 64h1M40 64h2M51 64h1M55 64h1M63 64h1M72 64h1M76 64h1M79 64h4M91 64h1M95 64h1M98 64h4M105 64h1M2 65h1M7 65h1M12 65h1M21 65h1M26 65h1M29 65h1M36 65h1M39 65h1M50 65h1M55 65h1M63 65h1M72 65h1M76 65h1M79 65h4M91 65h1M95 65h1M98 65h4M105 65h1M2 66h1M7 66h1M11 66h1M22 66h1M26 66h1M29 66h1M36 66h8M50 66h1M53 66h1M55 66h1M63 66h1M72 66h1M76 66h7M91 66h1M95 66h7M105 66h1M2 67h1M6 67h1M10 67h1M23 67h1M26 67h1M29 67h1M44 67h7M53 67h1M55 67h1M63 67h1M72 67h1M76 67h7M91 67h1M95 67h7M105 67h1M1 68h1M6 68h1M10 68h1M23 68h1M26 68h1M29 68h1M50 68h1M53 68h1M56 68h1M63 68h1M72 68h1M76 68h7M91 68h1M95 68h7M105 68h1M1 69h1M6 69h1M10 69h1M23 69h1M26 69h1M29 69h1M51 69h1M54 69h1M56 69h1M63 69h1M72 69h1M76 69h7M91 69h1M95 69h7M105 69h1M1 70h1M6 70h1M10 70h1M23 70h1M26 70h1M29 70h1M52 70h1M56 70h1M62 70h1M72 70h1M76 70h7M91 70h1M95 70h7M105 70h1M1 71h1M5 71h1M10 71h1M23 71h1M26 71h1M29 71h1M53 71h4M62 71h1M72 71h1M76 71h7M91 71h1M95 71h7M105 71h1M1 72h1M5 72h1M10 72h1M23 72h1M25 72h1M28 72h1M57 72h1M62 72h1M72 72h1M76 72h7M91 72h1M95 72h7M105 72h1M1 73h1M5 73h1M11 73h1M22 73h1M25 73h1M28 73h1M57 73h1M61 73h1M72 73h1M77 73h6M91 73h1M96 73h6M105 73h1M1 74h1M5 74h1M12 74h1M21 74h1M24 74h1M27 74h1M57 74h1M61 74h1M73 74h1M78 74h2M81 74h1M92 74h1M97 74h2M100 74h1M105 74h1M1 75h1M6 75h1M13 75h1M20 75h1M24 75h1M26 75h1M58 75h1M61 75h1M74 75h1M80 75h1M93 75h1M99 75h1M104 75h1M1 76h1M6 76h1M14 76h6M23 76h3M58 76h1M61 76h2M75 76h5M94 76h5M104 76h1M1 77h1M7 77h1M22 77h2M59 77h1M61 77h1M63 77h1M103 77h1M2 78h1M8 78h1M59 78h1M61 78h1M64 78h1M102 78h1M2 79h1M9 79h1M60 79h1M63 79h1M65 79h1M101 79h1M113 79h1M3 80h1M10 80h1M60 80h1M63 80h1M66 80h2M86 80h2M99 80h2M112 80h1M114 80h1M4 81h1M11 81h2M62 81h1M68 81h1M85 81h1M97 81h3M111 81h2M114 81h1M5 82h1M13 82h2M61 82h1M69 82h1M96 82h1M98 82h1M110 82h1M112 82h1M114 82h1M6 83h1M15 83h2M60 83h1M70 83h3M94 83h2M98 83h1M110 83h1M112 83h1M114 83h1M7 84h1M17 84h2M59 84h2M73 84h2M92 84h2M98 84h1M110 84h1M112 84h1M114 84h4M8 85h2M19 85h3M58 85h1M61 85h1M75 85h2M91 85h1M98 85h1M110 85h1M112 85h1M114 85h1M116 85h1M118 85h1M10 86h2M22 86h2M58 86h1M62 86h1M77 86h14M97 86h2M110 86h1M114 86h1M116 86h1M118 86h1M12 87h3M24 87h3M58 87h1M63 87h2M96 87h1M99 87h1M109 87h4M114 87h1M116 87h1M118 87h1M15 88h3M27 88h2M57 88h1M65 88h2M94 88h2M100 88h1M108 88h1M112 88h1M114 88h1M116 88h1M118 88h1M18 89h3M29 89h1M56 89h1M67 89h1M92 89h2M100 89h1M108 89h1M110 89h2M115 89h4M21 90h2M30 90h1M56 90h1M68 90h5M90 90h2M99 90h1M101 90h1M108 90h3M118 90h1M23 91h2M31 91h1M56 91h1M73 91h2M88 91h2M98 91h1M102 91h1M109 91h1M118 91h1M25 92h2M32 92h1M55 92h2M75 92h13M97 92h1M102 92h1M110 92h1M118 92h1M27 93h1M32 93h1M54 93h1M56 93h1M96 93h1M103 93h1M110 93h1M117 93h1M28 94h1M33 94h1M53 94h1M57 94h3M94 94h2M103 94h1M110 94h2M117 94h1M29 95h1M33 95h1M52 95h1M60 95h2M92 95h2M104 95h1M109 95h1M113 95h1M116 95h1M29 96h1M34 96h1M53 96h1M62 96h7M89 96h3M104 96h1M109 96h1M115 96h1M30 97h1M34 97h1M54 97h1M69 97h6M84 97h5M105 97h1M108 97h1M115 97h1M30 98h1M35 98h1M55 98h1M75 98h9M104 98h1M108 98h1M114 98h1M31 99h1M36 99h1M54 99h1M56 99h1M94 99h1M103 99h1M105 99h1M107 99h1M114 99h1M31 100h1M36 100h1M54 100h1M57 100h2M95 100h1M102 100h1M105 100h2M114 100h1M32 101h1M37 101h1M54 101h1M59 101h1M65 101h1M96 101h1M101 101h1M106 101h1M113 101h1M33 102h1M37 102h1M53 102h1M60 102h2M64 102h1M96 102h1M100 102h1M105 102h1M113 102h1M33 103h1M38 103h1M53 103h1M62 103h1M64 103h1M96 103h1M98 103h2M112 103h1M34 104h1M39 104h1M53 104h1M63 104h1M96 104h2M112 104h1M35 105h1M39 105h1M52 105h1M63 105h1M96 105h2M111 105h1M35 106h1M40 106h1M52 106h1M62 106h2M96 106h1M98 106h1M111 106h1M36 107h1M41 107h1M52 107h1M61 107h1M63 107h1M96 107h1M98 107h1M110 107h1M36 108h1M41 108h1M51 108h1M61 108h1M63 108h1M96 108h1M99 108h1M110 108h1M37 109h1M42 109h1M51 109h1M55 109h2M61 109h1M63 109h1M96 109h1M99 109h1M109 109h1M38 110h1M42 110h1M50 110h1M56 110h1M60 110h1M63 110h1M96 110h1M100 110h1M109 110h1M38 111h1M43 111h1M50 111h1M59 111h1M63 111h1M96 111h1M101 111h1M108 111h1M39 112h1M44 112h1M50 112h1M59 112h1M63 112h1M96 112h1M102 112h1M107 112h1M39 113h1M44 113h1M49 113h1M58 113h1M63 113h1M96 113h1M101 113h1M103 113h4M40 114h1M45 114h1M49 114h1M57 114h1M63 114h2M79 114h8M96 114h1M101 114h1M41 115h1M46 115h1M48 115h1M57 115h1M64 115h1M78 115h1M87 115h1M96 115h1M102 115h1M41 116h1M44 116h4M56 116h1M64 116h2M78 116h1M81 116h4M87 116h1M95 116h1M102 116h1M42 117h2M56 117h1M65 117h14M80 117h1M85 117h1M87 117h9M102 117h1M43 118h1M55 118h1M64 118h1M78 118h1M80 118h1M85 118h1M87 118h1M96 118h1M103 118h1M43 119h5M54 119h1M64 119h1M78 119h1M80 119h1M85 119h1M87 119h1M96 119h1M103 119h1M42 120h4M49 120h1M53 120h1M64 120h15M80 120h1M85 120h1M87 120h10M103 120h1M41 121h1M45 121h2M49 121h1M52 121h2M62 121h2M78 121h1M81 121h4M87 121h1M97 121h1M104 121h1M41 122h1M44 122h1M46 122h2M50 122h1M52 122h1M62 122h1M78 122h1M87 122h1M97 122h1M104 122h1M40 123h1M43 123h1M46 123h3M50 123h1M52 123h1M61 123h1M79 123h8M98 123h1M104 123h1M40 124h1M45 124h1M48 124h2M51 124h1M61 124h1M98 124h1M105 124h1M40 125h1M47 125h1M49 125h1M51 125h1M61 125h1M98 125h1M105 125h1M41 126h1M46 126h1M48 126h2M52 126h1M60 126h1M99 126h1M105 126h1M42 127h2M47 127h2M52 127h1M60 127h1M99 127h1M106 127h1M44 128h3M49 128h1M53 128h1M60 128h1M99 128h1M106 128h1M45 129h1M49 129h1M54 129h1M59 129h1M100 129h1M106 129h1M44 130h1M50 130h1M55 130h1M59 130h1M100 130h1M106 130h1M44 131h1M51 131h1M55 131h1M59 131h1M100 131h1M106 131h1M44 132h1M51 132h1M56 132h1M59 132h1M100 132h1M106 132h1M43 133h1M52 133h1M56 133h1M58 133h1M101 133h1M107 133h1M43 134h1M52 134h1M57 134h1M101 134h1M107 134h1M42 135h1M53 135h1M57 135h1M102 135h1M107 135h1M42 136h1M54 136h1M57 136h1M102 136h1M107 136h1M41 137h1M54 137h1M57 137h1M102 137h1M107 137h1M41 138h1M55 138h1M57 138h1M102 138h1M107 138h1M40 139h1M56 139h1M102 139h1M107 139h1M40 140h1M56 140h1M102 140h1M107 140h1M40 141h1M56 141h1M102 141h1M107 141h1M39 142h1M56 142h1M102 142h1M107 142h1M39 143h1M56 143h1M102 143h1M107 143h1M38 144h1M55 144h1M102 144h1M107 144h1M38 145h1M55 145h1M102 145h1M107 145h1M38 146h1M55 146h1M102 146h1M107 146h1M37 147h1M54 147h1M101 147h1M108 147h1M37 148h1M54 148h1M72 148h6M83 148h4M90 148h4M97 148h4M108 148h1M37 149h1M53 149h1M60 149h13M78 149h5M86 149h4M94 149h3M108 149h1M37 150h1M52 150h1M56 150h4M64 150h1M72 150h1M86 150h1M94 150h1M108 150h1M36 151h1M53 151h3M64 151h1M72 151h1M86 151h1M94 151h1M108 151h1M36 152h1M63 152h1M71 152h1M86 152h1M94 152h1M108 152h1M36 153h1M63 153h1M71 153h1M86 153h1M94 153h1M108 153h1M36 154h1M62 154h1M86 154h1M94 154h1M109 154h1M35 155h1M62 155h16M82 155h17M109 155h1M35 156h1M53 156h10M72 156h1M78 156h4M85 156h1M95 156h1M99 156h4M110 156h1M35 157h1M48 157h5M62 157h1M72 157h1M85 157h1M95 157h1M103 157h7M35 158h1M37 158h11M63 158h9M85 158h10M35 159h2M62 159h1M70 159h1M87 159h1M95 159h1M61 160h1M63 160h1M71 160h1M86 160h1M94 160h1M96 160h1M60 161h1M62 161h1M71 161h1M86 161h1M95 161h1M97 161h1M59 162h1M71 162h1M86 162h1M98 162h1M59 163h1M69 163h2M87 163h2M98 163h1M60 164h9M89 164h9" />
<path stroke="#3d6dd2" d="M58 4h10M56 5h13M55 6h16M53 7h19M52 8h14M67 8h7M51 9h24M51 10h15M67 10h2M71 10h5M50 11h10M61 11h8M72 11h5M50 12h2M53 12h6M60 12h10M73 12h6M49 13h2M52 13h4M57 13h1M62 13h8M72 13h8M49 14h6M56 14h1M62 14h19M48 15h7M56 15h1M61 15h1M63 15h19M48 16h6M61 16h22M47 17h8M62 17h22M46 18h7M64 18h20M46 19h7M63 19h1M65 19h20M45 20h8M63 20h23M44 21h8M61 21h26M43 22h8M60 22h28M42 23h9M60 23h29M41 24h7M59 24h31M40 25h5M59 25h32M38 26h6M59 26h33M36 27h6M59 27h34M37 28h3M60 28h34M59 29h36M60 30h21M88 30h8M60 31h13M76 31h1M95 31h2M60 32h8M70 32h1M97 32h1M61 33h1M64 33h1M66 33h1M82 36h12M78 37h28M74 38h17M92 38h18M73 39h41M69 40h1M72 40h28M112 40h4M66 41h4M71 41h24M115 41h1M64 42h4M70 42h21M62 43h5M69 43h19M61 44h4M68 44h16M60 45h5M67 45h9M77 45h2M59 46h5M66 46h8M58 47h5M65 47h6M57 48h5M63 48h6M57 49h4M62 49h6M56 50h4M61 50h5M55 51h9M54 52h8M53 53h7M52 54h5M52 55h3M51 56h2M43 138h3M43 139h3M42 140h4M42 141h3M41 142h5M41 143h5M41 144h5M105 144h1M40 145h5M105 145h1M40 146h5M105 146h1M39 147h6M104 147h3M39 148h7M103 148h4M39 149h7M103 149h4M39 150h4M44 150h2M102 150h5M38 151h5M44 151h5M100 151h8M38 152h16M98 152h10M38 153h13M53 153h1M98 153h10M38 154h11M101 154h7M38 155h6M105 155h3M38 156h3M106 156h2" />
<path stroke="#9db8ef" d="M66 8h1M66 10h1M69 10h2M69 11h3M70 12h3M70 13h2M91 38h1" />
<path stroke="#1c54c7" d="M60 11h1M59 12h1M56 13h1M58 13h4M55 14h1M57 14h5M55 15h1M57 15h4M62 15h1M54 16h7M55 17h7M53 18h11M53 19h10M53 20h10M52 21h4M57 21h4M51 22h4M57 22h3M51 23h4M56 23h4M48 24h6M56 24h3M45 25h8M55 25h4M44 26h8M55 26h4M42 27h8M54 27h5M40 28h8M54 28h6M40 29h4M54 29h5M54 30h6M54 31h6M73 31h3M54 32h6M68 32h2M71 32h3M54 33h7M62 33h2M65 33h1M67 33h3M54 34h14M54 35h12M54 36h9M54 37h7M77 37h1M54 38h4M73 38h1M54 39h3M72 39h1M54 40h2M70 40h2M54 41h1M70 41h1M63 42h1M68 42h2M61 43h1M67 43h2M59 44h2M65 44h3M57 45h3M65 45h2M76 45h1M55 46h4M64 46h2M74 46h1M54 47h4M63 47h2M71 47h2M53 48h4M62 48h1M69 48h1M52 49h5M61 49h1M50 50h6M60 50h1M49 51h6M48 52h6M46 53h7M45 54h7M44 55h8M43 56h8M42 57h9M42 58h7M41 59h7M40 60h7M40 61h5M39 62h5M39 63h3M38 64h2M37 65h2M97 106h1M62 107h1M97 107h1M62 108h1M97 108h2M62 109h1M97 109h2M61 110h2M97 110h3M60 111h3M97 111h3M60 112h3M97 112h4M59 113h4M97 113h4M58 114h5M97 114h4M58 115h6M97 115h5M57 116h7M96 116h6M57 117h8M96 117h6M56 118h8M97 118h6M55 119h9M97 119h6M54 120h10M97 120h6M54 121h8M98 121h6M53 122h9M98 122h6M53 123h1M55 123h6M99 123h5M52 124h9M99 124h6M52 125h9M99 125h6M53 126h7M100 126h5M53 127h7M100 127h6M47 128h2M54 128h6M100 128h6M46 129h3M55 129h4M101 129h5M45 130h5M56 130h3M101 130h5M45 131h6M56 131h3M101 131h5M45 132h6M57 132h2M101 132h5M44 133h8M57 133h1M102 133h5M44 134h8M102 134h5M43 135h10M103 135h4M43 136h11M103 136h4M42 137h12M103 137h4M42 138h1M46 138h9M103 138h4M41 139h2M46 139h10M103 139h4M41 140h1M46 140h10M103 140h4M41 141h1M45 141h11M103 141h4M40 142h1M46 142h10M103 142h4M40 143h1M46 143h10M103 143h4M39 144h2M46 144h9M103 144h2M106 144h1M39 145h1M45 145h10M103 145h2M106 145h1M39 146h1M45 146h10M103 146h2M106 146h1M38 147h1M45 147h9M102 147h2M107 147h1M38 148h1M46 148h8M101 148h2M107 148h1M38 149h1M46 149h7M74 149h4M83 149h3M97 149h6M107 149h1M38 150h1M43 150h1M46 150h6M60 150h4M73 150h13M95 150h7M107 150h1M37 151h1M43 151h1M49 151h4M56 151h8M73 151h13M95 151h5M37 152h1M54 152h9M72 152h14M95 152h3M37 153h1M51 153h2M54 153h9M72 153h12M95 153h3M37 154h1M49 154h13M72 154h14M95 154h6M108 154h1M36 155h2M44 155h18M78 155h4M99 155h6M108 155h1M36 156h2M41 156h12M103 156h3M108 156h2M36 157h12M36 158h1" />
<path stroke="#7394d9" d="M52 12h1M51 13h1M64 19h1" />
<path stroke="#1663ab" d="M39 29h1M44 29h2" />
<path stroke="#844c4b" d="M81 31h7M77 32h18M74 33h23M70 34h29M68 35h14M94 35h6M66 36h11M63 37h10M61 38h11M59 39h10M57 40h9M56 41h7M55 42h6M54 43h5M53 44h4M53 45h2M53 46h1M10 56h6M19 56h3M9 57h8M20 57h1M7 58h1M17 58h2M6 59h2M10 59h10M22 59h2M25 59h1M5 60h6M22 60h2M26 60h1M5 61h5M23 61h1M26 61h1M4 62h5M24 62h1M26 62h2M4 63h1M7 63h1M26 63h1M3 64h2M7 64h1M26 64h1M28 64h1M3 65h2M6 65h1M3 66h1M6 66h1M3 67h1M5 67h1M27 67h1M2 68h2M5 68h1M27 68h1M2 69h2M5 69h1M27 69h1M2 70h2M5 70h1M2 71h1M28 71h1M2 72h1M27 72h1M2 73h3M27 73h1M2 74h3M26 74h1M2 75h1M4 75h2M25 75h1M2 76h1M4 76h2M2 77h1M5 77h2M5 78h3M3 79h1M7 79h2M4 80h1M8 80h2M5 81h6M6 82h7M7 83h2M14 83h1M14 84h3M10 85h6M18 85h1M12 86h4M15 87h5M22 87h2M18 88h6M25 88h2M21 89h3M27 89h2M23 90h2M29 90h1M25 91h2M30 91h1M27 92h1M30 92h2M28 93h4M29 94h4M30 95h3M30 96h1M33 96h1M33 97h1M31 98h1M33 98h2M34 99h2M34 100h2M35 101h2M35 102h2M35 103h2M35 104h2M36 105h2M36 106h2M37 107h2M37 108h3M38 109h4M39 110h3M39 111h4M41 112h1M43 115h1M45 115h1M43 116h1M65 118h13M88 118h8M65 119h13M88 119h8M46 120h3M47 121h2M48 122h1M50 125h1M50 126h2M49 127h3M50 128h1M52 128h1M53 129h1M53 130h2M54 131h1M52 132h1M53 134h1M55 137h2M56 138h1M63 156h9M86 156h9M63 157h9M86 157h9M63 159h7M88 159h7M62 160h1M64 160h7M87 160h7M95 160h1M61 161h1M63 161h8M87 161h8M96 161h1M60 162h11M87 162h11M60 163h9M89 163h9" />
<path stroke="#3a67e3" d="M58 38h1M15 67h4M14 68h5M14 69h6M15 70h4M15 71h4" />
<path stroke="#04294c" d="M100 41h1" />
<path stroke="#072544" d="M101 41h11M100 42h15M101 43h14M102 44h12M103 45h11M104 46h9M105 47h7M105 48h6M106 49h3M106 50h1M53 57h2M52 58h3M50 59h5M48 60h7M47 61h8M45 62h8M44 63h8M42 64h9M40 65h10M44 66h6M110 95h3M110 96h5M109 97h6M109 98h5M55 99h1M104 99h1M108 99h6M55 100h2M103 100h2M107 100h7M55 101h4M102 101h4M107 101h6M54 102h6M101 102h4M106 102h7M54 103h8M100 103h12M54 104h9M98 104h14M53 105h10M98 105h13M53 106h9M99 106h12M53 107h8M99 107h11M52 108h9M100 108h10M52 109h3M57 109h4M100 109h9M51 110h5M57 110h3M101 110h8M51 111h8M102 111h6M51 112h8M103 112h4M50 113h8M50 114h7M49 115h8M50 116h6M51 117h5M52 118h3M53 119h1" />
<path stroke="#d6802c" d="M95 42h4M91 43h9M88 44h6M100 44h1M84 45h6M101 45h1M79 46h6M102 46h1M75 47h6M73 48h1M76 48h4M70 49h3M77 49h2M68 50h3M66 51h1M69 51h2M80 51h3M64 52h3M70 52h1M82 52h1M84 52h4M63 53h3M72 53h3M87 53h3M60 54h5M75 54h2M91 54h4M57 55h4M62 55h1M78 55h2M95 55h3M56 56h4M81 56h2M98 56h4M56 57h3M102 57h4M56 58h3M106 58h2M56 59h3M107 59h2M56 60h2M109 60h1M56 61h2M56 62h2M56 63h1M56 64h1M56 65h1M56 66h1M56 67h2M57 68h1M57 69h1M57 70h1M57 71h1M58 72h1M58 73h1M58 74h1M59 75h1M59 76h1" />
<path stroke="#db934b" d="M94 44h6M90 45h7M98 45h3M85 46h7M100 46h2M81 47h4M101 47h3M74 48h1M80 48h2M102 48h2M73 49h3M79 49h4M103 49h2M71 50h6M79 50h6M104 50h1M71 51h2M83 51h2M104 51h2M71 52h2M105 52h2M106 53h1M65 54h1M106 54h2M64 55h2M107 55h1M64 56h1M107 56h2M63 57h2M108 57h1M63 58h1M108 58h1M63 59h1M109 59h1M63 60h1M62 61h2M62 62h1M62 63h1M62 64h1M62 65h1M62 66h1M62 67h1M62 68h1M61 69h2M61 70h1M60 71h2M60 72h2M60 73h1M60 74h1M60 75h1M60 76h1M60 77h1M60 78h1" />
<path stroke="#e0ad71" d="M97 45h1M92 46h8M85 47h16M82 48h20M83 49h20M85 50h19M73 51h6M85 51h19M73 52h7M88 52h17M75 53h7M90 53h16M77 54h6M95 54h11M61 55h1M63 55h1M80 55h4M98 55h9M60 56h4M83 56h2M102 56h5M59 57h4M84 57h3M106 57h2M59 58h4M59 59h4M58 60h5M58 61h4M58 62h4M57 63h5M57 64h5M57 65h5M57 66h5M58 67h4M58 68h4M58 69h3M58 70h3M58 71h2M59 72h1M59 73h1M59 74h1M81 117h4M81 118h4M81 119h4M81 120h4" />
<path stroke="#cd9581" d="M68 52h1M67 53h3M83 53h1M67 54h5M84 54h3M90 54h1M66 55h9M87 55h3M66 56h2M74 56h4M90 56h5M66 57h1M78 57h3M95 57h3M65 58h2M81 58h3M98 58h4M65 59h1M84 59h5M101 59h4M65 60h1M65 61h1M64 62h2M64 63h1M64 64h1M64 65h1M64 66h1M64 67h1M64 68h1M64 69h1M63 70h1M63 71h1M63 72h1M62 73h2M62 74h1M62 75h1" />
<path stroke="#fbd0c0" d="M85 55h2M68 56h6M87 56h3M67 57h11M88 57h7M67 58h14M89 58h9M66 59h9M80 59h4M89 59h5M99 59h2M66 60h8M81 60h12M100 60h5M66 61h7M82 61h10M101 61h4M66 62h6M83 62h8M102 62h3M53 63h2M65 63h7M83 63h8M102 63h3M52 64h3M65 64h7M83 64h8M102 64h3M51 65h4M65 65h7M83 65h8M102 65h3M51 66h2M54 66h1M65 66h7M83 66h8M102 66h3M51 67h2M54 67h1M65 67h7M83 67h8M102 67h3M51 68h2M54 68h2M65 68h7M83 68h8M102 68h3M52 69h2M55 69h1M65 69h7M83 69h8M102 69h3M53 70h3M64 70h8M83 70h8M102 70h3M64 71h8M83 71h8M102 71h3M64 72h8M83 72h8M102 72h3M64 73h8M83 73h8M102 73h3M63 74h10M82 74h10M101 74h4M63 75h11M81 75h12M100 75h4M63 76h12M80 76h14M99 76h5M64 77h39M65 78h37M66 79h35M68 80h18M88 80h11M113 80h1M69 81h16M86 81h11M113 81h1M70 82h26M111 82h1M113 82h1M73 83h21M111 83h1M113 83h1M75 84h17M111 84h1M113 84h1M77 85h14M111 85h1M113 85h1M115 85h1M117 85h1M111 86h3M115 86h1M117 86h1M113 87h1M115 87h1M117 87h1M109 88h3M113 88h1M115 88h1M117 88h1M109 89h1M112 89h3M111 90h7M110 91h8M111 92h7M111 93h6M112 94h5M114 95h2M48 116h2M44 117h7M44 118h8M48 119h5M50 120h3M42 121h3M50 121h2M42 122h2M45 122h1M51 122h1M41 123h2M44 123h2M51 123h1M41 124h4M46 124h2M41 125h6M48 125h1M42 126h4M47 126h1M44 127h3M90 149h4M65 150h7M87 150h7M65 151h7M87 151h7M64 152h7M87 152h7M64 153h7M87 153h3M93 153h1M63 154h8M87 154h7" />
<path stroke="#956548" d="M16 56h3M17 57h3M21 57h3M8 58h9M19 58h6M8 59h2M20 59h2M24 59h1M24 60h2M24 61h2M25 62h1M5 63h2M27 63h1M5 64h2M27 64h1M5 65h1M27 65h2M4 66h2M27 66h2M4 67h1M28 67h1M4 68h1M28 68h1M4 69h1M28 69h1M4 70h1M27 70h2M3 71h2M27 71h1M3 72h2M26 72h1M26 73h1M25 74h1M3 75h1M3 76h1M3 77h2M3 78h2M4 79h3M5 80h3M9 83h5M8 84h6M16 85h2M16 86h6M20 87h2M24 88h1M24 89h3M25 90h4M27 91h3M28 92h2M31 96h2M31 97h2M32 98h1M32 99h2M32 100h2M33 101h2M34 102h1M34 103h1M37 103h1M37 104h2M38 105h1M38 106h2M39 107h2M40 108h1M40 112h1M42 112h2M40 113h4M41 114h4M42 115h1M44 115h1M42 116h1M49 122h1M49 123h1M50 124h1M51 128h1M50 129h3M51 130h2M52 131h2M53 132h3M53 133h3M54 134h3M54 135h3M55 136h2" />
<path stroke="#1b4cd3" d="M51 57h1M15 65h4M15 66h5M19 67h2M12 68h2M19 68h3M12 69h2M20 69h2M12 70h3M19 70h3M12 71h3M19 71h3M12 72h9M13 73h7M15 74h4" />
<path stroke="#13599f" d="M49 58h1" />
<path stroke="#9deef7" d="M75 60h5M94 60h5M74 61h1M93 61h1M73 62h1M92 62h1M73 63h1M92 63h1M73 64h1M92 64h1M73 65h1M92 65h1M73 66h1M92 66h1M73 67h1M92 67h1M73 68h1M92 68h1M73 69h1M92 69h1M73 70h1M92 70h1M73 71h1M92 71h1M73 72h1M92 72h1M73 73h1M92 73h1M74 74h1M93 74h1M75 75h1M94 75h1" />
<path stroke="#dbeaf2" d="M75 61h6M94 61h6M74 62h4M81 62h1M93 62h4M100 62h1M74 63h3M93 63h3M74 64h2M77 64h2M93 64h2M96 64h2M74 65h2M77 65h2M93 65h2M96 65h2M74 66h2M93 66h2M74 67h2M93 67h2M74 68h2M93 68h2M74 69h2M93 69h2M74 70h2M93 70h2M74 71h2M93 71h2M74 72h2M93 72h2M74 73h3M93 73h3M75 74h3M80 74h1M94 74h3M99 74h1M76 75h4M95 75h4" />
<path stroke="#0230ae" d="M14 64h6M13 65h2M12 66h1M21 66h1M11 67h1M21 67h2M11 68h1M22 68h1M11 69h1M22 69h1M11 70h1M22 70h1M11 71h1M22 71h1M11 72h1M21 72h2M12 73h1M20 73h2M13 74h1M20 74h1M14 75h6" />
<path stroke="#2144ac" d="M19 65h2M20 66h1M12 67h1M14 74h1M19 74h1" />
<path stroke="#9dd1ef" d="M13 66h2M13 67h2M56 94h1M55 95h1M102 95h1M57 96h1M103 96h1M55 97h2M59 97h1M100 97h1M103 97h2M56 98h3M98 98h1M101 98h3M57 99h3M62 99h1M96 99h1M99 99h1M101 99h2M59 100h3M96 100h2M100 100h2M60 101h3M64 101h1M97 101h1M99 101h2M62 102h2M97 102h3M63 103h1M97 103h1M100 133h1M100 134h1M101 135h1M101 136h1M101 138h1M101 139h1M101 140h1M101 141h1M85 142h1M73 143h1M79 143h1M85 143h1M89 143h1M93 143h1M98 143h1M101 143h1M62 144h1M66 144h1M73 144h1M79 144h1M85 144h1M89 144h1M93 144h1M98 144h1M101 144h1M57 145h2M61 145h2M66 145h2M72 145h2M78 145h2M84 145h3M89 145h1M93 145h1M98 145h1M101 145h1M57 146h1M60 146h2M65 146h3M71 146h4M77 146h4M83 146h4M88 146h3M92 146h3M97 146h2M100 146h2M57 147h1M60 147h2M64 147h5M70 147h11M82 147h13M96 147h5M56 148h1M59 148h8M69 148h2M78 148h5M87 148h3M94 148h3M56 149h4M53 150h3" />
<path stroke="rgba(0,0,0,0.023529411764705882)" d="M35 67h1" />
<path stroke="rgba(0,0,0,0.027450980392156862)" d="M32 70h1" />
<path stroke="rgba(0,0,0,0.011764705882352941)" d="M32 71h1" />
<path stroke="#2582b6" d="M64 79h1M64 80h2M63 81h5M62 82h5M68 82h1M97 82h1M61 83h5M69 83h1M96 83h2M61 84h4M94 84h2M97 84h1M59 85h2M62 85h4M74 85h1M92 85h2M97 85h1M59 86h3M63 86h4M74 86h3M91 86h1M95 86h2M59 87h4M65 87h3M76 87h15M94 87h2M97 87h2M58 88h3M63 88h2M67 88h4M93 88h1M96 88h1M57 89h4M65 89h2M68 89h5M91 89h1M94 89h2M57 90h2M60 90h1M67 90h1M73 90h3M92 90h2M100 90h1M57 91h3M68 91h5M75 91h4M90 91h1M99 91h2M57 92h2M73 92h2M88 92h2M98 92h1M55 93h1M57 93h3M75 93h14M97 93h1M60 94h2M96 94h2M58 95h2M62 95h2M94 95h2M60 96h2M92 96h3M62 97h7M89 97h3M69 98h6M84 98h5M75 99h9M66 101h1M65 102h2M65 103h1M64 104h1M64 105h1M64 106h1M64 107h1M64 108h1M64 109h1M64 110h1M64 111h2M64 112h3M64 113h3M95 113h1M65 114h2M95 114h1M65 115h3M94 115h2M66 116h4M92 116h3M64 121h5M93 121h4M63 122h4M95 122h2M62 123h4M96 123h2M62 124h3M96 124h2M62 125h2M61 126h2M61 127h1M61 128h1M60 129h2M60 130h1M60 131h1M60 132h1M59 133h1M58 134h2M58 135h2M58 136h1M58 137h1M58 138h1M57 139h1M57 140h1M57 141h1M57 142h1M56 144h1M56 145h1M56 146h1M55 147h1M55 148h1M54 149h2" />
<path stroke="#30a4d1" d="M67 82h1M66 83h3M65 84h8M96 84h1M66 85h8M94 85h3M67 86h7M92 86h3M68 87h8M91 87h3M61 88h2M71 88h22M97 88h3M61 89h4M73 89h18M96 89h4M59 90h1M61 90h6M76 90h14M94 90h5M60 91h8M79 91h9M91 91h7M101 91h1M59 92h14M90 92h7M99 92h3M60 93h15M89 93h7M98 93h5M54 94h2M62 94h32M98 94h5M56 95h2M64 95h28M96 95h6M103 95h1M56 96h1M58 96h2M69 96h20M95 96h8M57 97h2M60 97h2M75 97h9M92 97h8M101 97h2M59 98h10M89 98h9M99 98h2M60 99h2M63 99h12M84 99h10M95 99h1M97 99h2M100 99h1M62 100h33M98 100h2M63 101h1M67 101h29M98 101h1M67 102h29M66 103h30M65 104h31M65 105h31M65 106h31M65 107h31M65 108h31M65 109h31M65 110h31M66 111h30M67 112h29M67 113h28M67 114h12M87 114h8M68 115h10M88 115h6M70 116h8M88 116h4M69 121h9M88 121h5M67 122h11M88 122h7M66 123h13M87 123h9M65 124h31M64 125h29M94 125h4M63 126h36M62 127h37M62 128h18M81 128h18M62 129h38M61 130h39M61 131h39M61 132h39M60 133h40M60 134h5M66 134h34M60 135h41M59 136h42M59 137h43M59 138h42M58 139h43M58 140h43M58 141h43M58 142h27M86 142h16M57 143h16M74 143h5M80 143h5M86 143h3M90 143h3M94 143h4M99 143h2M57 144h5M63 144h3M67 144h6M74 144h5M80 144h5M86 144h3M90 144h3M94 144h4M99 144h2M59 145h2M63 145h3M68 145h4M74 145h4M80 145h4M87 145h2M90 145h3M94 145h4M99 145h2M58 146h2M62 146h3M68 146h3M75 146h2M81 146h2M87 146h1M91 146h1M95 146h2M99 146h1M56 147h1M58 147h2M62 147h2M69 147h1M81 147h1M95 147h1M57 148h2" />
<path stroke="rgba(0,0,0,0.047058823529411764)" d="M105 92h1" />
<path stroke="#90cdf0" d="M53 95h2M54 96h2M67 148h1" />
<path stroke="#c68b3b" d="M79 115h8M79 116h2M85 116h2M79 117h1M86 117h1M79 118h1M86 118h1M79 119h1M86 119h1M79 120h1M86 120h1M79 121h2M85 121h2M79 122h8" />
<path stroke="#1b50be" d="M54 123h1" />
<path stroke="#30aed1" d="M93 125h1M80 128h1M65 134h1" />
<path stroke="#98cbe7" d="M68 148h1" />
<path stroke="#9ccfed" d="M71 148h1" />
<path stroke="#1a4fbb" d="M73 149h1" />
<path stroke="#194ab0" d="M84 153h1" />
<path stroke="#153f95" d="M85 153h1" />
<path stroke="#fcd0c0" d="M90 153h3" />
<path stroke="#040c1c" d="M71 154h1" />
</svg>